AGaramondPro-Bold.ufo
<glyph name="numbersign" format="1">
  <advance width="520"/>
  <unicode hex="0023"/>
  <outline>
    <contour>
      <point x="330" y="396" type="line" name="hr00"/>
      <point x="291" y="249" type="line"/>
      <point x="194" y="249" type="line"/>
      <point x="234" y="396" type="line"/>
    </contour>
    <contour>
      <point x="492" y="396" type="line"/>
      <point x="501" y="461" type="line"/>
      <point x="411" y="461" type="line"/>
      <point x="456" y="626" type="line"/>
      <point x="391" y="626" type="line"/>
      <point x="347" y="461" type="line"/>
      <point x="252" y="461" type="line"/>
      <point x="297" y="626" type="line"/>
      <point x="233" y="626" type="line"/>
      <point x="189" y="461" type="line"/>
      <point x="85" y="461" type="line"/>
      <point x="73" y="396" type="line"/>
      <point x="172" y="396" type="line"/>
      <point x="133" y="249" type="line"/>
      <point x="29" y="249" type="line"/>
      <point x="18" y="185" type="line"/>
      <point x="116" y="185" type="line"/>
      <point x="67" y="0" type="line"/>
      <point x="126" y="0" type="line"/>
      <point x="177" y="185" type="line"/>
      <point x="274" y="185" type="line"/>
      <point x="225" y="0" type="line"/>
      <point x="285" y="0" type="line"/>
      <point x="336" y="185" type="line"/>
      <point x="430" y="185" type="line"/>
      <point x="441" y="249" type="line"/>
      <point x="353" y="249" type="line"/>
      <point x="393" y="396" type="line"/>
    </contour>
  </outline>
</glyph>
<glyph name="quotesingle" format="1">
  <advance width="253"/>
  <unicode hex="0027"/>
  <outline>
    <contour>
      <point x="127" y="700" type="curve" smooth="yes" name="hr00"/>
      <point x="85" y="700"/>
      <point x="63" y="698"/>
      <point x="63" y="666" type="curve" smooth="yes"/>
      <point x="63" y="655"/>
      <point x="66" y="638"/>
      <point x="71" y="609" type="curve" smooth="yes"/>
      <point x="108" y="404" type="line"/>
      <point x="119" y="396"/>
      <point x="135" y="396"/>
      <point x="146" y="404" type="curve"/>
      <point x="183" y="609" type="line" smooth="yes"/>
      <point x="188" y="638"/>
      <point x="191" y="655"/>
      <point x="191" y="666" type="curve" smooth="yes"/>
      <point x="191" y="698"/>
      <point x="169" y="700"/>
    </contour>
  </outline>
</glyph>
<glyph name="period" format="1">
  <advance width="260"/>
  <unicode hex="002E"/>
  <outline>
    <contour>
      <point x="130" y="-14" type="curve" smooth="yes" name="hr00"/>
      <point x="178" y="-14"/>
      <point x="211" y="21"/>
      <point x="211" y="67" type="curve" smooth="yes"/>
      <point x="211" y="110"/>
      <point x="178" y="150"/>
      <point x="130" y="150" type="curve" smooth="yes"/>
      <point x="85" y="150"/>
      <point x="49" y="114"/>
      <point x="49" y="67" type="curve" smooth="yes"/>
      <point x="49" y="18"/>
      <point x="90" y="-14"/>
    </contour>
  </outline>
</glyph>
<glyph name="five" format="1">
  <advance width="520"/>
  <unicode hex="0035"/>
  <outline>
    <contour>
      <point x="165" y="622" type="line" smooth="yes" name="hr00"/>
      <point x="133" y="618"/>
      <point x="127" y="618"/>
      <point x="120" y="592" type="curve" smooth="yes"/>
      <point x="60" y="362" type="line" smooth="yes"/>
      <point x="54" y="339"/>
      <point x="58" y="330"/>
      <point x="90" y="328" type="curve" smooth="yes"/>
      <point x="190" y="320"/>
      <point x="340" y="305"/>
      <point x="340" y="162" type="curve" smooth="yes"/>
      <point x="340" y="108"/>
      <point x="306" y="62"/>
      <point x="247" y="27" type="curve" smooth="yes"/>
      <point x="200" y="-1"/>
      <point x="119" y="-15"/>
      <point x="47" y="-18" type="curve"/>
      <point x="34" y="-27"/>
      <point x="38" y="-58"/>
      <point x="53" y="-65" type="curve"/>
      <point x="137" y="-63"/>
      <point x="241" y="-44"/>
      <point x="324" y="1" type="curve" smooth="yes"/>
      <point x="407" y="46"/>
      <point x="468" y="113"/>
      <point x="468" y="217" type="curve" smooth="yes"/>
      <point x="468" y="300"/>
      <point x="418" y="356"/>
      <point x="362" y="384" type="curve" smooth="yes"/>
      <point x="304" y="413"/>
      <point x="211" y="427"/>
      <point x="158" y="433" type="curve" smooth="yes"/>
      <point x="138" y="435"/>
      <point x="125" y="439"/>
      <point x="131" y="462" type="curve" smooth="yes"/>
      <point x="137" y="485" type="line" smooth="yes"/>
      <point x="141" y="502"/>
      <point x="146" y="512"/>
      <point x="160" y="514" type="curve" smooth="yes"/>
      <point x="386" y="539" type="line"/>
      <point x="411" y="563"/>
      <point x="432" y="604"/>
      <point x="441" y="642" type="curve"/>
      <point x="441" y="649"/>
      <point x="438" y="654"/>
      <point x="430" y="654" type="curve"/>
    </contour>
  </outline>
</glyph>
<glyph name="eight" format="1">
  <advance width="520"/>
  <unicode hex="0038"/>
  <outline>
    <contour>
      <point x="255" y="-14" type="curve" smooth="yes" name="hr01"/>
      <point x="412" y="-14"/>
      <point x="485" y="65"/>
      <point x="485" y="159" type="curve" smooth="yes" name="hr02"/>
      <point x="485" y="255"/>
      <point x="426" y="308"/>
      <point x="351" y="346" type="curve"/>
      <point x="404" y="376"/>
      <point x="460" y="413"/>
      <point x="460" y="484" type="curve" smooth="yes" name="hr03"/>
      <point x="460" y="579"/>
      <point x="380" y="640"/>
      <point x="267" y="640" type="curve" smooth="yes"/>
      <point x="143" y="640"/>
      <point x="62" y="566"/>
      <point x="62" y="468" type="curve" smooth="yes"/>
      <point x="62" y="397"/>
      <point x="106" y="348"/>
      <point x="168" y="314" type="curve"/>
      <point x="89" y="274"/>
      <point x="36" y="223"/>
      <point x="36" y="148" type="curve" smooth="yes" name="hr04"/>
      <point x="36" y="39"/>
      <point x="138" y="-14"/>
    </contour>
    <contour>
      <point x="271" y="32" type="curve" smooth="yes" name="hr05"/>
      <point x="206" y="32"/>
      <point x="165" y="89"/>
      <point x="165" y="159" type="curve" smooth="yes"/>
      <point x="165" y="207"/>
      <point x="180" y="250"/>
      <point x="216" y="286" type="curve"/>
      <point x="299" y="247"/>
      <point x="354" y="205"/>
      <point x="354" y="126" type="curve" smooth="yes"/>
      <point x="354" y="66"/>
      <point x="315" y="32"/>
    </contour>
    <contour>
      <point x="265" y="594" type="curve" smooth="yes" name="hr06"/>
      <point x="305" y="594"/>
      <point x="348" y="555"/>
      <point x="348" y="486" type="curve" smooth="yes"/>
      <point x="348" y="438"/>
      <point x="331" y="396"/>
      <point x="300" y="377" type="curve"/>
      <point x="218" y="412"/>
      <point x="184" y="454"/>
      <point x="184" y="501" type="curve" smooth="yes"/>
      <point x="184" y="555"/>
      <point x="219" y="594"/>
    </contour>
  </outline>
</glyph>
<glyph name="less" format="1">
  <advance width="520"/>
  <unicode hex="003C"/>
  <outline>
    <contour>
      <point x="66" y="236" type="line" name="hr00"/>
      <point x="66" y="177" type="line"/>
      <point x="455" y="0" type="line"/>
      <point x="455" y="82" type="line"/>
      <point x="169" y="206" type="line"/>
      <point x="169" y="208" type="line"/>
      <point x="455" y="331" type="line"/>
      <point x="455" y="414" type="line"/>
    </contour>
  </outline>
</glyph>
<glyph name="G" format="1">
  <advance width="734"/>
  <unicode hex="0047"/>
  <outline>
    <contour>
      <point x="663" y="169" type="line" smooth="yes" name="hr01"/>
      <point x="663" y="223"/>
      <point x="669" y="233"/>
      <point x="699" y="238" type="curve" smooth="yes"/>
      <point x="722" y="242" type="line"/>
      <point x="730" y="248"/>
      <point x="730" y="271"/>
      <point x="722" y="277" type="curve"/>
      <point x="688" y="275"/>
      <point x="639" y="274"/>
      <point x="591" y="274" type="curve" smooth="yes"/>
      <point x="542" y="274"/>
      <point x="493" y="275"/>
      <point x="422" y="277" type="curve"/>
      <point x="411" y="271"/>
      <point x="411" y="248"/>
      <point x="422" y="242" type="curve"/>
      <point x="466" y="236" type="line" smooth="yes"/>
      <point x="514" y="229"/>
      <point x="520" y="223"/>
      <point x="520" y="169" type="curve" smooth="yes"/>
      <point x="520" y="106" type="line" smooth="yes"/>
      <point x="520" y="41"/>
      <point x="508" y="30"/>
      <point x="451" y="30" type="curve" smooth="yes"/>
      <point x="414" y="30"/>
      <point x="362" y="36"/>
      <point x="314" y="68" type="curve" smooth="yes"/>
      <point x="249" y="112"/>
      <point x="200" y="197"/>
      <point x="200" y="340" type="curve" smooth="yes"/>
      <point x="200" y="498"/>
      <point x="277" y="630"/>
      <point x="436" y="630" type="curve" smooth="yes"/>
      <point x="529" y="630"/>
      <point x="592" y="583"/>
      <point x="624" y="489" type="curve"/>
      <point x="631" y="479"/>
      <point x="658" y="480"/>
      <point x="662" y="491" type="curve" name="hr02"/>
      <point x="652" y="552"/>
      <point x="651" y="622"/>
      <point x="648" y="652" type="curve"/>
      <point x="616" y="652"/>
      <point x="561" y="676"/>
      <point x="450" y="676" type="curve" smooth="yes" name="hr03"/>
      <point x="365" y="676"/>
      <point x="284" y="660"/>
      <point x="216" y="623" type="curve" smooth="yes"/>
      <point x="96" y="556"/>
      <point x="40" y="446"/>
      <point x="40" y="321" type="curve" smooth="yes"/>
      <point x="40" y="177"/>
      <point x="120" y="66"/>
      <point x="237" y="19" type="curve" smooth="yes"/>
      <point x="308" y="-9"/>
      <point x="366" y="-16"/>
      <point x="434" y="-16" type="curve" smooth="yes"/>
      <point x="490" y="-16"/>
      <point x="576" y="-3"/>
      <point x="611" y="8" type="curve" smooth="yes"/>
      <point x="638" y="17"/>
      <point x="664" y="20"/>
      <point x="681" y="23" type="curve" name="hr04"/>
      <point x="687" y="26"/>
      <point x="688" y="43"/>
      <point x="684" y="47" type="curve"/>
      <point x="665" y="51"/>
      <point x="663" y="71"/>
      <point x="663" y="113" type="curve" smooth="yes"/>
    </contour>
  </outline>
</glyph>
<glyph name="Q" format="1">
  <advance width="788"/>
  <unicode hex="0051"/>
  <outline>
    <contour>
      <point x="397" y="676" type="curve" smooth="yes" name="hr00"/>
      <point x="188" y="676"/>
      <point x="40" y="523"/>
      <point x="40" y="325" type="curve" smooth="yes"/>
      <point x="40" y="129"/>
      <point x="171" y="1"/>
      <point x="335" y="-13" type="curve" smooth="yes"/>
      <point x="359" y="-15"/>
      <point x="369" y="-27"/>
      <point x="388" y="-47" type="curve" smooth="yes"/>
      <point x="481" y="-143"/>
      <point x="605" y="-219"/>
      <point x="749" y="-219" type="curve" smooth="yes"/>
      <point x="798" y="-219"/>
      <point x="855" y="-208"/>
      <point x="892" y="-182" type="curve"/>
      <point x="895" y="-174"/>
      <point x="892" y="-162"/>
      <point x="883" y="-158" type="curve"/>
      <point x="870" y="-163"/>
      <point x="854" y="-166"/>
      <point x="840" y="-166" type="curve" smooth="yes"/>
      <point x="823" y="-166"/>
      <point x="794" y="-165"/>
      <point x="765" y="-158" type="curve" smooth="yes"/>
      <point x="689" y="-138"/>
      <point x="612" y="-74"/>
      <point x="548" y="-14" type="curve" smooth="yes"/>
      <point x="535" y="-2"/>
      <point x="532" y="5"/>
      <point x="539" y="9" type="curve"/>
      <point x="668" y="57"/>
      <point x="748" y="170"/>
      <point x="748" y="332" type="curve" smooth="yes"/>
      <point x="748" y="537"/>
      <point x="605" y="676"/>
    </contour>
    <contour>
      <point x="389" y="630" type="curve" smooth="yes"/>
      <point x="513" y="630"/>
      <point x="588" y="491"/>
      <point x="588" y="320" type="curve" smooth="yes"/>
      <point x="588" y="158"/>
      <point x="537" y="29"/>
      <point x="406" y="29" type="curve" smooth="yes"/>
      <point x="243" y="29"/>
      <point x="200" y="226"/>
      <point x="200" y="348" type="curve" smooth="yes"/>
      <point x="200" y="515"/>
      <point x="266" y="630"/>
    </contour>
  </outline>
</glyph>
<glyph name="V" format="1">
  <advance width="642"/>
  <unicode hex="0056"/>
  <outline>
    <contour>
      <point x="526" y="421" type="line" smooth="yes" name="hr00"/>
      <point x="560" y="502"/>
      <point x="585" y="558"/>
      <point x="607" y="591" type="curve" smooth="yes"/>
      <point x="620" y="612"/>
      <point x="637" y="619"/>
      <point x="665" y="624" type="curve" smooth="yes"/>
      <point x="691" y="629" type="line"/>
      <point x="698" y="635"/>
      <point x="697" y="659"/>
      <point x="689" y="663" type="curve"/>
      <point x="660" y="661"/>
      <point x="630" y="660"/>
      <point x="596" y="660" type="curve" smooth="yes"/>
      <point x="558" y="660"/>
      <point x="520" y="661"/>
      <point x="473" y="663" type="curve"/>
      <point x="461" y="658"/>
      <point x="461" y="637"/>
      <point x="469" y="629" type="curve"/>
      <point x="501" y="622" type="line" smooth="yes"/>
      <point x="525" y="616"/>
      <point x="533" y="612"/>
      <point x="533" y="605" type="curve" smooth="yes"/>
      <point x="533" y="599"/>
      <point x="530" y="588"/>
      <point x="523" y="569" type="curve" smooth="yes"/>
      <point x="511" y="535"/>
      <point x="468" y="423"/>
      <point x="443" y="360" type="curve" smooth="yes"/>
      <point x="405" y="266" type="line" smooth="yes"/>
      <point x="393" y="236"/>
      <point x="377" y="202"/>
      <point x="369" y="185" type="curve"/>
      <point x="336" y="269" type="line"/>
      <point x="248" y="494" type="line" smooth="yes"/>
      <point x="224" y="554"/>
      <point x="208" y="596"/>
      <point x="208" y="604" type="curve" smooth="yes"/>
      <point x="208" y="613"/>
      <point x="215" y="619"/>
      <point x="233" y="623" type="curve" smooth="yes"/>
      <point x="263" y="629" type="line"/>
      <point x="269" y="638"/>
      <point x="270" y="657"/>
      <point x="262" y="663" type="curve"/>
      <point x="201" y="661"/>
      <point x="158" y="660"/>
      <point x="112" y="660" type="curve" smooth="yes"/>
      <point x="60" y="660"/>
      <point x="27" y="662"/>
      <point x="-24" y="663" type="curve"/>
      <point x="-33" y="658"/>
      <point x="-36" y="640"/>
      <point x="-28" y="629" type="curve"/>
      <point x="12" y="619" type="line" smooth="yes"/>
      <point x="44" y="611"/>
      <point x="49" y="609"/>
      <point x="87" y="513" type="curve" smooth="yes"/>
      <point x="249" y="106" type="line" smooth="yes"/>
      <point x="263" y="72"/>
      <point x="280" y="19"/>
      <point x="291" y="-8" type="curve"/>
      <point x="297" y="-13"/>
      <point x="306" y="-16"/>
      <point x="318" y="-16" type="curve" smooth="yes"/>
      <point x="333" y="-16"/>
      <point x="345" y="-13"/>
      <point x="353" y="-8" type="curve"/>
      <point x="376" y="48"/>
      <point x="402" y="127"/>
      <point x="453" y="248" type="curve" smooth="yes"/>
    </contour>
  </outline>
</glyph>
<glyph name="b" format="1">
  <advance width="532"/>
  <unicode hex="0062"/>
  <outline>
    <contour>
      <point x="196" y="562" type="line" smooth="yes" name="hr01"/>
      <point x="196" y="625"/>
      <point x="197" y="667"/>
      <point x="200" y="708" type="curve"/>
      <point x="196" y="713"/>
      <point x="189" y="715"/>
      <point x="183" y="715" type="curve"/>
      <point x="132" y="693"/>
      <point x="72" y="669"/>
      <point x="29" y="659" type="curve"/>
      <point x="22" y="653"/>
      <point x="22" y="635"/>
      <point x="29" y="629" type="curve"/>
      <point x="46" y="619" type="line" smooth="yes"/>
      <point x="66" y="607"/>
      <point x="66" y="596"/>
      <point x="66" y="556" type="curve" smooth="yes"/>
      <point x="66" y="104" type="line" smooth="yes" name="hr02"/>
      <point x="66" y="52"/>
      <point x="65" y="18"/>
      <point x="63" y="5" type="curve"/>
      <point x="68" y="0"/>
      <point x="76" y="-3"/>
      <point x="83" y="-2" type="curve"/>
      <point x="90" y="5"/>
      <point x="107" y="13"/>
      <point x="117" y="13" type="curve" smooth="yes" name="hr03"/>
      <point x="124" y="13"/>
      <point x="133" y="10"/>
      <point x="148" y="4" type="curve" smooth="yes"/>
      <point x="167" y="-4"/>
      <point x="210" y="-14"/>
      <point x="255" y="-14" type="curve" smooth="yes"/>
      <point x="399" y="-14"/>
      <point x="501" y="69"/>
      <point x="501" y="214" type="curve" smooth="yes"/>
      <point x="501" y="328"/>
      <point x="427" y="414"/>
      <point x="314" y="414" type="curve" smooth="yes"/>
      <point x="271" y="414"/>
      <point x="234" y="400"/>
      <point x="208" y="386" type="curve"/>
      <point x="201" y="388"/>
      <point x="196" y="394"/>
      <point x="196" y="411" type="curve" smooth="yes"/>
    </contour>
    <contour>
      <point x="196" y="294" type="line" smooth="yes"/>
      <point x="196" y="318"/>
      <point x="198" y="335"/>
      <point x="205" y="340" type="curve" smooth="yes"/>
      <point x="213" y="346"/>
      <point x="227" y="351"/>
      <point x="245" y="351" type="curve" smooth="yes"/>
      <point x="314" y="351"/>
      <point x="363" y="283"/>
      <point x="363" y="183" type="curve" smooth="yes"/>
      <point x="363" y="103"/>
      <point x="340" y="32"/>
      <point x="275" y="32" type="curve" smooth="yes"/>
      <point x="250" y="32"/>
      <point x="229" y="46"/>
      <point x="216" y="66" type="curve" smooth="yes"/>
      <point x="201" y="88"/>
      <point x="196" y="115"/>
      <point x="196" y="141" type="curve" smooth="yes"/>
    </contour>
  </outline>
</glyph>
<glyph name="h" format="1">
  <advance width="547"/>
  <unicode hex="0068"/>
  <outline>
    <contour>
      <point x="80" y="116" type="line" smooth="yes" name="hr01"/>
      <point x="80" y="46"/>
      <point x="76" y="38"/>
      <point x="43" y="34" type="curve" smooth="yes"/>
      <point x="25" y="32" type="line"/>
      <point x="17" y="26"/>
      <point x="17" y="3"/>
      <point x="26" y="-3" type="curve"/>
      <point x="60" y="-1"/>
      <point x="102" y="0"/>
      <point x="143" y="0" type="curve" smooth="yes"/>
      <point x="191" y="0"/>
      <point x="223" y="-1"/>
      <point x="254" y="-3" type="curve"/>
      <point x="263" y="3"/>
      <point x="263" y="26"/>
      <point x="255" y="32" type="curve"/>
      <point x="237" y="35" type="line" smooth="yes"/>
      <point x="214" y="39"/>
      <point x="210" y="46"/>
      <point x="210" y="101" type="curve" smooth="yes"/>
      <point x="210" y="280" type="line" smooth="yes"/>
      <point x="210" y="298"/>
      <point x="212" y="310"/>
      <point x="218" y="317" type="curve" smooth="yes"/>
      <point x="226" y="328"/>
      <point x="246" y="341"/>
      <point x="274" y="341" type="curve" smooth="yes"/>
      <point x="323" y="341"/>
      <point x="344" y="309"/>
      <point x="344" y="274" type="curve" smooth="yes"/>
      <point x="344" y="101" type="line" smooth="yes"/>
      <point x="344" y="46"/>
      <point x="340" y="39"/>
      <point x="317" y="35" type="curve" smooth="yes"/>
      <point x="299" y="32" type="line"/>
      <point x="291" y="26"/>
      <point x="291" y="3"/>
      <point x="300" y="-3" type="curve"/>
      <point x="322" y="-1"/>
      <point x="365" y="0"/>
      <point x="408" y="0" type="curve" smooth="yes"/>
      <point x="456" y="0"/>
      <point x="498" y="-1"/>
      <point x="529" y="-3" type="curve"/>
      <point x="538" y="3"/>
      <point x="538" y="26"/>
      <point x="530" y="32" type="curve"/>
      <point x="514" y="34" type="line" smooth="yes"/>
      <point x="478" y="38"/>
      <point x="474" y="46"/>
      <point x="474" y="116" type="curve" smooth="yes"/>
      <point x="474" y="288" type="line" smooth="yes"/>
      <point x="474" y="357"/>
      <point x="432" y="414"/>
      <point x="348" y="414" type="curve" smooth="yes"/>
      <point x="298" y="414"/>
      <point x="255" y="389"/>
      <point x="233" y="374" type="curve" smooth="yes"/>
      <point x="223" y="368"/>
      <point x="218" y="366"/>
      <point x="217" y="366" type="curve" smooth="yes" name="hr02"/>
      <point x="212" y="366"/>
      <point x="210" y="369"/>
      <point x="210" y="378" type="curve" smooth="yes"/>
      <point x="210" y="562" type="line" smooth="yes"/>
      <point x="210" y="625"/>
      <point x="211" y="667"/>
      <point x="213" y="708" type="curve"/>
      <point x="209" y="713"/>
      <point x="202" y="715"/>
      <point x="196" y="715" type="curve"/>
      <point x="143" y="693"/>
      <point x="85" y="669"/>
      <point x="43" y="659" type="curve"/>
      <point x="36" y="653"/>
      <point x="36" y="635"/>
      <point x="43" y="629" type="curve"/>
      <point x="60" y="619" type="line" smooth="yes"/>
      <point x="80" y="607"/>
      <point x="80" y="596"/>
      <point x="80" y="556" type="curve" smooth="yes"/>
    </contour>
  </outline>
</glyph>
<glyph name="n" format="1">
  <advance width="550"/>
  <unicode hex="006E"/>
  <outline>
    <contour>
      <point x="84" y="116" type="line" smooth="yes" name="hr00"/>
      <point x="84" y="46"/>
      <point x="80" y="38"/>
      <point x="44" y="34" type="curve" smooth="yes"/>
      <point x="28" y="32" type="line"/>
      <point x="20" y="26"/>
      <point x="20" y="3"/>
      <point x="29" y="-3" type="curve"/>
      <point x="64" y="-1"/>
      <point x="105" y="0"/>
      <point x="147" y="0" type="curve" smooth="yes"/>
      <point x="195" y="0"/>
      <point x="227" y="-1"/>
      <point x="258" y="-3" type="curve"/>
      <point x="267" y="3"/>
      <point x="267" y="26"/>
      <point x="259" y="32" type="curve"/>
      <point x="243" y="34" type="line" smooth="yes"/>
      <point x="218" y="37"/>
      <point x="214" y="46"/>
      <point x="214" y="101" type="curve" smooth="yes"/>
      <point x="214" y="280" type="line" smooth="yes"/>
      <point x="214" y="298"/>
      <point x="216" y="310"/>
      <point x="222" y="317" type="curve" smooth="yes"/>
      <point x="230" y="328"/>
      <point x="250" y="341"/>
      <point x="278" y="341" type="curve" smooth="yes"/>
      <point x="328" y="341"/>
      <point x="348" y="309"/>
      <point x="348" y="270" type="curve" smooth="yes"/>
      <point x="348" y="101" type="line" smooth="yes"/>
      <point x="348" y="46"/>
      <point x="344" y="39"/>
      <point x="321" y="35" type="curve" smooth="yes"/>
      <point x="303" y="32" type="line"/>
      <point x="295" y="26"/>
      <point x="295" y="3"/>
      <point x="304" y="-3" type="curve"/>
      <point x="333" y="-1"/>
      <point x="372" y="0"/>
      <point x="412" y="0" type="curve" smooth="yes"/>
      <point x="460" y="0"/>
      <point x="502" y="-1"/>
      <point x="533" y="-3" type="curve"/>
      <point x="542" y="3"/>
      <point x="542" y="26"/>
      <point x="534" y="32" type="curve"/>
      <point x="518" y="34" type="line" smooth="yes"/>
      <point x="482" y="38"/>
      <point x="478" y="46"/>
      <point x="478" y="116" type="curve" smooth="yes"/>
      <point x="478" y="288" type="line" smooth="yes"/>
      <point x="478" y="357"/>
      <point x="436" y="414"/>
      <point x="353" y="414" type="curve" smooth="yes"/>
      <point x="307" y="414"/>
      <point x="260" y="387"/>
      <point x="238" y="374" type="curve" smooth="yes"/>
      <point x="232" y="371"/>
      <point x="222" y="366"/>
      <point x="219" y="366" type="curve" smooth="yes"/>
      <point x="216" y="366"/>
      <point x="214" y="368"/>
      <point x="214" y="374" type="curve" smooth="yes"/>
      <point x="214" y="381"/>
      <point x="217" y="405"/>
      <point x="217" y="419" type="curve"/>
      <point x="213" y="425"/>
      <point x="207" y="428"/>
      <point x="199" y="428" type="curve"/>
      <point x="170" y="410"/>
      <point x="98" y="383"/>
      <point x="51" y="370" type="curve"/>
      <point x="44" y="364"/>
      <point x="44" y="346"/>
      <point x="51" y="340" type="curve"/>
      <point x="65" y="331" type="line" smooth="yes"/>
      <point x="84" y="319"/>
      <point x="84" y="307"/>
      <point x="84" y="267" type="curve" smooth="yes"/>
    </contour>
  </outline>
</glyph>
<glyph name="braceright" format="1">
  <advance width="340"/>
  <unicode hex="007D"/>
  <outline>
    <contour>
      <point x="101" y="162" type="curve" smooth="yes" name="hr01"/>
      <point x="101" y="93"/>
      <point x="120" y="25"/>
      <point x="120" y="-43" type="curve" smooth="yes" name="hr02"/>
      <point x="120" y="-79"/>
      <point x="110" y="-117"/>
      <point x="36" y="-130" type="curve"/>
      <point x="30" y="-136"/>
      <point x="32" y="-155"/>
      <point x="38" y="-158" type="curve"/>
      <point x="129" y="-158"/>
      <point x="207" y="-145"/>
      <point x="207" y="-27" type="curve" smooth="yes"/>
      <point x="207" y="39"/>
      <point x="191" y="114"/>
      <point x="191" y="177" type="curve" smooth="yes" name="hr03"/>
      <point x="191" y="205"/>
      <point x="195" y="249"/>
      <point x="279" y="255" type="curve"/>
      <point x="286" y="263"/>
      <point x="286" y="276"/>
      <point x="279" y="281" type="curve" name="hr04"/>
      <point x="189" y="287"/>
      <point x="191" y="328"/>
      <point x="191" y="359" type="curve" smooth="yes" name="hr05"/>
      <point x="191" y="422"/>
      <point x="207" y="497"/>
      <point x="207" y="563" type="curve" smooth="yes"/>
      <point x="207" y="681"/>
      <point x="123" y="694"/>
      <point x="38" y="694" type="curve" name="hr06"/>
      <point x="32" y="691"/>
      <point x="30" y="672"/>
      <point x="36" y="666" type="curve"/>
      <point x="110" y="653"/>
      <point x="120" y="609"/>
      <point x="120" y="579" type="curve" smooth="yes"/>
      <point x="120" y="511"/>
      <point x="101" y="443"/>
      <point x="101" y="374" type="curve" smooth="yes" name="hr07"/>
      <point x="101" y="319"/>
      <point x="124" y="283"/>
      <point x="176" y="270" type="curve"/>
      <point x="176" y="266" type="line"/>
      <point x="124" y="253"/>
      <point x="101" y="217"/>
    </contour>
  </outline>
</glyph>
<glyph name="asciitilde" format="1">
  <advance width="520"/>
  <unicode hex="007E"/>
  <outline>
    <contour>
      <point x="196" y="249" type="line" smooth="yes" name="hr00"/>
      <point x="156" y="249"/>
      <point x="129" y="246"/>
      <point x="106" y="219" type="curve" smooth="yes"/>
      <point x="82" y="189"/>
      <point x="59" y="135"/>
      <point x="56" y="111" type="curve"/>
      <point x="62" y="93"/>
      <point x="95" y="89"/>
      <point x="110" y="98" type="curve"/>
      <point x="130" y="147"/>
      <point x="152" y="177"/>
      <point x="195" y="177" type="curve" smooth="yes"/>
      <point x="333" y="177" type="line" smooth="yes"/>
      <point x="368" y="177"/>
      <point x="390" y="181"/>
      <point x="409" y="203" type="curve" smooth="yes"/>
      <point x="431" y="227"/>
      <point x="454" y="271"/>
      <point x="464" y="308" type="curve"/>
      <point x="453" y="327"/>
      <point x="424" y="333"/>
      <point x="408" y="323" type="curve"/>
      <point x="389" y="272"/>
      <point x="371" y="249"/>
      <point x="323" y="249" type="curve" smooth="yes"/>
    </contour>
  </outline>
</glyph>
<glyph name="exclamdown" format="1">
  <advance width="254"/>
  <unicode hex="00A1"/>
  <outline>
    <contour>
      <point x="127" y="-266" type="curve" smooth="yes" name="hr00"/>
      <point x="179" y="-266"/>
      <point x="207" y="-257"/>
      <point x="207" y="-223" type="curve" smooth="yes"/>
      <point x="207" y="-207"/>
      <point x="201" y="-176"/>
      <point x="191" y="-106" type="curve" smooth="yes"/>
      <point x="149" y="175" type="line"/>
      <point x="137" y="183"/>
      <point x="117" y="183"/>
      <point x="105" y="175" type="curve"/>
      <point x="63" y="-106" type="line" smooth="yes"/>
      <point x="53" y="-176"/>
      <point x="47" y="-207"/>
      <point x="47" y="-223" type="curve" smooth="yes"/>
      <point x="47" y="-257"/>
      <point x="75" y="-266"/>
    </contour>
    <contour>
      <point x="127" y="394" type="curve" smooth="yes"/>
      <point x="87" y="394"/>
      <point x="46" y="362"/>
      <point x="46" y="313" type="curve" smooth="yes"/>
      <point x="46" y="266"/>
      <point x="82" y="230"/>
      <point x="127" y="230" type="curve" smooth="yes"/>
      <point x="175" y="230"/>
      <point x="208" y="270"/>
      <point x="208" y="313" type="curve" smooth="yes"/>
      <point x="208" y="359"/>
      <point x="175" y="394"/>
    </contour>
  </outline>
</glyph>
<glyph name="cent" format="1">
  <advance width="520"/>
  <unicode hex="00A2"/>
  <outline>
    <contour>
      <point x="268" y="188" type="line" name="hr00"/>
      <point x="219" y="210"/>
      <point x="193" y="261"/>
      <point x="193" y="331" type="curve" smooth="yes"/>
      <point x="193" y="412"/>
      <point x="234" y="481"/>
      <point x="303" y="484" type="curve"/>
    </contour>
    <contour>
      <point x="366" y="612" type="line"/>
      <point x="356" y="620"/>
      <point x="328" y="620"/>
      <point x="318" y="612" type="curve"/>
      <point x="308" y="527" type="line"/>
      <point x="181" y="524"/>
      <point x="56" y="457"/>
      <point x="56" y="303" type="curve" smooth="yes"/>
      <point x="56" y="197"/>
      <point x="130" y="116"/>
      <point x="258" y="108" type="curve"/>
      <point x="245" y="4" type="line"/>
      <point x="257" y="-4"/>
      <point x="283" y="-4"/>
      <point x="293" y="4" type="curve"/>
      <point x="306" y="108" type="line"/>
      <point x="402" y="115"/>
      <point x="444" y="170"/>
      <point x="466" y="213" type="curve"/>
      <point x="467" y="226"/>
      <point x="454" y="234"/>
      <point x="439" y="232" type="curve"/>
      <point x="407" y="190"/>
      <point x="377" y="174"/>
      <point x="330" y="174" type="curve" smooth="yes"/>
      <point x="325" y="174"/>
      <point x="319" y="174"/>
      <point x="314" y="176" type="curve"/>
      <point x="350" y="474" type="line"/>
      <point x="352" y="474"/>
      <point x="352" y="473"/>
      <point x="353" y="473" type="curve" smooth="yes"/>
      <point x="368" y="462"/>
      <point x="392" y="432"/>
      <point x="409" y="414" type="curve" smooth="yes"/>
      <point x="413" y="410"/>
      <point x="420" y="408"/>
      <point x="425" y="408" type="curve" smooth="yes"/>
      <point x="438" y="408"/>
      <point x="452" y="428"/>
      <point x="452" y="462" type="curve" smooth="yes"/>
      <point x="452" y="486"/>
      <point x="440" y="505"/>
      <point x="431" y="512" type="curve"/>
      <point x="411" y="519"/>
      <point x="385" y="524"/>
      <point x="356" y="525" type="curve"/>
    </contour>
  </outline>
</glyph>
<glyph name="brokenbar" format="1">
  <advance width="248"/>
  <unicode hex="00A6"/>
  <outline>
    <contour>
      <point x="168" y="675" type="line" name="hr00"/>
      <point x="80" y="675" type="line"/>
      <point x="80" y="325" type="line"/>
      <point x="168" y="325" type="line"/>
    </contour>
    <contour>
      <point x="168" y="175" type="line"/>
      <point x="80" y="175" type="line"/>
      <point x="80" y="-175" type="line"/>
      <point x="168" y="-175" type="line"/>
    </contour>
  </outline>
</glyph>
<glyph name="copyright" format="1">
  <advance width="780"/>
  <unicode hex="00A9"/>
  <outline>
    <contour>
      <point x="390" y="-16" type="curve" smooth="yes" name="hr00"/>
      <point x="583" y="-16"/>
      <point x="740" y="139"/>
      <point x="740" y="330" type="curve" smooth="yes"/>
      <point x="740" y="521"/>
      <point x="583" y="676"/>
      <point x="390" y="676" type="curve" smooth="yes"/>
      <point x="197" y="676"/>
      <point x="40" y="521"/>
      <point x="40" y="330" type="curve" smooth="yes"/>
      <point x="40" y="139"/>
      <point x="197" y="-16"/>
    </contour>
    <contour>
      <point x="672" y="331" type="curve" smooth="yes"/>
      <point x="672" y="164"/>
      <point x="544" y="31"/>
      <point x="390" y="31" type="curve" smooth="yes"/>
      <point x="236" y="31"/>
      <point x="108" y="164"/>
      <point x="108" y="331" type="curve" smooth="yes"/>
      <point x="108" y="498"/>
      <point x="236" y="629"/>
      <point x="390" y="629" type="curve" smooth="yes"/>
      <point x="544" y="629"/>
      <point x="672" y="498"/>
    </contour>
    <contour>
      <point x="422" y="149" type="curve" smooth="yes"/>
      <point x="449" y="149"/>
      <point x="503" y="155"/>
      <point x="535" y="176" type="curve"/>
      <point x="547" y="196"/>
      <point x="558" y="233"/>
      <point x="561" y="265" type="curve"/>
      <point x="555" y="272"/>
      <point x="541" y="273"/>
      <point x="535" y="267" type="curve"/>
      <point x="506" y="213"/>
      <point x="474" y="184"/>
      <point x="432" y="184" type="curve" smooth="yes"/>
      <point x="377" y="184"/>
      <point x="320" y="228"/>
      <point x="320" y="334" type="curve" smooth="yes"/>
      <point x="320" y="448"/>
      <point x="382" y="483"/>
      <point x="426" y="483" type="curve" smooth="yes"/>
      <point x="456" y="483"/>
      <point x="499" y="466"/>
      <point x="520" y="395" type="curve"/>
      <point x="526" y="390"/>
      <point x="542" y="391"/>
      <point x="547" y="398" type="curve"/>
      <point x="538" y="501" type="line"/>
      <point x="516" y="505"/>
      <point x="477" y="518"/>
      <point x="422" y="518" type="curve" smooth="yes"/>
      <point x="291" y="518"/>
      <point x="213" y="436"/>
      <point x="213" y="329" type="curve" smooth="yes"/>
      <point x="213" y="260"/>
      <point x="252" y="149"/>
    </contour>
  </outline>
</glyph>
<glyph name="guillemotleft" format="1">
  <advance width="432"/>
  <unicode hex="00AB"/>
  <outline>
    <contour>
      <point x="218" y="384" type="line" name="hr00"/>
      <point x="214" y="393"/>
      <point x="204" y="397"/>
      <point x="196" y="399" type="curve"/>
      <point x="147" y="341"/>
      <point x="97" y="284"/>
      <point x="44" y="227" type="curve" smooth="yes"/>
      <point x="33" y="214"/>
      <point x="33" y="204"/>
      <point x="44" y="191" type="curve" smooth="yes"/>
      <point x="97" y="133"/>
      <point x="147" y="75"/>
      <point x="196" y="17" type="curve"/>
      <point x="206" y="16"/>
      <point x="214" y="24"/>
      <point x="218" y="32" type="curve"/>
      <point x="142" y="195" type="line" smooth="yes"/>
      <point x="138" y="204"/>
      <point x="137" y="213"/>
      <point x="142" y="224" type="curve" smooth="yes"/>
    </contour>
    <contour>
      <point x="396" y="384" type="line"/>
      <point x="392" y="393"/>
      <point x="382" y="397"/>
      <point x="374" y="399" type="curve"/>
      <point x="325" y="341"/>
      <point x="275" y="284"/>
      <point x="222" y="227" type="curve" smooth="yes"/>
      <point x="211" y="214"/>
      <point x="211" y="204"/>
      <point x="222" y="191" type="curve" smooth="yes"/>
      <point x="275" y="133"/>
      <point x="325" y="75"/>
      <point x="374" y="17" type="curve"/>
      <point x="384" y="16"/>
      <point x="392" y="24"/>
      <point x="396" y="32" type="curve"/>
      <point x="320" y="195" type="line" smooth="yes"/>
      <point x="316" y="204"/>
      <point x="315" y="213"/>
      <point x="320" y="224" type="curve" smooth="yes"/>
    </contour>
  </outline>
</glyph>
<glyph name="logicalnot" format="1">
  <advance width="520"/>
  <unicode hex="00AC"/>
  <outline>
    <contour>
      <point x="373" y="67" type="line" name="hr00"/>
      <point x="461" y="67" type="line"/>
      <point x="461" y="322" type="line"/>
      <point x="60" y="322" type="line"/>
      <point x="60" y="250" type="line"/>
      <point x="373" y="250" type="line"/>
    </contour>
  </outline>
</glyph>
<glyph name="registered" format="1">
  <advance width="346"/>
  <unicode hex="00AE"/>
  <outline>
    <contour>
      <point x="173" y="676" type="curve" smooth="yes" name="hr01"/>
      <point x="94" y="676"/>
      <point x="30" y="613"/>
      <point x="30" y="536" type="curve" smooth="yes"/>
      <point x="30" y="459"/>
      <point x="94" y="396"/>
      <point x="173" y="396" type="curve" smooth="yes"/>
      <point x="252" y="396"/>
      <point x="316" y="459"/>
      <point x="316" y="536" type="curve" smooth="yes"/>
      <point x="316" y="613"/>
      <point x="252" y="676"/>
    </contour>
    <contour>
      <point x="173" y="652" type="curve" smooth="yes"/>
      <point x="233" y="652"/>
      <point x="282" y="601"/>
      <point x="282" y="536" type="curve" smooth="yes"/>
      <point x="282" y="472"/>
      <point x="233" y="421"/>
      <point x="173" y="421" type="curve" smooth="yes"/>
      <point x="114" y="421"/>
      <point x="64" y="472"/>
      <point x="64" y="536" type="curve" smooth="yes"/>
      <point x="64" y="601"/>
      <point x="114" y="652"/>
    </contour>
    <contour>
      <point x="123" y="505" type="line" smooth="yes"/>
      <point x="123" y="488"/>
      <point x="123" y="485"/>
      <point x="110" y="482" type="curve" smooth="yes"/>
      <point x="105" y="481" type="line" smooth="yes"/>
      <point x="103" y="480"/>
      <point x="103" y="471"/>
      <point x="107" y="470" type="curve"/>
      <point x="117" y="470"/>
      <point x="128" y="471"/>
      <point x="141" y="471" type="curve" smooth="yes"/>
      <point x="155" y="471"/>
      <point x="165" y="470"/>
      <point x="177" y="470" type="curve"/>
      <point x="179" y="471"/>
      <point x="179" y="480"/>
      <point x="177" y="481" type="curve" smooth="yes"/>
      <point x="173" y="482" type="line" smooth="yes"/>
      <point x="159" y="484"/>
      <point x="159" y="489"/>
      <point x="159" y="505" type="curve" smooth="yes"/>
      <point x="159" y="521" type="line" smooth="yes"/>
      <point x="159" y="523"/>
      <point x="160" y="526"/>
      <point x="164" y="526" type="curve" smooth="yes"/>
      <point x="168" y="526"/>
      <point x="172" y="524"/>
      <point x="174" y="520" type="curve" smooth="yes"/>
      <point x="191" y="492" type="line" name="hr02"/>
      <point x="202" y="476"/>
      <point x="216" y="469"/>
      <point x="235" y="469" type="curve" smooth="yes"/>
      <point x="241" y="469"/>
      <point x="246" y="469"/>
      <point x="252" y="470" type="curve" smooth="yes"/>
      <point x="254" y="471"/>
      <point x="254" y="478"/>
      <point x="252" y="478" type="curve" smooth="yes"/>
      <point x="248" y="479"/>
      <point x="246" y="481"/>
      <point x="241" y="484" type="curve" smooth="yes"/>
      <point x="233" y="490"/>
      <point x="223" y="505"/>
      <point x="211" y="528" type="curve" smooth="yes"/>
      <point x="209" y="533"/>
      <point x="209" y="535"/>
      <point x="211" y="536" type="curve" smooth="yes"/>
      <point x="221" y="540"/>
      <point x="233" y="551"/>
      <point x="233" y="567" type="curve" smooth="yes"/>
      <point x="233" y="599"/>
      <point x="199" y="604"/>
      <point x="173" y="604" type="curve" smooth="yes"/>
      <point x="153" y="604"/>
      <point x="132" y="603"/>
      <point x="107" y="602" type="curve"/>
      <point x="103" y="601"/>
      <point x="103" y="594"/>
      <point x="105" y="590" type="curve"/>
      <point x="110" y="590" type="line" smooth="yes"/>
      <point x="120" y="589"/>
      <point x="123" y="582"/>
      <point x="123" y="568" type="curve" smooth="yes" name="hr03"/>
    </contour>
    <contour>
      <point x="159" y="580" type="line" smooth="yes"/>
      <point x="159" y="587"/>
      <point x="160" y="589"/>
      <point x="172" y="589" type="curve" smooth="yes"/>
      <point x="183" y="589"/>
      <point x="191" y="579"/>
      <point x="191" y="561" type="curve" smooth="yes"/>
      <point x="191" y="553"/>
      <point x="187" y="539"/>
      <point x="171" y="539" type="curve" smooth="yes"/>
      <point x="160" y="539"/>
      <point x="159" y="539"/>
      <point x="159" y="547" type="curve" smooth="yes"/>
    </contour>
  </outline>
</glyph>
<glyph name="macron" format="1">
  <advance width="380"/>
  <unicode hex="00AF"/>
  <outline>
    <contour>
      <point x="316" y="501" type="line" name="hr00"/>
      <point x="329" y="517"/>
      <point x="329" y="556"/>
      <point x="316" y="572" type="curve"/>
      <point x="63" y="572" type="line"/>
      <point x="51" y="556"/>
      <point x="51" y="517"/>
      <point x="63" y="501" type="curve"/>
    </contour>
  </outline>
</glyph>
<glyph name="threesuperior" format="1">
  <advance width="400"/>
  <unicode hex="00B3"/>
  <outline>
    <contour>
      <point x="116" y="281" type="curve" smooth="yes" name="hr01"/>
      <point x="152" y="281"/>
      <point x="216" y="293"/>
      <point x="271" y="328" type="curve" smooth="yes"/>
      <point x="329" y="364"/>
      <point x="354" y="405"/>
      <point x="354" y="454" type="curve" smooth="yes"/>
      <point x="354" y="521"/>
      <point x="300" y="546"/>
      <point x="249" y="552" type="curve" smooth="yes"/>
      <point x="241" y="553"/>
      <point x="234" y="558"/>
      <point x="241" y="561" type="curve" smooth="yes"/>
      <point x="305" y="587"/>
      <point x="318" y="610"/>
      <point x="318" y="639" type="curve" smooth="yes" name="hr02"/>
      <point x="318" y="681"/>
      <point x="274" y="713"/>
      <point x="209" y="713" type="curve" smooth="yes"/>
      <point x="152" y="713"/>
      <point x="95" y="682"/>
      <point x="67" y="628" type="curve"/>
      <point x="66" y="616"/>
      <point x="80" y="606"/>
      <point x="92" y="611" type="curve"/>
      <point x="116" y="647"/>
      <point x="144" y="661"/>
      <point x="166" y="661" type="curve" smooth="yes"/>
      <point x="195" y="661"/>
      <point x="211" y="644"/>
      <point x="211" y="621" type="curve" smooth="yes"/>
      <point x="211" y="566"/>
      <point x="126" y="536"/>
      <point x="86" y="521" type="curve"/>
      <point x="78" y="510"/>
      <point x="83" y="489"/>
      <point x="102" y="485" type="curve"/>
      <point x="120" y="501"/>
      <point x="142" y="510"/>
      <point x="169" y="510" type="curve" smooth="yes" name="hr03"/>
      <point x="207" y="510"/>
      <point x="234" y="478"/>
      <point x="234" y="426" type="curve" smooth="yes"/>
      <point x="234" y="351"/>
      <point x="187" y="320"/>
      <point x="159" y="321" type="curve" smooth="yes"/>
      <point x="146" y="321"/>
      <point x="138" y="326"/>
      <point x="130" y="338" type="curve" smooth="yes"/>
      <point x="122" y="349"/>
      <point x="108" y="375"/>
      <point x="83" y="375" type="curve" smooth="yes"/>
      <point x="51" y="375"/>
      <point x="40" y="351"/>
      <point x="40" y="334" type="curve" smooth="yes"/>
      <point x="40" y="296"/>
      <point x="82" y="281"/>
    </contour>
  </outline>
</glyph>
<glyph name="paragraph" format="1">
  <advance width="490"/>
  <unicode hex="00B6"/>
  <outline>
    <contour>
      <point x="372" y="448" type="line" smooth="yes" name="hr00"/>
      <point x="372" y="502"/>
      <point x="374" y="503"/>
      <point x="425" y="512" type="curve" smooth="yes"/>
      <point x="459" y="518" type="line"/>
      <point x="467" y="525"/>
      <point x="467" y="544"/>
      <point x="458" y="549" type="curve"/>
      <point x="442" y="552"/>
      <point x="405" y="555"/>
      <point x="339" y="555" type="curve" smooth="yes"/>
      <point x="265" y="555"/>
      <point x="194" y="544"/>
      <point x="136" y="511" type="curve" smooth="yes"/>
      <point x="80" y="479"/>
      <point x="40" y="420"/>
      <point x="40" y="339" type="curve" smooth="yes"/>
      <point x="40" y="218"/>
      <point x="148" y="136"/>
      <point x="293" y="136" type="curve" smooth="yes"/>
      <point x="312" y="136"/>
      <point x="319" y="128"/>
      <point x="319" y="100" type="curve" smooth="yes"/>
      <point x="319" y="-17" type="line" smooth="yes"/>
      <point x="319" y="-137"/>
      <point x="280" y="-161"/>
      <point x="251" y="-161" type="curve" smooth="yes"/>
      <point x="228" y="-161"/>
      <point x="210" y="-147"/>
      <point x="210" y="-122" type="curve" smooth="yes"/>
      <point x="210" y="-106"/>
      <point x="221" y="-92"/>
      <point x="224" y="-85" type="curve"/>
      <point x="220" y="-68"/>
      <point x="193" y="-50"/>
      <point x="154" y="-51" type="curve"/>
      <point x="139" y="-56"/>
      <point x="121" y="-79"/>
      <point x="121" y="-112" type="curve" smooth="yes"/>
      <point x="121" y="-175"/>
      <point x="178" y="-200"/>
      <point x="228" y="-200" type="curve" smooth="yes"/>
      <point x="257" y="-200"/>
      <point x="289" y="-195"/>
      <point x="310" y="-179" type="curve" smooth="yes"/>
      <point x="359" y="-142"/>
      <point x="372" y="-73"/>
      <point x="372" y="22" type="curve" smooth="yes"/>
    </contour>
  </outline>
</glyph>
<glyph name="Ccedilla" format="1">
  <advance width="689"/>
  <unicode hex="00C7"/>
  <outline>
    <contour>
      <point x="345" y="-106" type="line" name="hr00"/>
      <point x="348" y="-114" type="line"/>
      <point x="384" y="-129"/>
      <point x="424" y="-154"/>
      <point x="424" y="-186" type="curve" smooth="yes"/>
      <point x="424" y="-202"/>
      <point x="409" y="-211"/>
      <point x="398" y="-211" type="curve" smooth="yes"/>
      <point x="376" y="-211"/>
      <point x="358" y="-174"/>
      <point x="330" y="-174" type="curve" smooth="yes"/>
      <point x="311" y="-174"/>
      <point x="298" y="-189"/>
      <point x="298" y="-207" type="curve" smooth="yes"/>
      <point x="298" y="-235"/>
      <point x="327" y="-251"/>
      <point x="375" y="-251" type="curve" smooth="yes"/>
      <point x="440" y="-251"/>
      <point x="502" y="-213"/>
      <point x="502" y="-158" type="curve" smooth="yes"/>
      <point x="502" y="-119"/>
      <point x="478" y="-93"/>
      <point x="441" y="-73" type="curve" smooth="yes"/>
      <point x="426" y="-65"/>
      <point x="425" y="-62"/>
      <point x="432" y="-52" type="curve" smooth="yes"/>
      <point x="458" y="-15" type="line"/>
      <point x="528" y="-12"/>
      <point x="590" y="7"/>
      <point x="639" y="21" type="curve"/>
      <point x="653" y="44"/>
      <point x="670" y="104"/>
      <point x="677" y="178" type="curve"/>
      <point x="671" y="190"/>
      <point x="647" y="193"/>
      <point x="639" y="185" type="curve"/>
      <point x="612" y="117"/>
      <point x="556" y="30"/>
      <point x="435" y="30" type="curve" smooth="yes"/>
      <point x="315" y="30"/>
      <point x="200" y="137"/>
      <point x="200" y="336" type="curve" smooth="yes"/>
      <point x="200" y="535"/>
      <point x="319" y="630"/>
      <point x="430" y="630" type="curve" smooth="yes"/>
      <point x="527" y="630"/>
      <point x="591" y="580"/>
      <point x="618" y="487" type="curve"/>
      <point x="625" y="478"/>
      <point x="652" y="482"/>
      <point x="656" y="494" type="curve"/>
      <point x="647" y="552"/>
      <point x="644" y="632"/>
      <point x="644" y="650" type="curve"/>
      <point x="614" y="652"/>
      <point x="540" y="676"/>
      <point x="438" y="676" type="curve" smooth="yes"/>
      <point x="334" y="676"/>
      <point x="232" y="646"/>
      <point x="161" y="587" type="curve" smooth="yes"/>
      <point x="92" y="530"/>
      <point x="40" y="444"/>
      <point x="40" y="322" type="curve" smooth="yes"/>
      <point x="40" y="198"/>
      <point x="95" y="115"/>
      <point x="167" y="60" type="curve" smooth="yes"/>
      <point x="231" y="12"/>
      <point x="318" y="-11"/>
      <point x="406" y="-15" type="curve"/>
    </contour>
  </outline>
</glyph>
<glyph name="Oacute" format="1">
  <advance width="788"/>
  <unicode hex="00D3"/>
  <outline>
    <contour>
      <point x="397" y="676" type="curve" smooth="yes" name="hr00"/>
      <point x="188" y="676"/>
      <point x="40" y="523"/>
      <point x="40" y="325" type="curve" smooth="yes"/>
      <point x="40" y="116"/>
      <point x="186" y="-16"/>
      <point x="387" y="-16" type="curve" smooth="yes"/>
      <point x="602" y="-16"/>
      <point x="748" y="115"/>
      <point x="748" y="333" type="curve" smooth="yes"/>
      <point x="748" y="536"/>
      <point x="605" y="676"/>
    </contour>
    <contour>
      <point x="588" y="320" type="curve" smooth="yes"/>
      <point x="588" y="158"/>
      <point x="537" y="30"/>
      <point x="406" y="30" type="curve" smooth="yes"/>
      <point x="243" y="30"/>
      <point x="200" y="226"/>
      <point x="200" y="348" type="curve" smooth="yes"/>
      <point x="200" y="515"/>
      <point x="266" y="630"/>
      <point x="389" y="630" type="curve" smooth="yes"/>
      <point x="513" y="630"/>
      <point x="588" y="491"/>
    </contour>
    <contour>
      <point x="321" y="731" type="line"/>
      <point x="318" y="720"/>
      <point x="324" y="709"/>
      <point x="332" y="706" type="curve"/>
      <point x="528" y="770" type="line" smooth="yes"/>
      <point x="548" y="776"/>
      <point x="558" y="787"/>
      <point x="560" y="795" type="curve" smooth="yes"/>
      <point x="562" y="802"/>
      <point x="562" y="817"/>
      <point x="550" y="838" type="curve" smooth="yes"/>
      <point x="538" y="861"/>
      <point x="526" y="869"/>
      <point x="516" y="869" type="curve" smooth="yes"/>
      <point x="509" y="869"/>
      <point x="499" y="864"/>
      <point x="483" y="852" type="curve" smooth="yes"/>
    </contour>
  </outline>
</glyph>
<glyph name="Uacute" format="1">
  <advance width="740"/>
  <unicode hex="00DA"/>
  <outline>
    <contour>
      <point x="109" y="266" type="line" smooth="yes" name="hr00"/>
      <point x="109" y="157"/>
      <point x="131" y="83"/>
      <point x="183" y="40" type="curve" smooth="yes"/>
      <point x="237" y="-4"/>
      <point x="305" y="-16"/>
      <point x="381" y="-16" type="curve" smooth="yes"/>
      <point x="462" y="-16"/>
      <point x="535" y="9"/>
      <point x="579" y="56" type="curve" smooth="yes"/>
      <point x="634" y="117"/>
      <point x="643" y="203"/>
      <point x="643" y="297" type="curve" smooth="yes"/>
      <point x="643" y="409" type="line" smooth="yes"/>
      <point x="643" y="490"/>
      <point x="647" y="566"/>
      <point x="658" y="592" type="curve" smooth="yes"/>
      <point x="667" y="613"/>
      <point x="686" y="619"/>
      <point x="712" y="625" type="curve" smooth="yes"/>
      <point x="730" y="629" type="line"/>
      <point x="738" y="637"/>
      <point x="736" y="657"/>
      <point x="730" y="663" type="curve"/>
      <point x="692" y="661"/>
      <point x="655" y="660"/>
      <point x="618" y="660" type="curve" smooth="yes"/>
      <point x="577" y="660"/>
      <point x="538" y="661"/>
      <point x="484" y="663" type="curve"/>
      <point x="478" y="657"/>
      <point x="476" y="637"/>
      <point x="484" y="629" type="curve"/>
      <point x="511" y="624" type="line" smooth="yes"/>
      <point x="538" y="619"/>
      <point x="560" y="613"/>
      <point x="569" y="592" type="curve" smooth="yes"/>
      <point x="580" y="566"/>
      <point x="584" y="490"/>
      <point x="584" y="409" type="curve" smooth="yes"/>
      <point x="584" y="288" type="line" smooth="yes"/>
      <point x="584" y="151"/>
      <point x="545" y="39"/>
      <point x="417" y="39" type="curve" smooth="yes"/>
      <point x="265" y="39"/>
      <point x="252" y="168"/>
      <point x="252" y="285" type="curve" smooth="yes"/>
      <point x="252" y="516" type="line" smooth="yes"/>
      <point x="252" y="609"/>
      <point x="258" y="617"/>
      <point x="303" y="625" type="curve" smooth="yes"/>
      <point x="327" y="629" type="line"/>
      <point x="335" y="635"/>
      <point x="335" y="657"/>
      <point x="327" y="663" type="curve"/>
      <point x="279" y="661"/>
      <point x="230" y="660"/>
      <point x="181" y="660" type="curve" smooth="yes"/>
      <point x="133" y="660"/>
      <point x="83" y="661"/>
      <point x="35" y="663" type="curve"/>
      <point x="24" y="657"/>
      <point x="25" y="635"/>
      <point x="33" y="629" type="curve"/>
      <point x="58" y="624" type="line" smooth="yes"/>
      <point x="103" y="615"/>
      <point x="109" y="609"/>
      <point x="109" y="516" type="curve" smooth="yes"/>
    </contour>
    <contour>
      <point x="337" y="731" type="line"/>
      <point x="334" y="720"/>
      <point x="340" y="709"/>
      <point x="348" y="706" type="curve"/>
      <point x="544" y="770" type="line" smooth="yes"/>
      <point x="564" y="776"/>
      <point x="574" y="787"/>
      <point x="576" y="795" type="curve" smooth="yes"/>
      <point x="578" y="802"/>
      <point x="578" y="817"/>
      <point x="566" y="838" type="curve" smooth="yes"/>
      <point x="554" y="861"/>
      <point x="542" y="869"/>
      <point x="532" y="869" type="curve" smooth="yes"/>
      <point x="525" y="869"/>
      <point x="515" y="864"/>
      <point x="499" y="852" type="curve" smooth="yes"/>
    </contour>
  </outline>
</glyph>
<glyph name="adieresis" format="1">
  <advance width="443"/>
  <unicode hex="00E4"/>
  <outline>
    <contour>
      <point x="378" y="269" type="line" smooth="yes" name="hr01"/>
      <point x="383" y="372"/>
      <point x="334" y="414"/>
      <point x="250" y="414" type="curve" smooth="yes"/>
      <point x="179" y="414"/>
      <point x="116" y="380"/>
      <point x="82" y="353" type="curve" smooth="yes"/>
      <point x="58" y="334"/>
      <point x="34" y="302"/>
      <point x="34" y="276" type="curve" smooth="yes"/>
      <point x="34" y="262"/>
      <point x="40" y="251"/>
      <point x="57" y="251" type="curve" smooth="yes"/>
      <point x="75" y="251"/>
      <point x="114" y="263"/>
      <point x="129" y="274" type="curve" smooth="yes"/>
      <point x="138" y="281"/>
      <point x="144" y="290"/>
      <point x="146" y="306" type="curve" smooth="yes"/>
      <point x="153" y="349"/>
      <point x="174" y="363"/>
      <point x="198" y="363" type="curve" smooth="yes"/>
      <point x="241" y="363"/>
      <point x="256" y="315"/>
      <point x="256" y="277" type="curve" smooth="yes"/>
      <point x="256" y="265"/>
      <point x="255" y="254"/>
      <point x="254" y="243" type="curve" smooth="yes"/>
      <point x="253" y="235"/>
      <point x="248" y="228"/>
      <point x="230" y="223" type="curve" smooth="yes"/>
      <point x="202" y="215"/>
      <point x="174" y="207"/>
      <point x="136" y="195" type="curve" smooth="yes"/>
      <point x="63" y="173"/>
      <point x="32" y="142"/>
      <point x="32" y="91" type="curve" smooth="yes"/>
      <point x="32" y="21"/>
      <point x="86" y="-14"/>
      <point x="144" y="-14" type="curve" smooth="yes"/>
      <point x="181" y="-14"/>
      <point x="211" y="5"/>
      <point x="229" y="18" type="curve" smooth="yes"/>
      <point x="239" y="25"/>
      <point x="245" y="29"/>
      <point x="250" y="29" type="curve" smooth="yes" name="hr02"/>
      <point x="255" y="29"/>
      <point x="259" y="27"/>
      <point x="266" y="21" type="curve" smooth="yes"/>
      <point x="293" y="-2"/>
      <point x="315" y="-14"/>
      <point x="350" y="-14" type="curve" smooth="yes" name="hr03"/>
      <point x="407" y="-14"/>
      <point x="454" y="24"/>
      <point x="466" y="40" type="curve"/>
      <point x="469" y="49"/>
      <point x="463" y="61"/>
      <point x="454" y="63" type="curve"/>
      <point x="438" y="54"/>
      <point x="428" y="51"/>
      <point x="416" y="51" type="curve" smooth="yes"/>
      <point x="396" y="51"/>
      <point x="367" y="69"/>
      <point x="371" y="137" type="curve" smooth="yes"/>
    </contour>
    <contour>
      <point x="249" y="100" type="line" smooth="yes" name="hr04"/>
      <point x="248" y="69"/>
      <point x="242" y="51"/>
      <point x="211" y="51" type="curve" smooth="yes"/>
      <point x="183" y="51"/>
      <point x="160" y="79"/>
      <point x="160" y="111" type="curve" smooth="yes"/>
      <point x="160" y="158"/>
      <point x="199" y="175"/>
      <point x="244" y="181" type="curve" smooth="yes"/>
      <point x="251" y="182"/>
      <point x="252" y="179"/>
      <point x="251" y="163" type="curve" smooth="yes"/>
    </contour>
    <contour>
      <point x="133" y="482" type="curve" smooth="yes" name="hr05"/>
      <point x="168" y="482"/>
      <point x="194" y="507"/>
      <point x="194" y="546" type="curve" smooth="yes"/>
      <point x="194" y="577"/>
      <point x="168" y="605"/>
      <point x="133" y="605" type="curve" smooth="yes"/>
      <point x="97" y="605"/>
      <point x="70" y="578"/>
      <point x="70" y="541" type="curve" smooth="yes"/>
      <point x="71" y="502"/>
      <point x="98" y="482"/>
    </contour>
    <contour>
      <point x="313" y="482" type="curve" smooth="yes"/>
      <point x="348" y="482"/>
      <point x="374" y="507"/>
      <point x="374" y="546" type="curve" smooth="yes"/>
      <point x="374" y="577"/>
      <point x="348" y="605"/>
      <point x="313" y="605" type="curve" smooth="yes"/>
      <point x="277" y="605"/>
      <point x="250" y="578"/>
      <point x="250" y="541" type="curve" smooth="yes"/>
      <point x="251" y="502"/>
      <point x="278" y="482"/>
    </contour>
  </outline>
</glyph>
<glyph name="ocircumflex" format="1">
  <advance width="516"/>
  <unicode hex="00F4"/>
  <outline>
    <contour>
      <point x="255" y="-14" type="curve" smooth="yes" name="hr00"/>
      <point x="378" y="-14"/>
      <point x="485" y="55"/>
      <point x="485" y="201" type="curve" smooth="yes"/>
      <point x="485" y="342"/>
      <point x="379" y="414"/>
      <point x="261" y="414" type="curve" smooth="yes"/>
      <point x="143" y="414"/>
      <point x="30" y="335"/>
      <point x="31" y="192" type="curve" smooth="yes"/>
      <point x="32" y="54"/>
      <point x="136" y="-14"/>
    </contour>
    <contour>
      <point x="255" y="368" type="curve" smooth="yes"/>
      <point x="312" y="368"/>
      <point x="340" y="284"/>
      <point x="341" y="187" type="curve" smooth="yes"/>
      <point x="342" y="97"/>
      <point x="323" y="32"/>
      <point x="266" y="32" type="curve" smooth="yes"/>
      <point x="208" y="32"/>
      <point x="175" y="109"/>
      <point x="175" y="214" type="curve" smooth="yes"/>
      <point x="175" y="323"/>
      <point x="211" y="368"/>
    </contour>
    <contour>
      <point x="129" y="463" type="line"/>
      <point x="134" y="451"/>
      <point x="147" y="446"/>
      <point x="157" y="445" type="curve"/>
      <point x="237" y="538" type="line" smooth="yes"/>
      <point x="248" y="550"/>
      <point x="255" y="556"/>
      <point x="258" y="556" type="curve" smooth="yes"/>
      <point x="261" y="556"/>
      <point x="267" y="550"/>
      <point x="278" y="537" type="curve" smooth="yes"/>
      <point x="358" y="445" type="line"/>
      <point x="369" y="446"/>
      <point x="382" y="451"/>
      <point x="387" y="463" type="curve"/>
      <point x="281" y="654" type="line" smooth="yes"/>
      <point x="275" y="665"/>
      <point x="270" y="667"/>
      <point x="258" y="667" type="curve" smooth="yes"/>
      <point x="246" y="667"/>
      <point x="241" y="665"/>
      <point x="235" y="654" type="curve" smooth="yes"/>
    </contour>
  </outline>
</glyph>
<glyph name="divide" format="1">
  <advance width="520"/>
  <unicode hex="00F7"/>
  <outline>
    <contour>
      <point x="261" y="10" type="curve" smooth="yes" name="hr00"/>
      <point x="292" y="10"/>
      <point x="320" y="37"/>
      <point x="320" y="71" type="curve" smooth="yes"/>
      <point x="320" y="104"/>
      <point x="292" y="131"/>
      <point x="261" y="131" type="curve" smooth="yes"/>
      <point x="227" y="131"/>
      <point x="200" y="104"/>
      <point x="200" y="71" type="curve" smooth="yes"/>
      <point x="200" y="37"/>
      <point x="227" y="10"/>
    </contour>
    <contour>
      <point x="261" y="295" type="curve" smooth="yes"/>
      <point x="292" y="295"/>
      <point x="320" y="322"/>
      <point x="320" y="356" type="curve" smooth="yes"/>
      <point x="320" y="389"/>
      <point x="292" y="416"/>
      <point x="261" y="416" type="curve" smooth="yes"/>
      <point x="227" y="416"/>
      <point x="200" y="389"/>
      <point x="200" y="356" type="curve" smooth="yes"/>
      <point x="200" y="322"/>
      <point x="227" y="295"/>
    </contour>
    <contour>
      <point x="461" y="177" type="line"/>
      <point x="461" y="249" type="line"/>
      <point x="60" y="249" type="line"/>
      <point x="60" y="177" type="line"/>
    </contour>
  </outline>
</glyph>
<glyph name="Amacron" format="1">
  <advance width="624"/>
  <unicode hex="0100"/>
  <outline>
    <contour>
      <point x="324" y="226" type="line" smooth="yes" name="hr01"/>
      <point x="359" y="226"/>
      <point x="367" y="224"/>
      <point x="372" y="208" type="curve" smooth="yes"/>
      <point x="399" y="122" type="line" smooth="yes"/>
      <point x="411" y="85"/>
      <point x="418" y="61"/>
      <point x="418" y="54" type="curve" smooth="yes"/>
      <point x="418" y="48"/>
      <point x="414" y="41"/>
      <point x="391" y="37" type="curve" smooth="yes"/>
      <point x="359" y="32" type="line"/>
      <point x="348" y="24"/>
      <point x="350" y="3"/>
      <point x="361" y="-3" type="curve"/>
      <point x="407" y="-1"/>
      <point x="446" y="0"/>
      <point x="496" y="0" type="curve" smooth="yes"/>
      <point x="548" y="0"/>
      <point x="602" y="-1"/>
      <point x="650" y="-3" type="curve"/>
      <point x="659" y="3"/>
      <point x="657" y="27"/>
      <point x="651" y="32" type="curve"/>
      <point x="613" y="38" type="line" smooth="yes"/>
      <point x="576" y="44"/>
      <point x="567" y="67"/>
      <point x="546" y="127" type="curve" smooth="yes"/>
      <point x="410" y="519" type="line" smooth="yes"/>
      <point x="385" y="590"/>
      <point x="373" y="627"/>
      <point x="365" y="656" type="curve" smooth="yes"/>
      <point x="361" y="671"/>
      <point x="355" y="676"/>
      <point x="342" y="676" type="curve" smooth="yes"/>
      <point x="340" y="676"/>
      <point x="303" y="627"/>
      <point x="255" y="616" type="curve"/>
      <point x="258" y="587"/>
      <point x="241" y="552"/>
      <point x="218" y="489" type="curve" smooth="yes"/>
      <point x="127" y="245" type="line" smooth="yes"/>
      <point x="100" y="173"/>
      <point x="81" y="125"/>
      <point x="64" y="85" type="curve" smooth="yes" name="hr02"/>
      <point x="47" y="46"/>
      <point x="27" y="38"/>
      <point x="3" y="35" type="curve" smooth="yes"/>
      <point x="-24" y="32" type="line"/>
      <point x="-31" y="24"/>
      <point x="-32" y="3"/>
      <point x="-21" y="-3" type="curve"/>
      <point x="25" y="-3"/>
      <point x="48" y="0"/>
      <point x="82" y="0" type="curve" smooth="yes"/>
      <point x="124" y="-1"/>
      <point x="160" y="-1"/>
      <point x="195" y="-3" type="curve"/>
      <point x="205" y="2"/>
      <point x="203" y="25"/>
      <point x="197" y="32" type="curve"/>
      <point x="167" y="37" type="line" smooth="yes"/>
      <point x="139" y="42"/>
      <point x="126" y="48"/>
      <point x="126" y="54" type="curve" smooth="yes"/>
      <point x="126" y="62"/>
      <point x="127" y="70"/>
      <point x="133" y="90" type="curve" smooth="yes"/>
      <point x="172" y="206" type="line" smooth="yes"/>
      <point x="178" y="225"/>
      <point x="181" y="226"/>
      <point x="205" y="226" type="curve" smooth="yes"/>
    </contour>
    <contour>
      <point x="225" y="279" type="line" smooth="yes"/>
      <point x="200" y="279"/>
      <point x="195" y="282"/>
      <point x="204" y="309" type="curve" smooth="yes"/>
      <point x="229" y="384" type="line" smooth="yes"/>
      <point x="244" y="430"/>
      <point x="264" y="484"/>
      <point x="272" y="507" type="curve"/>
      <point x="281" y="486"/>
      <point x="299" y="432"/>
      <point x="313" y="389" type="curve" smooth="yes"/>
      <point x="339" y="308" type="line" smooth="yes"/>
      <point x="347" y="282"/>
      <point x="342" y="279"/>
      <point x="319" y="279" type="curve" smooth="yes"/>
    </contour>
    <contour>
      <point x="438" y="725" type="line"/>
      <point x="451" y="741"/>
      <point x="451" y="784"/>
      <point x="438" y="800" type="curve"/>
      <point x="185" y="800" type="line"/>
      <point x="173" y="784"/>
      <point x="173" y="741"/>
      <point x="185" y="725" type="curve"/>
    </contour>
  </outline>
</glyph>
<glyph name="abreve" format="1">
  <advance width="443"/>
  <unicode hex="0103"/>
  <outline>
    <contour>
      <point x="378" y="269" type="line" smooth="yes" name="hr01"/>
      <point x="383" y="372"/>
      <point x="334" y="414"/>
      <point x="250" y="414" type="curve" smooth="yes"/>
      <point x="179" y="414"/>
      <point x="116" y="380"/>
      <point x="82" y="353" type="curve" smooth="yes"/>
      <point x="58" y="334"/>
      <point x="34" y="302"/>
      <point x="34" y="276" type="curve" smooth="yes"/>
      <point x="34" y="262"/>
      <point x="40" y="251"/>
      <point x="57" y="251" type="curve" smooth="yes"/>
      <point x="75" y="251"/>
      <point x="114" y="263"/>
      <point x="129" y="274" type="curve" smooth="yes"/>
      <point x="138" y="281"/>
      <point x="144" y="290"/>
      <point x="146" y="306" type="curve" smooth="yes"/>
      <point x="153" y="349"/>
      <point x="174" y="363"/>
      <point x="198" y="363" type="curve" smooth="yes"/>
      <point x="241" y="363"/>
      <point x="256" y="315"/>
      <point x="256" y="277" type="curve" smooth="yes"/>
      <point x="256" y="265"/>
      <point x="255" y="254"/>
      <point x="254" y="243" type="curve" smooth="yes"/>
      <point x="253" y="235"/>
      <point x="248" y="228"/>
      <point x="230" y="223" type="curve" smooth="yes"/>
      <point x="202" y="215"/>
      <point x="174" y="207"/>
      <point x="136" y="195" type="curve" smooth="yes"/>
      <point x="63" y="173"/>
      <point x="32" y="142"/>
      <point x="32" y="91" type="curve" smooth="yes"/>
      <point x="32" y="21"/>
      <point x="86" y="-14"/>
      <point x="144" y="-14" type="curve" smooth="yes"/>
      <point x="181" y="-14"/>
      <point x="211" y="5"/>
      <point x="229" y="18" type="curve" smooth="yes"/>
      <point x="239" y="25"/>
      <point x="245" y="29"/>
      <point x="250" y="29" type="curve" smooth="yes" name="hr02"/>
      <point x="255" y="29"/>
      <point x="259" y="27"/>
      <point x="266" y="21" type="curve" smooth="yes"/>
      <point x="293" y="-2"/>
      <point x="315" y="-14"/>
      <point x="350" y="-14" type="curve" smooth="yes" name="hr03"/>
      <point x="407" y="-14"/>
      <point x="454" y="24"/>
      <point x="466" y="40" type="curve"/>
      <point x="469" y="49"/>
      <point x="463" y="61"/>
      <point x="454" y="63" type="curve"/>
      <point x="438" y="54"/>
      <point x="428" y="51"/>
      <point x="416" y="51" type="curve" smooth="yes"/>
      <point x="396" y="51"/>
      <point x="367" y="69"/>
      <point x="371" y="137" type="curve" smooth="yes"/>
    </contour>
    <contour>
      <point x="249" y="100" type="line" smooth="yes" name="hr04"/>
      <point x="248" y="69"/>
      <point x="242" y="51"/>
      <point x="211" y="51" type="curve" smooth="yes"/>
      <point x="183" y="51"/>
      <point x="160" y="79"/>
      <point x="160" y="111" type="curve" smooth="yes"/>
      <point x="160" y="158"/>
      <point x="199" y="175"/>
      <point x="244" y="181" type="curve" smooth="yes"/>
      <point x="251" y="182"/>
      <point x="252" y="179"/>
      <point x="251" y="163" type="curve" smooth="yes"/>
    </contour>
    <contour>
      <point x="222" y="478" type="curve" smooth="yes"/>
      <point x="308" y="478"/>
      <point x="353" y="537"/>
      <point x="349" y="640" type="curve"/>
      <point x="342" y="645"/>
      <point x="324" y="645"/>
      <point x="318" y="640" type="curve"/>
      <point x="307" y="588"/>
      <point x="268" y="557"/>
      <point x="222" y="557" type="curve" smooth="yes"/>
      <point x="176" y="557"/>
      <point x="137" y="588"/>
      <point x="126" y="640" type="curve"/>
      <point x="120" y="645"/>
      <point x="102" y="645"/>
      <point x="95" y="640" type="curve"/>
      <point x="91" y="537"/>
      <point x="136" y="478"/>
    </contour>
  </outline>
</glyph>
<glyph name="Dcaron" format="1">
  <advance width="793"/>
  <unicode hex="010E"/>
  <outline>
    <contour>
      <point x="114" y="144" type="line" smooth="yes" name="hr01"/>
      <point x="114" y="52"/>
      <point x="108" y="44"/>
      <point x="63" y="37" type="curve" smooth="yes" name="hr02"/>
      <point x="32" y="32" type="line"/>
      <point x="24" y="27"/>
      <point x="24" y="3"/>
      <point x="32" y="-3" type="curve" name="hr03"/>
      <point x="89" y="-1"/>
      <point x="140" y="0"/>
      <point x="188" y="0" type="curve" smooth="yes" name="hr04"/>
      <point x="224" y="0"/>
      <point x="274" y="-6"/>
      <point x="321" y="-6" type="curve" smooth="yes" name="hr05"/>
      <point x="424" y="-6"/>
      <point x="506" y="7"/>
      <point x="574" y="41" type="curve" smooth="yes"/>
      <point x="689" y="98"/>
      <point x="753" y="206"/>
      <point x="753" y="340" type="curve" smooth="yes"/>
      <point x="753" y="465"/>
      <point x="681" y="583"/>
      <point x="550" y="630" type="curve" smooth="yes"/>
      <point x="481" y="655"/>
      <point x="399" y="663"/>
      <point x="317" y="663" type="curve" smooth="yes"/>
      <point x="211" y="663"/>
      <point x="133" y="659"/>
      <point x="49" y="654" type="curve" smooth="yes"/>
      <point x="37" y="653"/>
      <point x="37" y="624"/>
      <point x="47" y="619" type="curve"/>
      <point x="66" y="617" type="line" smooth="yes"/>
      <point x="112" y="612"/>
      <point x="114" y="593"/>
      <point x="114" y="498" type="curve" smooth="yes"/>
    </contour>
    <contour>
      <point x="257" y="546" type="line" smooth="yes"/>
      <point x="257" y="577"/>
      <point x="258" y="596"/>
      <point x="264" y="604" type="curve" smooth="yes"/>
      <point x="270" y="612"/>
      <point x="289" y="617"/>
      <point x="316" y="617" type="curve" smooth="yes"/>
      <point x="497" y="617"/>
      <point x="592" y="510"/>
      <point x="592" y="330" type="curve" smooth="yes"/>
      <point x="592" y="194"/>
      <point x="533" y="40"/>
      <point x="360" y="40" type="curve" smooth="yes"/>
      <point x="324" y="40"/>
      <point x="295" y="49"/>
      <point x="277" y="69" type="curve" smooth="yes"/>
      <point x="259" y="90"/>
      <point x="257" y="126"/>
      <point x="257" y="181" type="curve" smooth="yes"/>
    </contour>
    <contour>
      <point x="236" y="861" type="line"/>
      <point x="229" y="860"/>
      <point x="222" y="847"/>
      <point x="224" y="835" type="curve"/>
      <point x="352" y="718" type="line" smooth="yes"/>
      <point x="366" y="705"/>
      <point x="381" y="705"/>
      <point x="396" y="718" type="curve" smooth="yes"/>
      <point x="525" y="835" type="line"/>
      <point x="527" y="847"/>
      <point x="521" y="861"/>
      <point x="512" y="861" type="curve"/>
      <point x="392" y="803" type="line" smooth="yes"/>
      <point x="378" y="796"/>
      <point x="370" y="797"/>
      <point x="357" y="803" type="curve" smooth="yes"/>
    </contour>
  </outline>
</glyph>
<glyph name="Dcroat" format="1">
  <advance width="803"/>
  <unicode hex="0110"/>
  <outline>
    <contour>
      <point x="120" y="144" type="line" smooth="yes" name="hr01"/>
      <point x="120" y="52"/>
      <point x="114" y="44"/>
      <point x="69" y="37" type="curve" smooth="yes" name="hr02"/>
      <point x="38" y="32" type="line"/>
      <point x="30" y="27"/>
      <point x="30" y="3"/>
      <point x="38" y="-3" type="curve" name="hr03"/>
      <point x="95" y="-1"/>
      <point x="146" y="0"/>
      <point x="194" y="0" type="curve" smooth="yes" name="hr04"/>
      <point x="230" y="0"/>
      <point x="280" y="-6"/>
      <point x="327" y="-6" type="curve" smooth="yes" name="hr05"/>
      <point x="430" y="-6"/>
      <point x="512" y="7"/>
      <point x="580" y="41" type="curve" smooth="yes"/>
      <point x="695" y="98"/>
      <point x="759" y="206"/>
      <point x="759" y="340" type="curve" smooth="yes"/>
      <point x="759" y="465"/>
      <point x="687" y="583"/>
      <point x="556" y="630" type="curve" smooth="yes"/>
      <point x="487" y="655"/>
      <point x="405" y="663"/>
      <point x="323" y="663" type="curve" smooth="yes"/>
      <point x="217" y="663"/>
      <point x="139" y="659"/>
      <point x="55" y="654" type="curve" smooth="yes"/>
      <point x="43" y="653"/>
      <point x="43" y="624"/>
      <point x="53" y="619" type="curve"/>
      <point x="72" y="617" type="line" smooth="yes"/>
      <point x="118" y="612"/>
      <point x="120" y="593"/>
      <point x="120" y="498" type="curve" smooth="yes"/>
      <point x="120" y="370" type="line"/>
      <point x="36" y="370" type="line"/>
      <point x="26" y="355"/>
      <point x="26" y="329"/>
      <point x="36" y="317" type="curve"/>
      <point x="120" y="317" type="line"/>
    </contour>
    <contour>
      <point x="263" y="546" type="line" smooth="yes"/>
      <point x="263" y="577"/>
      <point x="264" y="596"/>
      <point x="270" y="604" type="curve" smooth="yes"/>
      <point x="276" y="612"/>
      <point x="295" y="617"/>
      <point x="322" y="617" type="curve" smooth="yes"/>
      <point x="503" y="617"/>
      <point x="598" y="510"/>
      <point x="598" y="330" type="curve" smooth="yes"/>
      <point x="598" y="194"/>
      <point x="539" y="40"/>
      <point x="366" y="40" type="curve" smooth="yes"/>
      <point x="330" y="40"/>
      <point x="301" y="49"/>
      <point x="283" y="69" type="curve" smooth="yes"/>
      <point x="265" y="90"/>
      <point x="263" y="126"/>
      <point x="263" y="181" type="curve" smooth="yes"/>
      <point x="263" y="317" type="line"/>
      <point x="397" y="317" type="line"/>
      <point x="407" y="329"/>
      <point x="408" y="359"/>
      <point x="397" y="370" type="curve"/>
      <point x="263" y="370" type="line"/>
    </contour>
  </outline>
</glyph>
<glyph name="ecaron" format="1">
  <advance width="420"/>
  <unicode hex="011B"/>
  <outline>
    <contour>
      <point x="372" y="237" type="line" smooth="yes" name="hr00"/>
      <point x="403" y="237"/>
      <point x="408" y="251"/>
      <point x="408" y="270" type="curve" smooth="yes"/>
      <point x="408" y="347"/>
      <point x="352" y="414"/>
      <point x="248" y="414" type="curve" smooth="yes"/>
      <point x="123" y="414"/>
      <point x="32" y="316"/>
      <point x="32" y="190" type="curve" smooth="yes"/>
      <point x="32" y="81"/>
      <point x="105" y="-14"/>
      <point x="240" y="-14" type="curve" smooth="yes"/>
      <point x="300" y="-14"/>
      <point x="374" y="15"/>
      <point x="415" y="100" type="curve"/>
      <point x="415" y="117"/>
      <point x="400" y="125"/>
      <point x="389" y="123" type="curve"/>
      <point x="362" y="77"/>
      <point x="324" y="71"/>
      <point x="296" y="71" type="curve" smooth="yes"/>
      <point x="203" y="71"/>
      <point x="155" y="144"/>
      <point x="155" y="219" type="curve" smooth="yes"/>
      <point x="155" y="235"/>
      <point x="157" y="237"/>
      <point x="180" y="237" type="curve" smooth="yes"/>
    </contour>
    <contour>
      <point x="209" y="281" type="line" smooth="yes"/>
      <point x="177" y="281"/>
      <point x="163" y="282"/>
      <point x="163" y="296" type="curve" smooth="yes"/>
      <point x="163" y="328"/>
      <point x="199" y="368"/>
      <point x="241" y="368" type="curve" smooth="yes"/>
      <point x="275" y="368"/>
      <point x="294" y="346"/>
      <point x="294" y="313" type="curve" smooth="yes"/>
      <point x="294" y="303"/>
      <point x="292" y="293"/>
      <point x="287" y="290" type="curve" smooth="yes"/>
      <point x="276" y="283"/>
      <point x="260" y="281"/>
      <point x="246" y="281" type="curve" smooth="yes"/>
    </contour>
    <contour>
      <point x="369" y="660" type="line"/>
      <point x="364" y="672"/>
      <point x="351" y="677"/>
      <point x="341" y="678" type="curve"/>
      <point x="261" y="585" type="line" smooth="yes"/>
      <point x="250" y="573"/>
      <point x="243" y="567"/>
      <point x="240" y="567" type="curve" smooth="yes"/>
      <point x="237" y="567"/>
      <point x="231" y="573"/>
      <point x="220" y="586" type="curve" smooth="yes"/>
      <point x="140" y="678" type="line"/>
      <point x="129" y="677"/>
      <point x="116" y="672"/>
      <point x="111" y="660" type="curve"/>
      <point x="217" y="469" type="line" smooth="yes"/>
      <point x="223" y="458"/>
      <point x="228" y="456"/>
      <point x="240" y="456" type="curve" smooth="yes"/>
      <point x="252" y="456"/>
      <point x="257" y="458"/>
      <point x="263" y="469" type="curve" smooth="yes"/>
    </contour>
  </outline>
</glyph>
<glyph name="Iogonek" format="1">
  <advance width="371"/>
  <unicode hex="012E"/>
  <outline>
    <contour>
      <point x="114" y="146" type="line" smooth="yes" name="hr01"/>
      <point x="114" y="52"/>
      <point x="108" y="45"/>
      <point x="62" y="37" type="curve" smooth="yes"/>
      <point x="34" y="32" type="line" name="hr02"/>
      <point x="26" y="26"/>
      <point x="26" y="3"/>
      <point x="34" y="-3" type="curve" name="hr03"/>
      <point x="79" y="-1"/>
      <point x="141" y="0"/>
      <point x="180" y="0" type="curve" name="hr04"/>
      <point x="130" y="-45"/>
      <point x="95" y="-90"/>
      <point x="95" y="-136" type="curve" smooth="yes"/>
      <point x="95" y="-187"/>
      <point x="131" y="-233"/>
      <point x="197" y="-233" type="curve" smooth="yes"/>
      <point x="238" y="-233"/>
      <point x="275" y="-214"/>
      <point x="305" y="-179" type="curve"/>
      <point x="305" y="-170"/>
      <point x="303" y="-159"/>
      <point x="297" y="-156" type="curve"/>
      <point x="283" y="-163"/>
      <point x="265" y="-165"/>
      <point x="252" y="-165" type="curve" smooth="yes"/>
      <point x="212" y="-165"/>
      <point x="179" y="-148"/>
      <point x="179" y="-101" type="curve" smooth="yes"/>
      <point x="179" y="-74"/>
      <point x="195" y="-30"/>
      <point x="224" y="0" type="curve"/>
      <point x="258" y="0"/>
      <point x="285" y="-1"/>
      <point x="336" y="-3" type="curve"/>
      <point x="344" y="3"/>
      <point x="345" y="26"/>
      <point x="337" y="32" type="curve"/>
      <point x="309" y="37" type="line" smooth="yes" name="hr05"/>
      <point x="263" y="45"/>
      <point x="257" y="52"/>
      <point x="257" y="146" type="curve" smooth="yes"/>
      <point x="257" y="514" type="line" smooth="yes"/>
      <point x="257" y="608"/>
      <point x="263" y="615"/>
      <point x="309" y="623" type="curve" smooth="yes"/>
      <point x="337" y="628" type="line"/>
      <point x="345" y="634"/>
      <point x="345" y="657"/>
      <point x="337" y="663" type="curve"/>
      <point x="283" y="661"/>
      <point x="233" y="660"/>
      <point x="186" y="660" type="curve" smooth="yes"/>
      <point x="138" y="660"/>
      <point x="88" y="661"/>
      <point x="34" y="663" type="curve"/>
      <point x="26" y="657"/>
      <point x="26" y="634"/>
      <point x="34" y="628" type="curve"/>
      <point x="62" y="623" type="line" smooth="yes"/>
      <point x="108" y="615"/>
      <point x="114" y="608"/>
      <point x="114" y="514" type="curve" smooth="yes"/>
    </contour>
  </outline>
</glyph>
<glyph name="uni0136" format="1">
  <advance width="715"/>
  <unicode hex="0136"/>
  <outline>
    <contour>
      <point x="257" y="516" type="line" smooth="yes" name="hr01"/>
      <point x="257" y="609"/>
      <point x="263" y="618"/>
      <point x="308" y="624" type="curve" smooth="yes"/>
      <point x="336" y="628" type="line"/>
      <point x="345" y="634"/>
      <point x="345" y="657"/>
      <point x="336" y="663" type="curve"/>
      <point x="283" y="661"/>
      <point x="233" y="660"/>
      <point x="185" y="660" type="curve" smooth="yes"/>
      <point x="135" y="660"/>
      <point x="85" y="661"/>
      <point x="35" y="663" type="curve"/>
      <point x="24" y="657"/>
      <point x="24" y="634"/>
      <point x="35" y="628" type="curve"/>
      <point x="63" y="624" type="line" smooth="yes"/>
      <point x="108" y="618"/>
      <point x="114" y="609"/>
      <point x="114" y="516" type="curve" smooth="yes"/>
      <point x="114" y="144" type="line" smooth="yes"/>
      <point x="114" y="51"/>
      <point x="108" y="42"/>
      <point x="63" y="36" type="curve" smooth="yes"/>
      <point x="35" y="32" type="line"/>
      <point x="27" y="26"/>
      <point x="27" y="3"/>
      <point x="35" y="-3" type="curve"/>
      <point x="88" y="-1"/>
      <point x="140" y="0"/>
      <point x="185" y="0" type="curve" smooth="yes"/>
      <point x="233" y="0"/>
      <point x="283" y="-1"/>
      <point x="336" y="-3" type="curve"/>
      <point x="344" y="3"/>
      <point x="344" y="25"/>
      <point x="336" y="32" type="curve"/>
      <point x="308" y="36" type="line" smooth="yes"/>
      <point x="263" y="42"/>
      <point x="257" y="51"/>
      <point x="257" y="144" type="curve" smooth="yes"/>
      <point x="257" y="249" type="line" smooth="yes"/>
      <point x="257" y="303"/>
      <point x="258" y="317"/>
      <point x="281" y="317" type="curve" smooth="yes"/>
      <point x="303" y="317"/>
      <point x="320" y="293"/>
      <point x="356" y="238" type="curve" smooth="yes"/>
      <point x="409" y="157" type="line"/>
      <point x="467" y="68" type="line" smooth="yes"/>
      <point x="473" y="59"/>
      <point x="475" y="52"/>
      <point x="475" y="48" type="curve" smooth="yes"/>
      <point x="475" y="44"/>
      <point x="469" y="41"/>
      <point x="458" y="38" type="curve" smooth="yes"/>
      <point x="433" y="32" type="line"/>
      <point x="422" y="26"/>
      <point x="422" y="1"/>
      <point x="435" y="-3" type="curve"/>
      <point x="491" y="-1"/>
      <point x="541" y="0"/>
      <point x="592" y="0" type="curve" smooth="yes"/>
      <point x="638" y="0"/>
      <point x="686" y="-1"/>
      <point x="736" y="-3" type="curve"/>
      <point x="745" y="2"/>
      <point x="745" y="23"/>
      <point x="739" y="32" type="curve"/>
      <point x="707" y="37" type="line" smooth="yes"/>
      <point x="679" y="41"/>
      <point x="660" y="48"/>
      <point x="633" y="84" type="curve" smooth="yes"/>
      <point x="565" y="174"/>
      <point x="506" y="270"/>
      <point x="456" y="345" type="curve" smooth="yes"/>
      <point x="426" y="390"/>
      <point x="420" y="402"/>
      <point x="420" y="407" type="curve" smooth="yes"/>
      <point x="420" y="411"/>
      <point x="423" y="419"/>
      <point x="433" y="430" type="curve" smooth="yes"/>
      <point x="479" y="482" type="line" smooth="yes"/>
      <point x="544" y="556"/>
      <point x="587" y="594"/>
      <point x="627" y="610" type="curve" smooth="yes"/>
      <point x="648" y="619"/>
      <point x="678" y="624"/>
      <point x="713" y="628" type="curve"/>
      <point x="721" y="636"/>
      <point x="720" y="659"/>
      <point x="708" y="663" type="curve"/>
      <point x="668" y="661"/>
      <point x="624" y="660"/>
      <point x="587" y="660" type="curve" smooth="yes"/>
      <point x="551" y="660"/>
      <point x="514" y="661"/>
      <point x="463" y="663" type="curve"/>
      <point x="450" y="659"/>
      <point x="448" y="635"/>
      <point x="459" y="628" type="curve"/>
      <point x="482" y="624" type="line" smooth="yes"/>
      <point x="495" y="622"/>
      <point x="499" y="615"/>
      <point x="499" y="611" type="curve" smooth="yes"/>
      <point x="499" y="607"/>
      <point x="495" y="598"/>
      <point x="486" y="585" type="curve" smooth="yes"/>
      <point x="454" y="538"/>
      <point x="405" y="479"/>
      <point x="352" y="415" type="curve" smooth="yes"/>
      <point x="336" y="395"/>
      <point x="296" y="357"/>
      <point x="275" y="357" type="curve" smooth="yes"/>
      <point x="263" y="357"/>
      <point x="257" y="361"/>
      <point x="257" y="394" type="curve" smooth="yes"/>
    </contour>
    <contour>
      <point x="347" y="-55" type="curve" smooth="yes" name="hr02"/>
      <point x="316" y="-55"/>
      <point x="290" y="-78"/>
      <point x="290" y="-106" type="curve" smooth="yes"/>
      <point x="290" y="-128"/>
      <point x="302" y="-141"/>
      <point x="315" y="-145" type="curve" smooth="yes"/>
      <point x="335" y="-150"/>
      <point x="361" y="-163"/>
      <point x="361" y="-193" type="curve" smooth="yes"/>
      <point x="361" y="-227"/>
      <point x="320" y="-258"/>
      <point x="290" y="-269" type="curve"/>
      <point x="282" y="-275"/>
      <point x="285" y="-301"/>
      <point x="299" y="-302" type="curve"/>
      <point x="374" y="-287"/>
      <point x="435" y="-242"/>
      <point x="435" y="-157" type="curve" smooth="yes"/>
      <point x="435" y="-83"/>
      <point x="387" y="-55"/>
    </contour>
  </outline>
</glyph>
<glyph name="Lacute" format="1">
  <advance width="585"/>
  <unicode hex="0139"/>
  <outline>
    <contour>
      <point x="257" y="516" type="line" smooth="yes" name="hr01"/>
      <point x="257" y="609"/>
      <point x="263" y="617"/>
      <point x="308" y="624" type="curve" smooth="yes"/>
      <point x="334" y="628" type="line"/>
      <point x="342" y="634"/>
      <point x="342" y="657"/>
      <point x="334" y="663" type="curve"/>
      <point x="284" y="661"/>
      <point x="234" y="660"/>
      <point x="186" y="660" type="curve" smooth="yes"/>
      <point x="138" y="660"/>
      <point x="88" y="661"/>
      <point x="36" y="663" type="curve"/>
      <point x="24" y="657"/>
      <point x="24" y="634"/>
      <point x="34" y="628" type="curve"/>
      <point x="63" y="624" type="line" smooth="yes"/>
      <point x="108" y="618"/>
      <point x="114" y="609"/>
      <point x="114" y="516" type="curve" smooth="yes"/>
      <point x="114" y="144" type="line" smooth="yes"/>
      <point x="114" y="51"/>
      <point x="108" y="43"/>
      <point x="63" y="37" type="curve" smooth="yes" name="hr02"/>
      <point x="25" y="32" type="line"/>
      <point x="17" y="26"/>
      <point x="19" y="3"/>
      <point x="28" y="-3" type="curve" name="hr03"/>
      <point x="90" y="-1"/>
      <point x="140" y="0"/>
      <point x="186" y="0" type="curve" smooth="yes" name="hr04"/>
      <point x="320" y="0" type="line" smooth="yes"/>
      <point x="402" y="0"/>
      <point x="498" y="-1"/>
      <point x="551" y="-3" type="curve"/>
      <point x="565" y="24"/>
      <point x="589" y="107"/>
      <point x="594" y="159" type="curve"/>
      <point x="587" y="171"/>
      <point x="564" y="175"/>
      <point x="556" y="165" type="curve"/>
      <point x="497" y="49"/>
      <point x="469" y="46"/>
      <point x="378" y="46" type="curve" smooth="yes"/>
      <point x="305" y="46"/>
      <point x="287" y="54"/>
      <point x="274" y="71" type="curve" smooth="yes"/>
      <point x="261" y="87"/>
      <point x="257" y="119"/>
      <point x="257" y="166" type="curve" smooth="yes"/>
    </contour>
    <contour>
      <point x="180" y="731" type="line"/>
      <point x="177" y="720"/>
      <point x="183" y="709"/>
      <point x="191" y="706" type="curve"/>
      <point x="387" y="770" type="line" smooth="yes"/>
      <point x="407" y="776"/>
      <point x="417" y="787"/>
      <point x="419" y="795" type="curve" smooth="yes"/>
      <point x="421" y="802"/>
      <point x="421" y="817"/>
      <point x="409" y="838" type="curve" smooth="yes"/>
      <point x="397" y="861"/>
      <point x="385" y="869"/>
      <point x="375" y="869" type="curve" smooth="yes"/>
      <point x="368" y="869"/>
      <point x="358" y="864"/>
      <point x="342" y="852" type="curve" smooth="yes"/>
    </contour>
  </outline>
</glyph>
<glyph name="lslash" format="1">
  <advance width="286"/>
  <unicode hex="0142"/>
  <outline>
    <contour>
      <point x="293" y="421" type="line" name="hr00"/>
      <point x="295" y="437"/>
      <point x="285" y="456"/>
      <point x="277" y="461" type="curve"/>
      <point x="212" y="427" type="line"/>
      <point x="212" y="562" type="line" smooth="yes"/>
      <point x="212" y="625"/>
      <point x="213" y="667"/>
      <point x="215" y="708" type="curve"/>
      <point x="211" y="713"/>
      <point x="204" y="715"/>
      <point x="198" y="715" type="curve"/>
      <point x="148" y="693"/>
      <point x="89" y="669"/>
      <point x="45" y="659" type="curve"/>
      <point x="38" y="653"/>
      <point x="38" y="635"/>
      <point x="45" y="629" type="curve"/>
      <point x="62" y="619" type="line" smooth="yes"/>
      <point x="82" y="607"/>
      <point x="82" y="596"/>
      <point x="82" y="546" type="curve" smooth="yes"/>
      <point x="82" y="362" type="line"/>
      <point x="11" y="324" type="line"/>
      <point x="8" y="316"/>
      <point x="15" y="290"/>
      <point x="26" y="285" type="curve"/>
      <point x="82" y="313" type="line"/>
      <point x="82" y="116" type="line" smooth="yes"/>
      <point x="82" y="46"/>
      <point x="78" y="37"/>
      <point x="45" y="34" type="curve" smooth="yes"/>
      <point x="26" y="32" type="line"/>
      <point x="18" y="26"/>
      <point x="18" y="3"/>
      <point x="27" y="-3" type="curve"/>
      <point x="62" y="-1"/>
      <point x="104" y="0"/>
      <point x="147" y="0" type="curve" smooth="yes"/>
      <point x="192" y="0"/>
      <point x="234" y="-1"/>
      <point x="267" y="-3" type="curve"/>
      <point x="276" y="3"/>
      <point x="276" y="26"/>
      <point x="268" y="32" type="curve"/>
      <point x="251" y="34" type="line" smooth="yes"/>
      <point x="216" y="38"/>
      <point x="212" y="46"/>
      <point x="212" y="116" type="curve" smooth="yes"/>
      <point x="212" y="377" type="line"/>
    </contour>
  </outline>
</glyph>
<glyph name="ohungarumlaut" format="1">
  <advance width="516"/>
  <unicode hex="0151"/>
  <outline>
    <contour>
      <point x="255" y="-14" type="curve" smooth="yes" name="hr00"/>
      <point x="378" y="-14"/>
      <point x="485" y="55"/>
      <point x="485" y="201" type="curve" smooth="yes"/>
      <point x="485" y="342"/>
      <point x="379" y="414"/>
      <point x="261" y="414" type="curve" smooth="yes"/>
      <point x="143" y="414"/>
      <point x="30" y="335"/>
      <point x="31" y="192" type="curve" smooth="yes"/>
      <point x="32" y="54"/>
      <point x="136" y="-14"/>
    </contour>
    <contour>
      <point x="255" y="368" type="curve" smooth="yes"/>
      <point x="312" y="368"/>
      <point x="340" y="284"/>
      <point x="341" y="187" type="curve" smooth="yes"/>
      <point x="342" y="97"/>
      <point x="323" y="32"/>
      <point x="266" y="32" type="curve" smooth="yes"/>
      <point x="208" y="32"/>
      <point x="175" y="109"/>
      <point x="175" y="214" type="curve" smooth="yes"/>
      <point x="175" y="323"/>
      <point x="211" y="368"/>
    </contour>
    <contour>
      <point x="139" y="463" type="line"/>
      <point x="141" y="451"/>
      <point x="153" y="445"/>
      <point x="167" y="447" type="curve"/>
      <point x="277" y="585" type="line" smooth="yes"/>
      <point x="288" y="599"/>
      <point x="297" y="612"/>
      <point x="297" y="623" type="curve" smooth="yes"/>
      <point x="297" y="634"/>
      <point x="288" y="645"/>
      <point x="270" y="659" type="curve" smooth="yes"/>
      <point x="253" y="671"/>
      <point x="242" y="675"/>
      <point x="231" y="675" type="curve" smooth="yes"/>
      <point x="221" y="675"/>
      <point x="211" y="668"/>
      <point x="203" y="644" type="curve" smooth="yes"/>
    </contour>
    <contour>
      <point x="314" y="463" type="line"/>
      <point x="316" y="451"/>
      <point x="329" y="445"/>
      <point x="343" y="447" type="curve"/>
      <point x="452" y="585" type="line" smooth="yes"/>
      <point x="463" y="599"/>
      <point x="472" y="612"/>
      <point x="472" y="623" type="curve" smooth="yes"/>
      <point x="472" y="634"/>
      <point x="463" y="645"/>
      <point x="445" y="659" type="curve" smooth="yes"/>
      <point x="428" y="671"/>
      <point x="417" y="675"/>
      <point x="406" y="675" type="curve" smooth="yes"/>
      <point x="396" y="675"/>
      <point x="386" y="668"/>
      <point x="378" y="644" type="curve" smooth="yes"/>
    </contour>
  </outline>
</glyph>
<glyph name="sacute" format="1">
  <advance width="358"/>
  <unicode hex="015B"/>
  <outline>
    <contour>
      <point x="164" y="-14" type="curve" smooth="yes" name="hr00"/>
      <point x="258" y="-14"/>
      <point x="334" y="31"/>
      <point x="335" y="120" type="curve" smooth="yes"/>
      <point x="335" y="185"/>
      <point x="293" y="227"/>
      <point x="225" y="260" type="curve" smooth="yes"/>
      <point x="180" y="282"/>
      <point x="161" y="301"/>
      <point x="161" y="324" type="curve" smooth="yes"/>
      <point x="161" y="351"/>
      <point x="182" y="368"/>
      <point x="211" y="368" type="curve" smooth="yes"/>
      <point x="244" y="368"/>
      <point x="269" y="347"/>
      <point x="289" y="289" type="curve"/>
      <point x="295" y="282"/>
      <point x="320" y="282"/>
      <point x="324" y="293" type="curve"/>
      <point x="324" y="331"/>
      <point x="319" y="371"/>
      <point x="309" y="393" type="curve"/>
      <point x="298" y="401"/>
      <point x="253" y="414"/>
      <point x="202" y="414" type="curve" smooth="yes"/>
      <point x="116" y="414"/>
      <point x="43" y="372"/>
      <point x="43" y="285" type="curve" smooth="yes"/>
      <point x="43" y="225"/>
      <point x="86" y="189"/>
      <point x="146" y="159" type="curve" smooth="yes"/>
      <point x="180" y="142"/>
      <point x="212" y="121"/>
      <point x="212" y="84" type="curve" smooth="yes"/>
      <point x="212" y="50"/>
      <point x="190" y="32"/>
      <point x="160" y="32" type="curve" smooth="yes"/>
      <point x="109" y="32"/>
      <point x="71" y="91"/>
      <point x="58" y="132" type="curve"/>
      <point x="52" y="141"/>
      <point x="30" y="140"/>
      <point x="24" y="130" type="curve"/>
      <point x="22" y="85"/>
      <point x="29" y="37"/>
      <point x="40" y="17" type="curve"/>
      <point x="67" y="-4"/>
      <point x="107" y="-14"/>
    </contour>
    <contour>
      <point x="151" y="462" type="line"/>
      <point x="153" y="450"/>
      <point x="162" y="444"/>
      <point x="176" y="446" type="curve"/>
      <point x="317" y="585" type="line" smooth="yes"/>
      <point x="330" y="598"/>
      <point x="339" y="611"/>
      <point x="339" y="622" type="curve" smooth="yes"/>
      <point x="339" y="633"/>
      <point x="330" y="644"/>
      <point x="312" y="658" type="curve" smooth="yes"/>
      <point x="295" y="670"/>
      <point x="284" y="674"/>
      <point x="273" y="674" type="curve" smooth="yes"/>
      <point x="263" y="674"/>
      <point x="253" y="667"/>
      <point x="242" y="644" type="curve" smooth="yes"/>
    </contour>
  </outline>
</glyph>
<glyph name="uni0163" format="1">
  <advance width="323"/>
  <unicode hex="0163"/>
  <outline>
    <contour>
      <point x="311" y="346" type="line" name="hr01"/>
      <point x="321" y="352"/>
      <point x="324" y="370"/>
      <point x="324" y="381" type="curve" smooth="yes"/>
      <point x="324" y="390"/>
      <point x="321" y="396"/>
      <point x="316" y="400" type="curve"/>
      <point x="227" y="400" type="line" smooth="yes"/>
      <point x="209" y="400"/>
      <point x="208" y="401"/>
      <point x="208" y="420" type="curve" smooth="yes"/>
      <point x="208" y="495" type="line"/>
      <point x="203" y="503"/>
      <point x="185" y="504"/>
      <point x="178" y="500" type="curve"/>
      <point x="147" y="456"/>
      <point x="122" y="435"/>
      <point x="104" y="422" type="curve" smooth="yes"/>
      <point x="80" y="406"/>
      <point x="52" y="388"/>
      <point x="21" y="377" type="curve"/>
      <point x="13" y="370"/>
      <point x="16" y="350"/>
      <point x="27" y="346" type="curve"/>
      <point x="58" y="346" type="line" smooth="yes"/>
      <point x="76" y="346"/>
      <point x="77" y="344"/>
      <point x="77" y="323" type="curve" smooth="yes"/>
      <point x="77" y="100" type="line" smooth="yes"/>
      <point x="77" y="37"/>
      <point x="103" y="-9"/>
      <point x="178" y="-13" type="curve"/>
      <point x="115" y="-106" type="line" name="hr02"/>
      <point x="118" y="-114" type="line"/>
      <point x="154" y="-129"/>
      <point x="194" y="-154"/>
      <point x="194" y="-186" type="curve" smooth="yes"/>
      <point x="194" y="-202"/>
      <point x="179" y="-211"/>
      <point x="168" y="-211" type="curve" smooth="yes"/>
      <point x="146" y="-211"/>
      <point x="128" y="-174"/>
      <point x="100" y="-174" type="curve" smooth="yes"/>
      <point x="81" y="-174"/>
      <point x="68" y="-189"/>
      <point x="68" y="-207" type="curve" smooth="yes"/>
      <point x="68" y="-235"/>
      <point x="97" y="-251"/>
      <point x="145" y="-251" type="curve" smooth="yes"/>
      <point x="210" y="-251"/>
      <point x="272" y="-213"/>
      <point x="272" y="-158" type="curve" smooth="yes"/>
      <point x="272" y="-119"/>
      <point x="248" y="-93"/>
      <point x="211" y="-73" type="curve" smooth="yes"/>
      <point x="196" y="-65"/>
      <point x="194" y="-62"/>
      <point x="202" y="-52" type="curve" smooth="yes"/>
      <point x="233" y="-9" type="line"/>
      <point x="276" y="0"/>
      <point x="312" y="21"/>
      <point x="333" y="44" type="curve"/>
      <point x="335" y="56"/>
      <point x="329" y="67"/>
      <point x="319" y="70" type="curve"/>
      <point x="307" y="62"/>
      <point x="291" y="55"/>
      <point x="277" y="55" type="curve" smooth="yes" name="hr03"/>
      <point x="207" y="55"/>
      <point x="207" y="117"/>
      <point x="207" y="173" type="curve" smooth="yes"/>
      <point x="207" y="323" type="line" smooth="yes"/>
      <point x="207" y="345"/>
      <point x="208" y="346"/>
      <point x="221" y="346" type="curve" smooth="yes"/>
    </contour>
  </outline>
</glyph>
<glyph name="Tcaron" format="1">
  <advance width="645"/>
  <unicode hex="0164"/>
  <outline>
    <contour>
      <point x="255" y="144" type="line" smooth="yes" name="hr01"/>
      <point x="255" y="51"/>
      <point x="249" y="42"/>
      <point x="204" y="37" type="curve" smooth="yes"/>
      <point x="159" y="32" type="line"/>
      <point x="151" y="26"/>
      <point x="151" y="3"/>
      <point x="159" y="-3" type="curve"/>
      <point x="229" y="-1"/>
      <point x="281" y="0"/>
      <point x="329" y="0" type="curve" smooth="yes"/>
      <point x="374" y="0"/>
      <point x="424" y="-1"/>
      <point x="489" y="-3" type="curve"/>
      <point x="496" y="3"/>
      <point x="496" y="26"/>
      <point x="489" y="32" type="curve"/>
      <point x="449" y="37" type="line" smooth="yes"/>
      <point x="404" y="43"/>
      <point x="398" y="51"/>
      <point x="398" y="144" type="curve" smooth="yes"/>
      <point x="398" y="585" type="line" smooth="yes"/>
      <point x="398" y="611"/>
      <point x="401" y="614"/>
      <point x="425" y="614" type="curve" smooth="yes"/>
      <point x="485" y="614" type="line" smooth="yes"/>
      <point x="560" y="614"/>
      <point x="574" y="567"/>
      <point x="591" y="503" type="curve"/>
      <point x="596" y="495"/>
      <point x="623" y="497"/>
      <point x="628" y="506" type="curve" name="hr02"/>
      <point x="626" y="563"/>
      <point x="633" y="644"/>
      <point x="643" y="678" type="curve" name="hr03"/>
      <point x="641" y="681"/>
      <point x="634" y="685"/>
      <point x="628" y="685" type="curve" smooth="yes"/>
      <point x="622" y="685"/>
      <point x="619" y="684"/>
      <point x="615" y="682" type="curve"/>
      <point x="606" y="661"/>
      <point x="591" y="660"/>
      <point x="525" y="660" type="curve" smooth="yes" name="hr04"/>
      <point x="153" y="660" type="line" smooth="yes"/>
      <point x="77" y="660"/>
      <point x="74" y="664"/>
      <point x="69" y="681" type="curve"/>
      <point x="65" y="684"/>
      <point x="60" y="685"/>
      <point x="55" y="685" type="curve" smooth="yes"/>
      <point x="50" y="685"/>
      <point x="45" y="683"/>
      <point x="41" y="680" type="curve"/>
      <point x="34" y="641"/>
      <point x="29" y="579"/>
      <point x="8" y="510" type="curve" name="hr05"/>
      <point x="14" y="497"/>
      <point x="33" y="495"/>
      <point x="45" y="501" type="curve"/>
      <point x="75" y="574"/>
      <point x="96" y="614"/>
      <point x="169" y="614" type="curve" smooth="yes" name="hr06"/>
      <point x="231" y="614" type="line" smooth="yes"/>
      <point x="255" y="614"/>
      <point x="255" y="609"/>
      <point x="255" y="585" type="curve" smooth="yes"/>
    </contour>
    <contour>
      <point x="187" y="861" type="line"/>
      <point x="180" y="860"/>
      <point x="173" y="847"/>
      <point x="175" y="835" type="curve"/>
      <point x="303" y="718" type="line" smooth="yes"/>
      <point x="317" y="705"/>
      <point x="332" y="705"/>
      <point x="347" y="718" type="curve" smooth="yes"/>
      <point x="476" y="835" type="line"/>
      <point x="478" y="847"/>
      <point x="472" y="861"/>
      <point x="463" y="861" type="curve"/>
      <point x="343" y="810" type="line" smooth="yes"/>
      <point x="329" y="804"/>
      <point x="321" y="806"/>
      <point x="308" y="811" type="curve" smooth="yes"/>
    </contour>
  </outline>
</glyph>
<glyph name="florin" format="1">
  <advance width="520"/>
  <unicode hex="0192"/>
  <outline>
    <contour>
      <point x="80" y="427" type="line" name="hr00"/>
      <point x="68" y="421"/>
      <point x="63" y="392"/>
      <point x="70" y="382" type="curve"/>
      <point x="158" y="382" type="line"/>
      <point x="137" y="264"/>
      <point x="118" y="136"/>
      <point x="90" y="-20" type="curve" smooth="yes"/>
      <point x="85" y="-49"/>
      <point x="80" y="-65"/>
      <point x="66" y="-65" type="curve" smooth="yes"/>
      <point x="48" y="-65"/>
      <point x="30" y="-47"/>
      <point x="0" y="-15" type="curve" smooth="yes"/>
      <point x="-10" y="-4"/>
      <point x="-21" y="4"/>
      <point x="-29" y="4" type="curve" smooth="yes"/>
      <point x="-41" y="4"/>
      <point x="-52" y="-22"/>
      <point x="-52" y="-53" type="curve" smooth="yes"/>
      <point x="-52" y="-92"/>
      <point x="-30" y="-122"/>
      <point x="22" y="-122" type="curve" smooth="yes"/>
      <point x="68" y="-122"/>
      <point x="114" y="-103"/>
      <point x="146" y="-73" type="curve" smooth="yes"/>
      <point x="206" y="-19"/>
      <point x="236" y="37"/>
      <point x="270" y="237" type="curve" smooth="yes"/>
      <point x="279" y="290"/>
      <point x="288" y="341"/>
      <point x="296" y="382" type="curve"/>
      <point x="407" y="382" type="line"/>
      <point x="422" y="394"/>
      <point x="425" y="421"/>
      <point x="417" y="427" type="curve"/>
      <point x="304" y="427" type="line"/>
      <point x="325" y="545"/>
      <point x="351" y="644"/>
      <point x="374" y="644" type="curve" smooth="yes"/>
      <point x="387" y="644"/>
      <point x="403" y="626"/>
      <point x="416" y="603" type="curve" smooth="yes"/>
      <point x="423" y="591"/>
      <point x="430" y="585"/>
      <point x="441" y="585" type="curve" smooth="yes"/>
      <point x="468" y="585"/>
      <point x="500" y="614"/>
      <point x="500" y="650" type="curve" smooth="yes"/>
      <point x="500" y="672"/>
      <point x="477" y="697"/>
      <point x="414" y="697" type="curve" smooth="yes"/>
      <point x="306" y="697"/>
      <point x="234" y="615"/>
      <point x="209" y="564" type="curve" smooth="yes"/>
      <point x="188" y="522"/>
      <point x="176" y="482"/>
      <point x="165" y="427" type="curve"/>
    </contour>
  </outline>
</glyph>
<glyph name="breve" format="1">
  <advance width="380"/>
  <unicode hex="02D8"/>
  <outline>
    <contour>
      <point x="190" y="488" type="curve" smooth="yes" name="hr00"/>
      <point x="272" y="488"/>
      <point x="315" y="544"/>
      <point x="311" y="642" type="curve"/>
      <point x="304" y="647"/>
      <point x="287" y="647"/>
      <point x="281" y="642" type="curve"/>
      <point x="271" y="593"/>
      <point x="234" y="568"/>
      <point x="190" y="568" type="curve" smooth="yes"/>
      <point x="146" y="568"/>
      <point x="109" y="598"/>
      <point x="99" y="642" type="curve"/>
      <point x="93" y="647"/>
      <point x="76" y="647"/>
      <point x="69" y="642" type="curve"/>
      <point x="65" y="544"/>
      <point x="108" y="488"/>
    </contour>
  </outline>
</glyph>
<glyph name="ogonek" format="1">
  <advance width="380"/>
  <unicode hex="02DB"/>
  <outline>
    <contour>
      <point x="226" y="15" type="line" name="hr00"/>
      <point x="126" y="-56"/>
      <point x="87" y="-101"/>
      <point x="87" y="-155" type="curve" smooth="yes"/>
      <point x="87" y="-197"/>
      <point x="110" y="-245"/>
      <point x="187" y="-245" type="curve" smooth="yes"/>
      <point x="226" y="-245"/>
      <point x="270" y="-229"/>
      <point x="296" y="-190" type="curve"/>
      <point x="296" y="-182"/>
      <point x="293" y="-173"/>
      <point x="286" y="-171" type="curve"/>
      <point x="271" y="-177"/>
      <point x="253" y="-182"/>
      <point x="233" y="-182" type="curve" smooth="yes"/>
      <point x="196" y="-182"/>
      <point x="179" y="-158"/>
      <point x="179" y="-124" type="curve" smooth="yes"/>
      <point x="179" y="-79"/>
      <point x="210" y="-38"/>
      <point x="263" y="15" type="curve"/>
    </contour>
  </outline>
</glyph>
<glyph name="uni2010" format="1">
  <advance width="328"/>
  <unicode hex="2010"/>
  <outline>
    <contour>
      <point x="45" y="237" type="line" name="hr00"/>
      <point x="37" y="227"/>
      <point x="30" y="215"/>
      <point x="30" y="196" type="curve" smooth="yes"/>
      <point x="30" y="178"/>
      <point x="37" y="164"/>
      <point x="45" y="156" type="curve"/>
      <point x="285" y="178" type="line"/>
      <point x="293" y="188"/>
      <point x="298" y="204"/>
      <point x="298" y="217" type="curve" smooth="yes"/>
      <point x="298" y="234"/>
      <point x="293" y="249"/>
      <point x="284" y="259" type="curve"/>
    </contour>
  </outline>
</glyph>
<glyph name="endash" format="1">
  <advance width="500"/>
  <unicode hex="2013"/>
  <outline>
    <contour>
      <point x="0" y="242" type="line" name="hr00"/>
      <point x="0" y="173" type="line"/>
      <point x="500" y="173" type="line"/>
      <point x="500" y="242" type="line"/>
    </contour>
  </outline>
</glyph>
<glyph name="quotesinglbase" format="1">
  <advance width="253"/>
  <unicode hex="201A"/>
  <outline>
    <contour>
      <point x="114" y="170" type="curve" smooth="yes" name="hr00"/>
      <point x="76" y="170"/>
      <point x="45" y="142"/>
      <point x="45" y="108" type="curve" smooth="yes"/>
      <point x="45" y="85"/>
      <point x="58" y="69"/>
      <point x="75" y="64" type="curve" smooth="yes"/>
      <point x="99" y="58"/>
      <point x="130" y="44"/>
      <point x="130" y="2" type="curve" smooth="yes"/>
      <point x="130" y="-45"/>
      <point x="81" y="-78"/>
      <point x="45" y="-91" type="curve"/>
      <point x="34" y="-98"/>
      <point x="38" y="-120"/>
      <point x="55" y="-122" type="curve"/>
      <point x="138" y="-103"/>
      <point x="213" y="-49"/>
      <point x="213" y="46" type="curve" smooth="yes"/>
      <point x="213" y="135"/>
      <point x="155" y="170"/>
    </contour>
  </outline>
</glyph>
<glyph name="quotedblleft" format="1">
  <advance width="472"/>
  <unicode hex="201C"/>
  <outline>
    <contour>
      <point x="139" y="414" type="curve" smooth="yes" name="hr00"/>
      <point x="177" y="414"/>
      <point x="208" y="442"/>
      <point x="208" y="476" type="curve" smooth="yes"/>
      <point x="208" y="499"/>
      <point x="195" y="515"/>
      <point x="178" y="520" type="curve" smooth="yes"/>
      <point x="154" y="526"/>
      <point x="123" y="540"/>
      <point x="123" y="582" type="curve" smooth="yes"/>
      <point x="123" y="629"/>
      <point x="172" y="662"/>
      <point x="208" y="675" type="curve"/>
      <point x="219" y="682"/>
      <point x="215" y="704"/>
      <point x="198" y="706" type="curve"/>
      <point x="115" y="687"/>
      <point x="40" y="629"/>
      <point x="40" y="536" type="curve" smooth="yes"/>
      <point x="40" y="449"/>
      <point x="98" y="414"/>
    </contour>
    <contour>
      <point x="358" y="414" type="curve" smooth="yes"/>
      <point x="396" y="414"/>
      <point x="427" y="442"/>
      <point x="427" y="476" type="curve" smooth="yes"/>
      <point x="427" y="499"/>
      <point x="414" y="515"/>
      <point x="397" y="520" type="curve" smooth="yes"/>
      <point x="373" y="526"/>
      <point x="342" y="540"/>
      <point x="342" y="582" type="curve" smooth="yes"/>
      <point x="342" y="629"/>
      <point x="391" y="662"/>
      <point x="427" y="675" type="curve"/>
      <point x="438" y="682"/>
      <point x="434" y="704"/>
      <point x="417" y="706" type="curve"/>
      <point x="334" y="687"/>
      <point x="259" y="629"/>
      <point x="259" y="536" type="curve" smooth="yes"/>
      <point x="259" y="449"/>
      <point x="317" y="414"/>
    </contour>
  </outline>
</glyph>
<glyph name="daggerdbl" format="1">
  <advance width="492"/>
  <unicode hex="2021"/>
  <outline>
    <contour>
      <point x="246" y="676" type="curve" smooth="yes" name="hr01"/>
      <point x="193" y="676"/>
      <point x="181" y="637"/>
      <point x="181" y="611" type="curve" smooth="yes"/>
      <point x="181" y="570"/>
      <point x="213" y="549"/>
      <point x="217" y="473" type="curve"/>
      <point x="160" y="473"/>
      <point x="125" y="504"/>
      <point x="95" y="504" type="curve" smooth="yes"/>
      <point x="64" y="504"/>
      <point x="40" y="482"/>
      <point x="40" y="451" type="curve" smooth="yes"/>
      <point x="40" y="419"/>
      <point x="64" y="397"/>
      <point x="95" y="397" type="curve" smooth="yes"/>
      <point x="125" y="397"/>
      <point x="160" y="428"/>
      <point x="217" y="428" type="curve" name="hr02"/>
      <point x="217" y="363"/>
      <point x="206" y="318"/>
      <point x="175" y="287" type="curve"/>
      <point x="206" y="259"/>
      <point x="217" y="214"/>
      <point x="217" y="138" type="curve"/>
      <point x="160" y="138"/>
      <point x="125" y="169"/>
      <point x="95" y="169" type="curve" smooth="yes"/>
      <point x="64" y="169"/>
      <point x="40" y="147"/>
      <point x="40" y="113" type="curve" smooth="yes"/>
      <point x="40" y="84"/>
      <point x="64" y="62"/>
      <point x="95" y="62" type="curve" smooth="yes"/>
      <point x="125" y="62"/>
      <point x="160" y="93"/>
      <point x="217" y="93" type="curve"/>
      <point x="217" y="17"/>
      <point x="181" y="-7"/>
      <point x="181" y="-60" type="curve" smooth="yes"/>
      <point x="181" y="-93"/>
      <point x="202" y="-124"/>
      <point x="246" y="-124" type="curve" smooth="yes"/>
      <point x="291" y="-124"/>
      <point x="311" y="-93"/>
      <point x="311" y="-60" type="curve" smooth="yes"/>
      <point x="311" y="-7"/>
      <point x="275" y="17"/>
      <point x="275" y="93" type="curve"/>
      <point x="332" y="93"/>
      <point x="367" y="62"/>
      <point x="398" y="62" type="curve" smooth="yes"/>
      <point x="429" y="62"/>
      <point x="452" y="84"/>
      <point x="452" y="113" type="curve" smooth="yes"/>
      <point x="452" y="147"/>
      <point x="429" y="169"/>
      <point x="398" y="169" type="curve" smooth="yes"/>
      <point x="367" y="169"/>
      <point x="332" y="138"/>
      <point x="275" y="138" type="curve"/>
      <point x="275" y="214"/>
      <point x="286" y="259"/>
      <point x="317" y="287" type="curve"/>
      <point x="286" y="318"/>
      <point x="275" y="363"/>
      <point x="275" y="428" type="curve"/>
      <point x="332" y="428"/>
      <point x="367" y="397"/>
      <point x="398" y="397" type="curve" smooth="yes"/>
      <point x="429" y="397"/>
      <point x="452" y="419"/>
      <point x="452" y="451" type="curve" smooth="yes"/>
      <point x="452" y="482"/>
      <point x="429" y="504"/>
      <point x="398" y="504" type="curve" smooth="yes" name="hr03"/>
      <point x="367" y="504"/>
      <point x="332" y="473"/>
      <point x="275" y="473" type="curve"/>
      <point x="279" y="549"/>
      <point x="311" y="570"/>
      <point x="311" y="611" type="curve" smooth="yes"/>
      <point x="311" y="637"/>
      <point x="299" y="676"/>
    </contour>
  </outline>
</glyph>
<glyph name="bullet" format="1">
  <advance width="395"/>
  <unicode hex="2022"/>
  <outline>
    <contour>
      <point x="197" y="492" type="curve" smooth="yes" name="hr00"/>
      <point x="110" y="492"/>
      <point x="42" y="423"/>
      <point x="42" y="336" type="curve" smooth="yes"/>
      <point x="42" y="247"/>
      <point x="112" y="179"/>
      <point x="197" y="179" type="curve" smooth="yes"/>
      <point x="283" y="179"/>
      <point x="353" y="248"/>
      <point x="353" y="336" type="curve" smooth="yes"/>
      <point x="353" y="423"/>
      <point x="283" y="492"/>
    </contour>
  </outline>
</glyph>
<glyph name="twodotenleader" format="1">
  <advance width="500"/>
  <unicode hex="2025"/>
  <outline>
    <contour>
      <point x="125" y="-14" type="curve" smooth="yes" name="hr00"/>
      <point x="173" y="-14"/>
      <point x="206" y="21"/>
      <point x="206" y="67" type="curve" smooth="yes"/>
      <point x="206" y="110"/>
      <point x="173" y="150"/>
      <point x="125" y="150" type="curve" smooth="yes"/>
      <point x="80" y="150"/>
      <point x="44" y="114"/>
      <point x="44" y="67" type="curve" smooth="yes"/>
      <point x="44" y="18"/>
      <point x="85" y="-14"/>
    </contour>
    <contour>
      <point x="375" y="-14" type="curve" smooth="yes"/>
      <point x="423" y="-14"/>
      <point x="456" y="21"/>
      <point x="456" y="67" type="curve" smooth="yes"/>
      <point x="456" y="110"/>
      <point x="423" y="150"/>
      <point x="375" y="150" type="curve" smooth="yes"/>
      <point x="330" y="150"/>
      <point x="294" y="114"/>
      <point x="294" y="67" type="curve" smooth="yes"/>
      <point x="294" y="18"/>
      <point x="335" y="-14"/>
    </contour>
  </outline>
</glyph>
<glyph name="six.superior" format="1">
  <advance width="400"/>
  <unicode hex="2076"/>
  <outline>
    <contour>
      <point x="157" y="479" type="curve" smooth="yes" name="hr00"/>
      <point x="157" y="537"/>
      <point x="171" y="592"/>
      <point x="204" y="631" type="curve" smooth="yes"/>
      <point x="238" y="670"/>
      <point x="278" y="693"/>
      <point x="348" y="709" type="curve"/>
      <point x="355" y="714"/>
      <point x="355" y="731"/>
      <point x="347" y="736" type="curve"/>
      <point x="251" y="736"/>
      <point x="168" y="700"/>
      <point x="121" y="656" type="curve" smooth="yes"/>
      <point x="69" y="608"/>
      <point x="39" y="549"/>
      <point x="39" y="480" type="curve" smooth="yes"/>
      <point x="39" y="379"/>
      <point x="95" y="313"/>
      <point x="205" y="313" type="curve" smooth="yes"/>
      <point x="303" y="313"/>
      <point x="367" y="367"/>
      <point x="367" y="450" type="curve" smooth="yes"/>
      <point x="367" y="510"/>
      <point x="325" y="567"/>
      <point x="248" y="567" type="curve" smooth="yes"/>
      <point x="219" y="567"/>
      <point x="189" y="553"/>
      <point x="177" y="541" type="curve"/>
      <point x="175" y="532"/>
      <point x="175" y="528"/>
      <point x="181" y="521" type="curve"/>
      <point x="192" y="522"/>
      <point x="201" y="522"/>
      <point x="209" y="520" type="curve" smooth="yes"/>
      <point x="242" y="512"/>
      <point x="261" y="462"/>
      <point x="261" y="411" type="curve" smooth="yes"/>
      <point x="261" y="382"/>
      <point x="252" y="347"/>
      <point x="219" y="347" type="curve" smooth="yes"/>
      <point x="178" y="347"/>
      <point x="157" y="411"/>
    </contour>
  </outline>
</glyph>
<glyph name="eight.superior" format="1">
  <advance width="400"/>
  <unicode hex="2078"/>
  <outline>
    <contour>
      <point x="195" y="313" type="curve" smooth="yes" name="hr01"/>
      <point x="306" y="313"/>
      <point x="357" y="361"/>
      <point x="357" y="419" type="curve" smooth="yes" name="hr02"/>
      <point x="357" y="474"/>
      <point x="319" y="507"/>
      <point x="276" y="530" type="curve"/>
      <point x="302" y="541"/>
      <point x="342" y="569"/>
      <point x="342" y="612" type="curve" smooth="yes" name="hr03"/>
      <point x="342" y="678"/>
      <point x="290" y="713"/>
      <point x="204" y="713" type="curve" smooth="yes"/>
      <point x="104" y="713"/>
      <point x="56" y="663"/>
      <point x="56" y="600" type="curve" smooth="yes"/>
      <point x="56" y="560"/>
      <point x="85" y="528"/>
      <point x="124" y="507" type="curve"/>
      <point x="78" y="495"/>
      <point x="43" y="459"/>
      <point x="43" y="415" type="curve" smooth="yes" name="hr04"/>
      <point x="43" y="342"/>
      <point x="111" y="313"/>
    </contour>
    <contour>
      <point x="169" y="485" type="curve" name="hr05"/>
      <point x="222" y="467"/>
      <point x="257" y="437"/>
      <point x="257" y="396" type="curve" smooth="yes"/>
      <point x="257" y="367"/>
      <point x="235" y="347"/>
      <point x="203" y="347" type="curve" smooth="yes"/>
      <point x="162" y="347"/>
      <point x="136" y="380"/>
      <point x="136" y="418" type="curve" smooth="yes"/>
      <point x="136" y="442"/>
      <point x="148" y="468"/>
    </contour>
    <contour>
      <point x="230" y="555" type="curve" name="hr06"/>
      <point x="170" y="578"/>
      <point x="148" y="600"/>
      <point x="148" y="627" type="curve" smooth="yes"/>
      <point x="148" y="660"/>
      <point x="172" y="679"/>
      <point x="201" y="679" type="curve" smooth="yes"/>
      <point x="228" y="679"/>
      <point x="258" y="655"/>
      <point x="258" y="614" type="curve" smooth="yes"/>
      <point x="258" y="592"/>
      <point x="246" y="569"/>
    </contour>
  </outline>
</glyph>
<glyph name="nine.superior" format="1">
  <advance width="400"/>
  <unicode hex="2079"/>
  <outline>
    <contour>
      <point x="151" y="460" type="curve" smooth="yes" name="hr00"/>
      <point x="176" y="460"/>
      <point x="205" y="473"/>
      <point x="217" y="482" type="curve"/>
      <point x="221" y="488"/>
      <point x="219" y="500"/>
      <point x="212" y="503" type="curve"/>
      <point x="198" y="503" type="line"/>
      <point x="163" y="509"/>
      <point x="141" y="563"/>
      <point x="141" y="605" type="curve" smooth="yes"/>
      <point x="141" y="647"/>
      <point x="158" y="679"/>
      <point x="189" y="679" type="curve" smooth="yes"/>
      <point x="227" y="679"/>
      <point x="243" y="615"/>
      <point x="243" y="549" type="curve" smooth="yes"/>
      <point x="243" y="436"/>
      <point x="179" y="346"/>
      <point x="54" y="314" type="curve"/>
      <point x="44" y="308"/>
      <point x="48" y="286"/>
      <point x="59" y="283" type="curve"/>
      <point x="209" y="294"/>
      <point x="361" y="385"/>
      <point x="361" y="550" type="curve" smooth="yes"/>
      <point x="361" y="641"/>
      <point x="306" y="713"/>
      <point x="192" y="713" type="curve" smooth="yes"/>
      <point x="103" y="713"/>
      <point x="35" y="657"/>
      <point x="35" y="570" type="curve" smooth="yes"/>
      <point x="35" y="502"/>
      <point x="85" y="460"/>
    </contour>
  </outline>
</glyph>
<glyph name="parenright.superior" format="1">
  <advance width="240"/>
  <unicode hex="207E"/>
  <outline>
    <contour>
      <point x="204" y="508" type="curve" smooth="yes" name="hr00"/>
      <point x="204" y="621"/>
      <point x="142" y="719"/>
      <point x="34" y="768" type="curve"/>
      <point x="26" y="767"/>
      <point x="17" y="758"/>
      <point x="20" y="748" type="curve"/>
      <point x="63" y="699"/>
      <point x="107" y="619"/>
      <point x="107" y="508" type="curve" smooth="yes"/>
      <point x="107" y="397"/>
      <point x="63" y="317"/>
      <point x="20" y="268" type="curve"/>
      <point x="17" y="258"/>
      <point x="26" y="249"/>
      <point x="34" y="248" type="curve"/>
      <point x="142" y="297"/>
      <point x="204" y="395"/>
    </contour>
  </outline>
</glyph>
<glyph name="two.inferior" format="1">
  <advance width="400"/>
  <unicode hex="2082"/>
  <outline>
    <contour>
      <point x="210" y="-165" type="line" smooth="yes" name="hr00"/>
      <point x="269" y="-165"/>
      <point x="297" y="-166"/>
      <point x="324" y="-167" type="curve"/>
      <point x="337" y="-147"/>
      <point x="357" y="-93"/>
      <point x="363" y="-60" type="curve"/>
      <point x="358" y="-55"/>
      <point x="348" y="-53"/>
      <point x="340" y="-56" type="curve"/>
      <point x="323" y="-88"/>
      <point x="302" y="-90"/>
      <point x="256" y="-90" type="curve" smooth="yes"/>
      <point x="194" y="-90" type="line" smooth="yes"/>
      <point x="181" y="-90"/>
      <point x="176" y="-82"/>
      <point x="186" y="-73" type="curve" smooth="yes"/>
      <point x="211" y="-52" type="line"/>
      <point x="242" y="-29" type="line" smooth="yes"/>
      <point x="320" y="29"/>
      <point x="340" y="74"/>
      <point x="340" y="116" type="curve" smooth="yes"/>
      <point x="340" y="180"/>
      <point x="293" y="228"/>
      <point x="205" y="228" type="curve" smooth="yes"/>
      <point x="144" y="228"/>
      <point x="84" y="195"/>
      <point x="50" y="128" type="curve"/>
      <point x="50" y="112"/>
      <point x="68" y="104"/>
      <point x="78" y="111" type="curve"/>
      <point x="98" y="147"/>
      <point x="126" y="170"/>
      <point x="159" y="170" type="curve" smooth="yes"/>
      <point x="196" y="170"/>
      <point x="218" y="142"/>
      <point x="218" y="101" type="curve" smooth="yes"/>
      <point x="218" y="40"/>
      <point x="179" y="-19"/>
      <point x="143" y="-57" type="curve" smooth="yes"/>
      <point x="89" y="-112"/>
      <point x="65" y="-130"/>
      <point x="42" y="-148" type="curve"/>
      <point x="40" y="-154"/>
      <point x="42" y="-163"/>
      <point x="49" y="-167" type="curve"/>
      <point x="60" y="-166"/>
      <point x="77" y="-165"/>
      <point x="114" y="-165" type="curve" smooth="yes"/>
    </contour>
  </outline>
</glyph>
<glyph name="seven.inferior" format="1">
  <advance width="400"/>
  <unicode hex="2087"/>
  <outline>
    <contour>
      <point x="144" y="221" type="line" smooth="yes" name="hr00"/>
      <point x="108" y="221"/>
      <point x="83" y="222"/>
      <point x="64" y="223" type="curve"/>
      <point x="60" y="200"/>
      <point x="50" y="152"/>
      <point x="32" y="107" type="curve"/>
      <point x="35" y="99"/>
      <point x="57" y="92"/>
      <point x="62" y="101" type="curve"/>
      <point x="75" y="132"/>
      <point x="95" y="139"/>
      <point x="128" y="139" type="curve" smooth="yes"/>
      <point x="236" y="139" type="line" smooth="yes"/>
      <point x="248" y="139"/>
      <point x="255" y="136"/>
      <point x="255" y="130" type="curve" smooth="yes"/>
      <point x="255" y="118"/>
      <point x="249" y="105"/>
      <point x="236" y="84" type="curve" smooth="yes"/>
      <point x="76" y="-172" type="line"/>
      <point x="83" y="-191"/>
      <point x="100" y="-202"/>
      <point x="117" y="-197" type="curve"/>
      <point x="305" y="113" type="line" smooth="yes"/>
      <point x="333" y="159"/>
      <point x="353" y="185"/>
      <point x="368" y="212" type="curve"/>
      <point x="368" y="218"/>
      <point x="367" y="222"/>
      <point x="363" y="223" type="curve"/>
      <point x="346" y="221"/>
      <point x="309" y="221"/>
      <point x="268" y="221" type="curve" smooth="yes"/>
    </contour>
  </outline>
</glyph>
<glyph name="trademark" format="1">
  <advance width="614"/>
  <unicode hex="2122"/>
  <outline>
    <contour>
      <point x="114" y="524" type="line" smooth="yes" name="hr01"/>
      <point x="114" y="494"/>
      <point x="112" y="480"/>
      <point x="96" y="477" type="curve" smooth="yes"/>
      <point x="80" y="474" type="line"/>
      <point x="77" y="469"/>
      <point x="77" y="456"/>
      <point x="81" y="454" type="curve"/>
      <point x="99" y="455"/>
      <point x="114" y="455"/>
      <point x="139" y="455" type="curve" smooth="yes"/>
      <point x="166" y="455"/>
      <point x="189" y="455"/>
      <point x="211" y="454" type="curve"/>
      <point x="215" y="455"/>
      <point x="216" y="471"/>
      <point x="212" y="474" type="curve"/>
      <point x="196" y="477" type="line" smooth="yes"/>
      <point x="179" y="480"/>
      <point x="178" y="491"/>
      <point x="178" y="521" type="curve" smooth="yes"/>
      <point x="178" y="621" type="line" smooth="yes"/>
      <point x="178" y="632"/>
      <point x="178" y="633"/>
      <point x="186" y="633" type="curve" smooth="yes"/>
      <point x="199" y="633" type="line" smooth="yes"/>
      <point x="225" y="633"/>
      <point x="233" y="620"/>
      <point x="238" y="596" type="curve" smooth="yes"/>
      <point x="240" y="589"/>
      <point x="255" y="589"/>
      <point x="257" y="598" type="curve" name="hr02"/>
      <point x="256" y="621"/>
      <point x="258" y="654"/>
      <point x="262" y="672" type="curve"/>
      <point x="260" y="677"/>
      <point x="250" y="677"/>
      <point x="247" y="672" type="curve"/>
      <point x="235" y="660"/>
      <point x="231" y="660"/>
      <point x="217" y="660" type="curve" smooth="yes" name="hr03"/>
      <point x="90" y="660" type="line" smooth="yes"/>
      <point x="70" y="660"/>
      <point x="68" y="661"/>
      <point x="59" y="672" type="curve"/>
      <point x="57" y="677"/>
      <point x="46" y="677"/>
      <point x="44" y="672" type="curve" smooth="yes" name="hr04"/>
      <point x="40" y="658"/>
      <point x="36" y="638"/>
      <point x="30" y="601" type="curve" name="hr05"/>
      <point x="31" y="593"/>
      <point x="47" y="591"/>
      <point x="50" y="598" type="curve" smooth="yes"/>
      <point x="59" y="623"/>
      <point x="73" y="633"/>
      <point x="95" y="633" type="curve" smooth="yes"/>
      <point x="103" y="633" type="line" smooth="yes"/>
      <point x="114" y="633"/>
      <point x="114" y="632"/>
      <point x="114" y="621" type="curve" smooth="yes"/>
    </contour>
    <contour>
      <point x="519" y="502" type="line" smooth="yes"/>
      <point x="519" y="486"/>
      <point x="519" y="481"/>
      <point x="507" y="478" type="curve" smooth="yes"/>
      <point x="492" y="474" type="line"/>
      <point x="488" y="472"/>
      <point x="489" y="456"/>
      <point x="492" y="454" type="curve"/>
      <point x="507" y="455"/>
      <point x="521" y="455"/>
      <point x="547" y="455" type="curve" smooth="yes"/>
      <point x="580" y="455"/>
      <point x="594" y="455"/>
      <point x="608" y="454" type="curve"/>
      <point x="614" y="456"/>
      <point x="614" y="472"/>
      <point x="608" y="474" type="curve" smooth="yes"/>
      <point x="593" y="478" type="line" smooth="yes"/>
      <point x="583" y="481"/>
      <point x="581" y="484"/>
      <point x="579" y="507" type="curve" smooth="yes"/>
      <point x="577" y="535"/>
      <point x="576" y="587"/>
      <point x="576" y="615" type="curve" smooth="yes" name="hr06"/>
      <point x="576" y="630"/>
      <point x="578" y="636"/>
      <point x="595" y="639" type="curve" smooth="yes"/>
      <point x="605" y="641" type="line"/>
      <point x="610" y="643"/>
      <point x="610" y="660"/>
      <point x="604" y="661" type="curve"/>
      <point x="592" y="660"/>
      <point x="568" y="660"/>
      <point x="554" y="660" type="curve" smooth="yes"/>
      <point x="546" y="660"/>
      <point x="537" y="660"/>
      <point x="506" y="661" type="curve"/>
      <point x="499" y="637"/>
      <point x="492" y="621"/>
      <point x="483" y="602" type="curve" smooth="yes"/>
      <point x="466" y="565" type="line"/>
      <point x="460" y="555"/>
      <point x="456" y="553"/>
      <point x="454" y="553" type="curve" smooth="yes"/>
      <point x="451" y="553"/>
      <point x="447" y="558"/>
      <point x="442" y="568" type="curve" smooth="yes" name="hr07"/>
      <point x="423" y="605" type="line" smooth="yes"/>
      <point x="413" y="624"/>
      <point x="400" y="650"/>
      <point x="400" y="661" type="curve"/>
      <point x="364" y="660"/>
      <point x="351" y="660"/>
      <point x="334" y="660" type="curve" smooth="yes"/>
      <point x="322" y="660"/>
      <point x="311" y="661"/>
      <point x="294" y="661" type="curve"/>
      <point x="286" y="660"/>
      <point x="285" y="644"/>
      <point x="293" y="641" type="curve" smooth="yes"/>
      <point x="301" y="639" type="line"/>
      <point x="317" y="637"/>
      <point x="325" y="630"/>
      <point x="325" y="611" type="curve" smooth="yes"/>
      <point x="325" y="580"/>
      <point x="320" y="536"/>
      <point x="316" y="499" type="curve" smooth="yes"/>
      <point x="315" y="485"/>
      <point x="310" y="478"/>
      <point x="291" y="475" type="curve" smooth="yes"/>
      <point x="285" y="474" type="line"/>
      <point x="283" y="470"/>
      <point x="283" y="456"/>
      <point x="286" y="454" type="curve"/>
      <point x="297" y="455"/>
      <point x="316" y="455"/>
      <point x="333" y="455" type="curve" smooth="yes"/>
      <point x="356" y="455"/>
      <point x="370" y="455"/>
      <point x="380" y="454" type="curve"/>
      <point x="382" y="459"/>
      <point x="382" y="471"/>
      <point x="380" y="474" type="curve"/>
      <point x="371" y="475" type="line" smooth="yes"/>
      <point x="355" y="477"/>
      <point x="352" y="482"/>
      <point x="351" y="504" type="curve" smooth="yes"/>
      <point x="351" y="519"/>
      <point x="350" y="547"/>
      <point x="351" y="565" type="curve" smooth="yes"/>
      <point x="353" y="601"/>
      <point x="354" y="615"/>
      <point x="355" y="617" type="curve"/>
      <point x="357" y="616"/>
      <point x="368" y="593"/>
      <point x="378" y="570" type="curve" smooth="yes"/>
      <point x="401" y="515" type="line" smooth="yes"/>
      <point x="407" y="500"/>
      <point x="420" y="471"/>
      <point x="424" y="455" type="curve"/>
      <point x="433" y="449"/>
      <point x="443" y="452"/>
      <point x="449" y="454" type="curve"/>
      <point x="456" y="476"/>
      <point x="463" y="491"/>
      <point x="477" y="524" type="curve" smooth="yes"/>
      <point x="496" y="568" type="line" smooth="yes"/>
      <point x="505" y="589"/>
      <point x="514" y="611"/>
      <point x="515" y="611" type="curve" smooth="yes"/>
      <point x="517" y="610"/>
      <point x="517" y="606"/>
      <point x="517" y="600" type="curve" smooth="yes"/>
    </contour>
  </outline>
</glyph>
<glyph name="oneeighth" format="1">
  <advance width="840"/>
  <unicode hex="215B"/>
  <outline>
    <contour>
      <point x="632" y="-7" type="curve" smooth="yes" name="hr01"/>
      <point x="743" y="-7"/>
      <point x="794" y="41"/>
      <point x="794" y="99" type="curve" smooth="yes"/>
      <point x="794" y="154"/>
      <point x="756" y="187"/>
      <point x="713" y="210" type="curve"/>
      <point x="739" y="221"/>
      <point x="779" y="249"/>
      <point x="779" y="292" type="curve" smooth="yes" name="hr02"/>
      <point x="779" y="358"/>
      <point x="727" y="393"/>
      <point x="641" y="393" type="curve" smooth="yes"/>
      <point x="541" y="393"/>
      <point x="493" y="343"/>
      <point x="493" y="280" type="curve" smooth="yes"/>
      <point x="493" y="240"/>
      <point x="522" y="208"/>
      <point x="561" y="187" type="curve"/>
      <point x="515" y="175"/>
      <point x="480" y="139"/>
      <point x="480" y="95" type="curve" smooth="yes" name="hr03"/>
      <point x="480" y="22"/>
      <point x="548" y="-7"/>
    </contour>
    <contour>
      <point x="606" y="165" type="curve"/>
      <point x="659" y="147"/>
      <point x="694" y="117"/>
      <point x="694" y="76" type="curve" smooth="yes"/>
      <point x="694" y="47"/>
      <point x="672" y="27"/>
      <point x="640" y="27" type="curve" smooth="yes"/>
      <point x="599" y="27"/>
      <point x="573" y="60"/>
      <point x="573" y="98" type="curve" smooth="yes"/>
      <point x="573" y="122"/>
      <point x="585" y="148"/>
    </contour>
    <contour>
      <point x="667" y="235" type="curve" name="hr04"/>
      <point x="607" y="258"/>
      <point x="585" y="280"/>
      <point x="585" y="307" type="curve" smooth="yes"/>
      <point x="585" y="340"/>
      <point x="609" y="359"/>
      <point x="638" y="359" type="curve" smooth="yes"/>
      <point x="665" y="359"/>
      <point x="695" y="335"/>
      <point x="695" y="294" type="curve" smooth="yes"/>
      <point x="695" y="272"/>
      <point x="683" y="249"/>
    </contour>
    <contour>
      <point x="115" y="344" type="line" smooth="yes"/>
      <point x="115" y="293"/>
      <point x="116" y="280"/>
      <point x="85" y="276" type="curve" smooth="yes"/>
      <point x="55" y="272" type="line"/>
      <point x="49" y="266"/>
      <point x="50" y="249"/>
      <point x="57" y="245" type="curve"/>
      <point x="94" y="246"/>
      <point x="134" y="247"/>
      <point x="171" y="247" type="curve" smooth="yes"/>
      <point x="209" y="247"/>
      <point x="249" y="246"/>
      <point x="286" y="245" type="curve"/>
      <point x="293" y="249"/>
      <point x="294" y="266"/>
      <point x="288" y="272" type="curve"/>
      <point x="258" y="276" type="line" smooth="yes"/>
      <point x="227" y="280"/>
      <point x="228" y="293"/>
      <point x="228" y="344" type="curve" smooth="yes"/>
      <point x="228" y="544" type="line" smooth="yes"/>
      <point x="228" y="577"/>
      <point x="230" y="615"/>
      <point x="231" y="632" type="curve"/>
      <point x="230" y="637"/>
      <point x="226" y="640"/>
      <point x="219" y="640" type="curve"/>
      <point x="180" y="619"/>
      <point x="111" y="598"/>
      <point x="52" y="590" type="curve"/>
      <point x="44" y="585"/>
      <point x="44" y="567"/>
      <point x="52" y="562" type="curve"/>
      <point x="83" y="558" type="line" smooth="yes"/>
      <point x="112" y="554"/>
      <point x="115" y="539"/>
      <point x="115" y="504" type="curve" smooth="yes"/>
    </contour>
    <contour>
      <point x="607" y="630" type="line"/>
      <point x="602" y="647"/>
      <point x="575" y="656"/>
      <point x="560" y="654" type="curve"/>
      <point x="190" y="-16" type="line"/>
      <point x="197" y="-33"/>
      <point x="219" y="-44"/>
      <point x="237" y="-40" type="curve"/>
    </contour>
  </outline>
</glyph>
<glyph name="product" format="1">
  <advance width="807"/>
  <unicode hex="220F"/>
  <outline>
    <contour>
      <point x="498" y="654" type="line" smooth="yes" name="hr00"/>
      <point x="546" y="654"/>
      <point x="548" y="652"/>
      <point x="548" y="622" type="curve" smooth="yes"/>
      <point x="548" y="34" type="line" smooth="yes"/>
      <point x="548" y="-62"/>
      <point x="539" y="-70"/>
      <point x="492" y="-76" type="curve" smooth="yes"/>
      <point x="470" y="-79" type="line"/>
      <point x="463" y="-86"/>
      <point x="464" y="-109"/>
      <point x="472" y="-113" type="curve"/>
      <point x="516" y="-111"/>
      <point x="583" y="-110"/>
      <point x="634" y="-110" type="curve" smooth="yes"/>
      <point x="678" y="-110"/>
      <point x="723" y="-111"/>
      <point x="767" y="-113" type="curve"/>
      <point x="775" y="-109"/>
      <point x="776" y="-91"/>
      <point x="769" y="-79" type="curve"/>
      <point x="747" y="-76" type="line" smooth="yes"/>
      <point x="700" y="-70"/>
      <point x="691" y="-67"/>
      <point x="691" y="34" type="curve" smooth="yes"/>
      <point x="691" y="556" type="line" smooth="yes"/>
      <point x="691" y="657"/>
      <point x="700" y="660"/>
      <point x="747" y="666" type="curve" smooth="yes"/>
      <point x="769" y="669" type="line"/>
      <point x="776" y="676"/>
      <point x="775" y="699"/>
      <point x="767" y="703" type="curve"/>
      <point x="723" y="701"/>
      <point x="678" y="700"/>
      <point x="634" y="700" type="curve" smooth="yes"/>
      <point x="173" y="700" type="line" smooth="yes"/>
      <point x="129" y="700"/>
      <point x="84" y="701"/>
      <point x="40" y="703" type="curve"/>
      <point x="32" y="699"/>
      <point x="31" y="676"/>
      <point x="38" y="669" type="curve"/>
      <point x="60" y="666" type="line" smooth="yes"/>
      <point x="107" y="660"/>
      <point x="116" y="657"/>
      <point x="116" y="556" type="curve" smooth="yes"/>
      <point x="116" y="39" type="line" smooth="yes"/>
      <point x="116" y="-67"/>
      <point x="107" y="-70"/>
      <point x="60" y="-76" type="curve" smooth="yes"/>
      <point x="38" y="-79" type="line"/>
      <point x="31" y="-86"/>
      <point x="32" y="-109"/>
      <point x="40" y="-113" type="curve"/>
      <point x="84" y="-111"/>
      <point x="131" y="-110"/>
      <point x="175" y="-110" type="curve" smooth="yes"/>
      <point x="226" y="-110"/>
      <point x="291" y="-111"/>
      <point x="335" y="-113" type="curve"/>
      <point x="343" y="-109"/>
      <point x="344" y="-86"/>
      <point x="337" y="-79" type="curve"/>
      <point x="314" y="-76" type="line" smooth="yes"/>
      <point x="268" y="-70"/>
      <point x="259" y="-67"/>
      <point x="259" y="39" type="curve" smooth="yes"/>
      <point x="259" y="622" type="line" smooth="yes"/>
      <point x="259" y="652"/>
      <point x="261" y="654"/>
      <point x="309" y="654" type="curve" smooth="yes"/>
    </contour>
  </outline>
</glyph>
<glyph name="Euro.oldstyle" format="1">
  <advance width="581"/>
  <unicode hex="E001"/>
  <outline>
    <contour>
      <point x="63" y="333" type="line" name="hr01"/>
      <point x="51" y="328"/>
      <point x="42" y="293"/>
      <point x="53" y="288" type="curve"/>
      <point x="92" y="288" type="line"/>
      <point x="89" y="277"/>
      <point x="88" y="248"/>
      <point x="90" y="236" type="curve"/>
      <point x="44" y="236" type="line"/>
      <point x="37" y="231"/>
      <point x="23" y="196"/>
      <point x="34" y="191" type="curve"/>
      <point x="94" y="191" type="line"/>
      <point x="113" y="63"/>
      <point x="211" y="-14"/>
      <point x="372" y="-14" type="curve" smooth="yes"/>
      <point x="406" y="-14"/>
      <point x="457" y="-7"/>
      <point x="476" y="-2" type="curve" smooth="yes"/>
      <point x="490" y="1"/>
      <point x="499" y="5"/>
      <point x="510" y="6" type="curve"/>
      <point x="521" y="21"/>
      <point x="537" y="57"/>
      <point x="550" y="114" type="curve"/>
      <point x="546" y="129"/>
      <point x="528" y="132"/>
      <point x="520" y="125" type="curve"/>
      <point x="494" y="86"/>
      <point x="452" y="35"/>
      <point x="384" y="35" type="curve" smooth="yes"/>
      <point x="308" y="35"/>
      <point x="250" y="89"/>
      <point x="235" y="191" type="curve"/>
      <point x="487" y="191" type="line"/>
      <point x="498" y="196"/>
      <point x="503" y="231"/>
      <point x="496" y="236" type="curve"/>
      <point x="230" y="236" type="line"/>
      <point x="229" y="244"/>
      <point x="228" y="281"/>
      <point x="230" y="288" type="curve"/>
      <point x="515" y="288" type="line"/>
      <point x="526" y="293"/>
      <point x="531" y="317"/>
      <point x="524" y="333" type="curve"/>
      <point x="235" y="333" type="line"/>
      <point x="251" y="438"/>
      <point x="315" y="485"/>
      <point x="380" y="485" type="curve" smooth="yes"/>
      <point x="454" y="485"/>
      <point x="491" y="434"/>
      <point x="505" y="389" type="curve"/>
      <point x="512" y="383"/>
      <point x="532" y="384"/>
      <point x="537" y="395" type="curve" name="hr02"/>
      <point x="529" y="445"/>
      <point x="527" y="495"/>
      <point x="525" y="513" type="curve"/>
      <point x="502" y="518" type="line" smooth="yes"/>
      <point x="463" y="527"/>
      <point x="424" y="532"/>
      <point x="387" y="532" type="curve" smooth="yes" name="hr03"/>
      <point x="240" y="532"/>
      <point x="128" y="450"/>
      <point x="99" y="333" type="curve"/>
    </contour>
  </outline>
</glyph>
<glyph name="T_h" format="1">
  <advance width="1104"/>
  <unicode hex="E002"/>
  <outline>
    <contour>
      <point x="265" y="144" type="line" smooth="yes" name="hr01"/>
      <point x="265" y="51"/>
      <point x="259" y="42"/>
      <point x="214" y="37" type="curve" smooth="yes"/>
      <point x="169" y="32" type="line"/>
      <point x="161" y="26"/>
      <point x="161" y="3"/>
      <point x="169" y="-3" type="curve"/>
      <point x="239" y="-1"/>
      <point x="291" y="0"/>
      <point x="339" y="0" type="curve" smooth="yes"/>
      <point x="384" y="0"/>
      <point x="434" y="-1"/>
      <point x="499" y="-3" type="curve"/>
      <point x="506" y="3"/>
      <point x="506" y="26"/>
      <point x="499" y="32" type="curve"/>
      <point x="459" y="37" type="line" smooth="yes"/>
      <point x="414" y="43"/>
      <point x="408" y="51"/>
      <point x="408" y="144" type="curve" smooth="yes"/>
      <point x="408" y="585" type="line" smooth="yes"/>
      <point x="408" y="611"/>
      <point x="411" y="614"/>
      <point x="435" y="614" type="curve" smooth="yes"/>
      <point x="510" y="614" type="line" smooth="yes"/>
      <point x="625" y="614"/>
      <point x="640" y="592"/>
      <point x="640" y="532" type="curve" smooth="yes"/>
      <point x="640" y="116" type="line" smooth="yes"/>
      <point x="640" y="46"/>
      <point x="636" y="38"/>
      <point x="603" y="34" type="curve" smooth="yes"/>
      <point x="585" y="32" type="line"/>
      <point x="577" y="26"/>
      <point x="577" y="3"/>
      <point x="586" y="-3" type="curve"/>
      <point x="620" y="-1"/>
      <point x="662" y="0"/>
      <point x="703" y="0" type="curve" smooth="yes"/>
      <point x="751" y="0"/>
      <point x="783" y="-1"/>
      <point x="814" y="-3" type="curve"/>
      <point x="823" y="3"/>
      <point x="823" y="26"/>
      <point x="815" y="32" type="curve"/>
      <point x="797" y="35" type="line" smooth="yes"/>
      <point x="774" y="39"/>
      <point x="770" y="46"/>
      <point x="770" y="101" type="curve" smooth="yes"/>
      <point x="770" y="280" type="line" smooth="yes"/>
      <point x="770" y="298"/>
      <point x="772" y="310"/>
      <point x="778" y="317" type="curve" smooth="yes"/>
      <point x="786" y="328"/>
      <point x="806" y="341"/>
      <point x="834" y="341" type="curve" smooth="yes"/>
      <point x="883" y="341"/>
      <point x="904" y="309"/>
      <point x="904" y="274" type="curve" smooth="yes"/>
      <point x="904" y="101" type="line" smooth="yes"/>
      <point x="904" y="46"/>
      <point x="900" y="39"/>
      <point x="877" y="35" type="curve" smooth="yes"/>
      <point x="859" y="32" type="line"/>
      <point x="851" y="26"/>
      <point x="851" y="3"/>
      <point x="860" y="-3" type="curve"/>
      <point x="882" y="-1"/>
      <point x="925" y="0"/>
      <point x="968" y="0" type="curve" smooth="yes"/>
      <point x="1016" y="0"/>
      <point x="1058" y="-1"/>
      <point x="1089" y="-3" type="curve"/>
      <point x="1098" y="3"/>
      <point x="1098" y="26"/>
      <point x="1090" y="32" type="curve"/>
      <point x="1074" y="34" type="line" smooth="yes"/>
      <point x="1038" y="38"/>
      <point x="1034" y="46"/>
      <point x="1034" y="116" type="curve" smooth="yes"/>
      <point x="1034" y="288" type="line" smooth="yes"/>
      <point x="1034" y="357"/>
      <point x="992" y="414"/>
      <point x="908" y="414" type="curve" smooth="yes"/>
      <point x="858" y="414"/>
      <point x="815" y="389"/>
      <point x="793" y="374" type="curve" smooth="yes"/>
      <point x="783" y="368"/>
      <point x="778" y="366"/>
      <point x="777" y="366" type="curve" smooth="yes" name="hr02"/>
      <point x="772" y="366"/>
      <point x="770" y="369"/>
      <point x="770" y="378" type="curve" smooth="yes"/>
      <point x="770" y="562" type="line" smooth="yes"/>
      <point x="770" y="625"/>
      <point x="771" y="667"/>
      <point x="773" y="708" type="curve"/>
      <point x="769" y="713"/>
      <point x="762" y="715"/>
      <point x="756" y="715" type="curve"/>
      <point x="640" y="684" type="line"/>
      <point x="640" y="674" type="line"/>
      <point x="636" y="666"/>
      <point x="622" y="660"/>
      <point x="545" y="660" type="curve" smooth="yes"/>
      <point x="153" y="660" type="line" smooth="yes"/>
      <point x="77" y="660"/>
      <point x="74" y="664"/>
      <point x="69" y="681" type="curve"/>
      <point x="65" y="684"/>
      <point x="60" y="685"/>
      <point x="55" y="685" type="curve" smooth="yes"/>
      <point x="50" y="685"/>
      <point x="45" y="683"/>
      <point x="41" y="680" type="curve"/>
      <point x="34" y="641"/>
      <point x="29" y="579"/>
      <point x="8" y="510" type="curve"/>
      <point x="14" y="497"/>
      <point x="33" y="495"/>
      <point x="45" y="501" type="curve"/>
      <point x="75" y="574"/>
      <point x="96" y="614"/>
      <point x="169" y="614" type="curve" smooth="yes"/>
      <point x="241" y="614" type="line" smooth="yes"/>
      <point x="265" y="614"/>
      <point x="265" y="609"/>
      <point x="265" y="585" type="curve" smooth="yes"/>
    </contour>
  </outline>
</glyph>
<glyph name="acute.cap" format="1">
  <advance width="380"/>
  <unicode hex="F6C9"/>
  <outline>
    <contour>
      <point x="117" y="731" type="line" name="hr00"/>
      <point x="114" y="720"/>
      <point x="120" y="709"/>
      <point x="128" y="706" type="curve"/>
      <point x="324" y="770" type="line" smooth="yes"/>
      <point x="344" y="776"/>
      <point x="354" y="787"/>
      <point x="356" y="795" type="curve" smooth="yes"/>
      <point x="358" y="802"/>
      <point x="358" y="817"/>
      <point x="346" y="838" type="curve" smooth="yes"/>
      <point x="334" y="861"/>
      <point x="322" y="869"/>
      <point x="312" y="869" type="curve" smooth="yes"/>
      <point x="305" y="869"/>
      <point x="295" y="864"/>
      <point x="279" y="852" type="curve" smooth="yes"/>
    </contour>
  </outline>
</glyph>
<glyph name="dieresis.cap" format="1">
  <advance width="380"/>
  <unicode hex="F6CB"/>
  <outline>
    <contour>
      <point x="86" y="712" type="curve" smooth="yes" name="hr00"/>
      <point x="121" y="712"/>
      <point x="146" y="737"/>
      <point x="146" y="775" type="curve" smooth="yes"/>
      <point x="146" y="806"/>
      <point x="121" y="834"/>
      <point x="86" y="834" type="curve" smooth="yes"/>
      <point x="51" y="834"/>
      <point x="25" y="807"/>
      <point x="25" y="770" type="curve" smooth="yes"/>
      <point x="26" y="732"/>
      <point x="52" y="712"/>
    </contour>
    <contour>
      <point x="295" y="712" type="curve" smooth="yes"/>
      <point x="330" y="712"/>
      <point x="355" y="737"/>
      <point x="355" y="775" type="curve" smooth="yes"/>
      <point x="355" y="806"/>
      <point x="330" y="834"/>
      <point x="295" y="834" type="curve" smooth="yes"/>
      <point x="260" y="834"/>
      <point x="234" y="807"/>
      <point x="234" y="770" type="curve" smooth="yes"/>
      <point x="235" y="732"/>
      <point x="261" y="712"/>
    </contour>
  </outline>
</glyph>
<glyph name="hyphen.inferior" format="1">
  <advance width="280"/>
  <unicode hex="F6E5"/>
  <outline>
    <contour>
      <point x="245" y="3" type="line" name="hr00"/>
      <point x="259" y="14"/>
      <point x="259" y="59"/>
      <point x="245" y="67" type="curve"/>
      <point x="36" y="67" type="line"/>
      <point x="21" y="59"/>
      <point x="21" y="14"/>
      <point x="36" y="3" type="curve"/>
    </contour>
  </outline>
</glyph>
<glyph name="b.superior" format="1">
  <advance width="431"/>
  <unicode hex="F6EA"/>
  <outline>
    <contour>
      <point x="172" y="676" type="line" smooth="yes" name="hr01"/>
      <point x="172" y="720"/>
      <point x="172" y="749"/>
      <point x="174" y="778" type="curve"/>
      <point x="171" y="781"/>
      <point x="166" y="783"/>
      <point x="161" y="783" type="curve"/>
      <point x="117" y="767"/>
      <point x="71" y="751"/>
      <point x="36" y="744" type="curve"/>
      <point x="31" y="739"/>
      <point x="31" y="724"/>
      <point x="36" y="719" type="curve"/>
      <point x="50" y="712" type="line" smooth="yes"/>
      <point x="65" y="705"/>
      <point x="65" y="695"/>
      <point x="65" y="667" type="curve" smooth="yes"/>
      <point x="65" y="391" type="line" smooth="yes" name="hr02"/>
      <point x="65" y="354"/>
      <point x="64" y="332"/>
      <point x="63" y="323" type="curve"/>
      <point x="68" y="318"/>
      <point x="75" y="316"/>
      <point x="81" y="316" type="curve"/>
      <point x="87" y="321"/>
      <point x="100" y="327"/>
      <point x="105" y="327" type="curve" smooth="yes" name="hr03"/>
      <point x="111" y="327"/>
      <point x="117" y="325"/>
      <point x="129" y="320" type="curve" smooth="yes"/>
      <point x="148" y="313"/>
      <point x="178" y="308"/>
      <point x="209" y="308" type="curve" smooth="yes"/>
      <point x="319" y="308"/>
      <point x="397" y="366"/>
      <point x="397" y="464" type="curve" smooth="yes"/>
      <point x="397" y="546"/>
      <point x="341" y="608"/>
      <point x="253" y="608" type="curve" smooth="yes"/>
      <point x="225" y="608"/>
      <point x="197" y="598"/>
      <point x="178" y="588" type="curve"/>
      <point x="173" y="590"/>
      <point x="172" y="594"/>
      <point x="172" y="606" type="curve" smooth="yes"/>
    </contour>
    <contour>
      <point x="172" y="521" type="line" smooth="yes"/>
      <point x="172" y="543"/>
      <point x="174" y="549"/>
      <point x="179" y="552" type="curve"/>
      <point x="185" y="558"/>
      <point x="194" y="560"/>
      <point x="202" y="560" type="curve" smooth="yes"/>
      <point x="247" y="560"/>
      <point x="284" y="513"/>
      <point x="284" y="446" type="curve" smooth="yes"/>
      <point x="284" y="388"/>
      <point x="267" y="344"/>
      <point x="223" y="344" type="curve" smooth="yes"/>
      <point x="209" y="344"/>
      <point x="195" y="354"/>
      <point x="186" y="367" type="curve" smooth="yes"/>
      <point x="176" y="383"/>
      <point x="172" y="404"/>
      <point x="172" y="422" type="curve" smooth="yes"/>
    </contour>
  </outline>
</glyph>
<glyph name="d.superior" format="1">
  <advance width="432"/>
  <unicode hex="F6EB"/>
  <outline>
    <contour>
      <point x="367" y="676" type="line" smooth="yes" name="hr01"/>
      <point x="367" y="720"/>
      <point x="368" y="750"/>
      <point x="370" y="779" type="curve"/>
      <point x="367" y="782"/>
      <point x="362" y="783"/>
      <point x="357" y="783" type="curve"/>
      <point x="317" y="768"/>
      <point x="270" y="751"/>
      <point x="232" y="744" type="curve"/>
      <point x="226" y="740"/>
      <point x="225" y="723"/>
      <point x="232" y="719" type="curve"/>
      <point x="245" y="714" type="line" smooth="yes"/>
      <point x="260" y="708"/>
      <point x="260" y="700"/>
      <point x="260" y="672" type="curve" smooth="yes"/>
      <point x="260" y="618" type="line" smooth="yes"/>
      <point x="260" y="610"/>
      <point x="257" y="606"/>
      <point x="252" y="605" type="curve"/>
      <point x="244" y="607"/>
      <point x="225" y="608"/>
      <point x="215" y="608" type="curve" smooth="yes"/>
      <point x="114" y="608"/>
      <point x="34" y="544"/>
      <point x="34" y="447" type="curve" smooth="yes"/>
      <point x="34" y="370"/>
      <point x="92" y="308"/>
      <point x="177" y="308" type="curve" smooth="yes"/>
      <point x="192" y="308"/>
      <point x="206" y="312"/>
      <point x="219" y="317" type="curve" smooth="yes"/>
      <point x="232" y="323"/>
      <point x="244" y="331"/>
      <point x="255" y="338" type="curve" smooth="yes" name="hr02"/>
      <point x="258" y="340"/>
      <point x="261" y="338"/>
      <point x="262" y="333" type="curve"/>
      <point x="260" y="311" type="line"/>
      <point x="261" y="305"/>
      <point x="267" y="301"/>
      <point x="273" y="301" type="curve" smooth="yes"/>
      <point x="275" y="301"/>
      <point x="340" y="322"/>
      <point x="418" y="326" type="curve"/>
      <point x="426" y="333"/>
      <point x="426" y="354"/>
      <point x="418" y="360" type="curve"/>
      <point x="405" y="356"/>
      <point x="399" y="355"/>
      <point x="385" y="355" type="curve" smooth="yes"/>
      <point x="371" y="355"/>
      <point x="367" y="371"/>
      <point x="367" y="432" type="curve" smooth="yes"/>
    </contour>
    <contour>
      <point x="260" y="393" type="line" smooth="yes" name="hr03"/>
      <point x="260" y="380"/>
      <point x="259" y="371"/>
      <point x="252" y="365" type="curve"/>
      <point x="245" y="361"/>
      <point x="236" y="358"/>
      <point x="225" y="358" type="curve" smooth="yes"/>
      <point x="172" y="358"/>
      <point x="149" y="419"/>
      <point x="149" y="465" type="curve" smooth="yes"/>
      <point x="149" y="535"/>
      <point x="185" y="572"/>
      <point x="215" y="572" type="curve" smooth="yes"/>
      <point x="234" y="572"/>
      <point x="245" y="561"/>
      <point x="254" y="546" type="curve" smooth="yes"/>
      <point x="257" y="540"/>
      <point x="260" y="533"/>
      <point x="260" y="522" type="curve" smooth="yes"/>
    </contour>
  </outline>
</glyph>
<glyph name="i.superior" format="1">
  <advance width="252"/>
  <unicode hex="F6ED"/>
  <outline>
    <contour>
      <point x="129" y="783" type="curve" smooth="yes" name="hr01"/>
      <point x="94" y="783"/>
      <point x="65" y="755"/>
      <point x="65" y="720" type="curve" smooth="yes"/>
      <point x="65" y="687"/>
      <point x="88" y="658"/>
      <point x="125" y="658" type="curve" smooth="yes"/>
      <point x="156" y="658"/>
      <point x="188" y="680"/>
      <point x="188" y="721" type="curve" smooth="yes"/>
      <point x="188" y="754"/>
      <point x="164" y="783"/>
    </contour>
    <contour>
      <point x="182" y="524" type="line" smooth="yes" name="hr02"/>
      <point x="182" y="554"/>
      <point x="183" y="588"/>
      <point x="184" y="608" type="curve" smooth="yes"/>
      <point x="184" y="616"/>
      <point x="178" y="619"/>
      <point x="171" y="618" type="curve"/>
      <point x="135" y="604"/>
      <point x="88" y="589"/>
      <point x="47" y="579" type="curve"/>
      <point x="41" y="574"/>
      <point x="41" y="559"/>
      <point x="47" y="554" type="curve"/>
      <point x="58" y="548" type="line" smooth="yes"/>
      <point x="75" y="539"/>
      <point x="75" y="530"/>
      <point x="75" y="506" type="curve" smooth="yes"/>
      <point x="75" y="401" type="line" smooth="yes"/>
      <point x="75" y="355"/>
      <point x="72" y="348"/>
      <point x="46" y="344" type="curve" smooth="yes"/>
      <point x="32" y="342" type="line"/>
      <point x="23" y="338"/>
      <point x="25" y="316"/>
      <point x="33" y="313" type="curve"/>
      <point x="63" y="314"/>
      <point x="94" y="315"/>
      <point x="125" y="315" type="curve" smooth="yes"/>
      <point x="154" y="315"/>
      <point x="185" y="314"/>
      <point x="224" y="313" type="curve"/>
      <point x="232" y="316"/>
      <point x="234" y="337"/>
      <point x="225" y="342" type="curve"/>
      <point x="211" y="344" type="line" smooth="yes"/>
      <point x="185" y="348"/>
      <point x="182" y="355"/>
      <point x="182" y="401" type="curve" smooth="yes"/>
    </contour>
  </outline>
</glyph>
<glyph name="l.superior" format="1">
  <advance width="247"/>
  <unicode hex="F6EE"/>
  <outline>
    <contour>
      <point x="70" y="400" type="line" smooth="yes" name="hr00"/>
      <point x="70" y="355"/>
      <point x="67" y="347"/>
      <point x="41" y="344" type="curve" smooth="yes"/>
      <point x="25" y="342" type="line"/>
      <point x="15" y="337"/>
      <point x="17" y="318"/>
      <point x="26" y="313" type="curve"/>
      <point x="58" y="314"/>
      <point x="86" y="315"/>
      <point x="118" y="315" type="curve" smooth="yes"/>
      <point x="147" y="315"/>
      <point x="183" y="314"/>
      <point x="222" y="313" type="curve"/>
      <point x="231" y="316"/>
      <point x="232" y="337"/>
      <point x="223" y="342" type="curve"/>
      <point x="206" y="344" type="line" smooth="yes"/>
      <point x="180" y="347"/>
      <point x="177" y="355"/>
      <point x="177" y="400" type="curve" smooth="yes"/>
      <point x="177" y="673" type="line" smooth="yes"/>
      <point x="177" y="704"/>
      <point x="177" y="749"/>
      <point x="179" y="775" type="curve"/>
      <point x="177" y="781"/>
      <point x="171" y="784"/>
      <point x="165" y="783" type="curve"/>
      <point x="132" y="772"/>
      <point x="82" y="756"/>
      <point x="42" y="749" type="curve"/>
      <point x="35" y="745"/>
      <point x="35" y="729"/>
      <point x="42" y="724" type="curve" smooth="yes"/>
      <point x="50" y="719" type="line" smooth="yes"/>
      <point x="69" y="707"/>
      <point x="70" y="703"/>
      <point x="70" y="659" type="curve" smooth="yes"/>
    </contour>
  </outline>
</glyph>
<glyph name="six.oldstyle" format="1">
  <advance width="523"/>
  <unicode hex="F736"/>
  <outline>
    <contour>
      <point x="514" y="639" type="curve" name="hr00"/>
      <point x="290" y="623"/>
      <point x="45" y="462"/>
      <point x="45" y="210" type="curve" smooth="yes"/>
      <point x="45" y="73"/>
      <point x="123" y="-14"/>
      <point x="261" y="-14" type="curve" smooth="yes"/>
      <point x="381" y="-14"/>
      <point x="487" y="63"/>
      <point x="487" y="196" type="curve" smooth="yes"/>
      <point x="487" y="293"/>
      <point x="426" y="359"/>
      <point x="344" y="359" type="curve" smooth="yes"/>
      <point x="312" y="359"/>
      <point x="278" y="350"/>
      <point x="239" y="325" type="curve"/>
      <point x="232" y="317"/>
      <point x="236" y="302"/>
      <point x="244" y="297" type="curve"/>
      <point x="249" y="298"/>
      <point x="252" y="299"/>
      <point x="258" y="299" type="curve" smooth="yes"/>
      <point x="323" y="299"/>
      <point x="356" y="219"/>
      <point x="356" y="137" type="curve" smooth="yes"/>
      <point x="356" y="58"/>
      <point x="321" y="32"/>
      <point x="283" y="32" type="curve" smooth="yes"/>
      <point x="229" y="32"/>
      <point x="186" y="96"/>
      <point x="186" y="198" type="curve" smooth="yes"/>
      <point x="186" y="317"/>
      <point x="230" y="420"/>
      <point x="320" y="499" type="curve" smooth="yes"/>
      <point x="388" y="560"/>
      <point x="458" y="587"/>
      <point x="518" y="612" type="curve"/>
      <point x="522" y="618"/>
      <point x="521" y="635"/>
    </contour>
  </outline>
</glyph>
<glyph name="cent.oldstyle" format="1">
  <advance width="434"/>
  <unicode hex="F7A2"/>
  <outline>
    <contour>
      <point x="228" y="93" type="line" name="hr00"/>
      <point x="190" y="114"/>
      <point x="168" y="159"/>
      <point x="168" y="215" type="curve" smooth="yes"/>
      <point x="168" y="272"/>
      <point x="191" y="353"/>
      <point x="264" y="354" type="curve"/>
    </contour>
    <contour>
      <point x="306" y="343" type="line"/>
      <point x="328" y="331"/>
      <point x="346" y="311"/>
      <point x="366" y="291" type="curve" smooth="yes"/>
      <point x="368" y="289"/>
      <point x="373" y="287"/>
      <point x="377" y="287" type="curve" smooth="yes"/>
      <point x="389" y="287"/>
      <point x="403" y="306"/>
      <point x="403" y="330" type="curve" smooth="yes"/>
      <point x="403" y="354"/>
      <point x="390" y="373"/>
      <point x="382" y="380" type="curve"/>
      <point x="364" y="386"/>
      <point x="337" y="390"/>
      <point x="313" y="392" type="curve"/>
      <point x="322" y="459" type="line"/>
      <point x="310" y="466"/>
      <point x="288" y="466"/>
      <point x="279" y="459" type="curve"/>
      <point x="270" y="393" type="line"/>
      <point x="151" y="390"/>
      <point x="45" y="324"/>
      <point x="45" y="194" type="curve" smooth="yes"/>
      <point x="45" y="99"/>
      <point x="113" y="30"/>
      <point x="218" y="20" type="curve"/>
      <point x="206" y="-65" type="line"/>
      <point x="214" y="-75"/>
      <point x="239" y="-75"/>
      <point x="249" y="-65" type="curve"/>
      <point x="261" y="19" type="line"/>
      <point x="349" y="23"/>
      <point x="390" y="68"/>
      <point x="414" y="121" type="curve"/>
      <point x="414" y="131"/>
      <point x="402" y="137"/>
      <point x="391" y="137" type="curve"/>
      <point x="373" y="102"/>
      <point x="332" y="76"/>
      <point x="291" y="76" type="curve" smooth="yes"/>
      <point x="283" y="76"/>
      <point x="275" y="77"/>
      <point x="269" y="78" type="curve"/>
    </contour>
  </outline>
</glyph>
<glyph name="Euro.taboldstyle" format="1">
  <advance width="510"/>
  <outline>
    <contour>
      <point x="49" y="333" type="line" name="hr01"/>
      <point x="37" y="328"/>
      <point x="28" y="293"/>
      <point x="39" y="288" type="curve"/>
      <point x="76" y="288" type="line"/>
      <point x="74" y="276"/>
      <point x="73" y="248"/>
      <point x="74" y="236" type="curve"/>
      <point x="34" y="236" type="line"/>
      <point x="27" y="231"/>
      <point x="13" y="196"/>
      <point x="24" y="191" type="curve"/>
      <point x="78" y="191" type="line"/>
      <point x="97" y="66"/>
      <point x="181" y="-14"/>
      <point x="333" y="-14" type="curve" smooth="yes"/>
      <point x="367" y="-14"/>
      <point x="407" y="-8"/>
      <point x="426" y="-3" type="curve" smooth="yes"/>
      <point x="440" y="0"/>
      <point x="449" y="4"/>
      <point x="460" y="5" type="curve"/>
      <point x="471" y="20"/>
      <point x="489" y="63"/>
      <point x="500" y="113" type="curve"/>
      <point x="496" y="128"/>
      <point x="478" y="131"/>
      <point x="470" y="124" type="curve"/>
      <point x="444" y="85"/>
      <point x="410" y="35"/>
      <point x="345" y="35" type="curve" smooth="yes"/>
      <point x="276" y="35"/>
      <point x="229" y="89"/>
      <point x="218" y="191" type="curve"/>
      <point x="431" y="191" type="line"/>
      <point x="442" y="196"/>
      <point x="447" y="231"/>
      <point x="440" y="236" type="curve"/>
      <point x="214" y="236" type="line"/>
      <point x="213" y="244"/>
      <point x="212" y="281"/>
      <point x="214" y="288" type="curve"/>
      <point x="459" y="288" type="line"/>
      <point x="470" y="293"/>
      <point x="475" y="317"/>
      <point x="468" y="333" type="curve"/>
      <point x="218" y="333" type="line"/>
      <point x="230" y="438"/>
      <point x="281" y="485"/>
      <point x="341" y="485" type="curve" smooth="yes"/>
      <point x="409" y="485"/>
      <point x="441" y="435"/>
      <point x="455" y="390" type="curve"/>
      <point x="462" y="384"/>
      <point x="482" y="385"/>
      <point x="487" y="396" type="curve" name="hr02"/>
      <point x="479" y="446"/>
      <point x="477" y="496"/>
      <point x="475" y="514" type="curve"/>
      <point x="452" y="519" type="line" smooth="yes"/>
      <point x="423" y="526"/>
      <point x="385" y="532"/>
      <point x="348" y="532" type="curve" smooth="yes" name="hr03"/>
      <point x="220" y="532"/>
      <point x="116" y="452"/>
      <point x="83" y="333" type="curve"/>
    </contour>
  </outline>
</glyph>
<glyph name="bracketleft.cap" format="1">
  <advance width="340"/>
  <outline>
    <contour>
      <point x="121" y="-92" type="line" name="hr00"/>
      <point x="144" y="-93"/>
      <point x="166" y="-93"/>
      <point x="199" y="-93" type="curve" smooth="yes"/>
      <point x="254" y="-93"/>
      <point x="294" y="-91"/>
      <point x="309" y="-89" type="curve"/>
      <point x="317" y="-85"/>
      <point x="317" y="-62"/>
      <point x="310" y="-58" type="curve"/>
      <point x="241" y="-47" type="line" smooth="yes"/>
      <point x="209" y="-42"/>
      <point x="203" y="-27"/>
      <point x="203" y="113" type="curve" smooth="yes"/>
      <point x="203" y="543" type="line" smooth="yes"/>
      <point x="203" y="683"/>
      <point x="209" y="698"/>
      <point x="241" y="703" type="curve" smooth="yes"/>
      <point x="310" y="714" type="line"/>
      <point x="317" y="718"/>
      <point x="317" y="741"/>
      <point x="309" y="745" type="curve"/>
      <point x="294" y="747"/>
      <point x="254" y="749"/>
      <point x="199" y="749" type="curve" smooth="yes"/>
      <point x="166" y="749"/>
      <point x="144" y="749"/>
      <point x="121" y="748" type="curve"/>
    </contour>
  </outline>
</glyph>
<glyph name="breve.cap" format="1">
  <advance width="380"/>
  <outline>
    <contour>
      <point x="190" y="720" type="curve" smooth="yes" name="hr00"/>
      <point x="281" y="720"/>
      <point x="329" y="773"/>
      <point x="324" y="863" type="curve"/>
      <point x="316" y="867"/>
      <point x="302" y="867"/>
      <point x="295" y="863" type="curve"/>
      <point x="284" y="819"/>
      <point x="238" y="791"/>
      <point x="190" y="791" type="curve" smooth="yes"/>
      <point x="142" y="791"/>
      <point x="96" y="819"/>
      <point x="85" y="863" type="curve"/>
      <point x="78" y="867"/>
      <point x="64" y="867"/>
      <point x="56" y="863" type="curve"/>
      <point x="51" y="773"/>
      <point x="99" y="720"/>
    </contour>
  </outline>
</glyph>
<glyph name="cent.taboldstyle" format="1">
  <advance width="510"/>
  <outline>
    <contour>
      <point x="266" y="93" type="line" name="hr00"/>
      <point x="228" y="114"/>
      <point x="206" y="159"/>
      <point x="206" y="215" type="curve" smooth="yes"/>
      <point x="206" y="272"/>
      <point x="229" y="353"/>
      <point x="302" y="354" type="curve"/>
    </contour>
    <contour>
      <point x="344" y="343" type="line"/>
      <point x="366" y="331"/>
      <point x="384" y="311"/>
      <point x="404" y="291" type="curve" smooth="yes"/>
      <point x="406" y="289"/>
      <point x="411" y="287"/>
      <point x="415" y="287" type="curve" smooth="yes"/>
      <point x="427" y="287"/>
      <point x="441" y="306"/>
      <point x="441" y="330" type="curve" smooth="yes"/>
      <point x="441" y="354"/>
      <point x="428" y="373"/>
      <point x="420" y="380" type="curve"/>
      <point x="402" y="386"/>
      <point x="375" y="390"/>
      <point x="351" y="392" type="curve"/>
      <point x="360" y="459" type="line"/>
      <point x="348" y="466"/>
      <point x="326" y="466"/>
      <point x="317" y="459" type="curve"/>
      <point x="308" y="393" type="line"/>
      <point x="189" y="390"/>
      <point x="83" y="324"/>
      <point x="83" y="194" type="curve" smooth="yes"/>
      <point x="83" y="99"/>
      <point x="151" y="30"/>
      <point x="256" y="20" type="curve"/>
      <point x="244" y="-65" type="line"/>
      <point x="252" y="-75"/>
      <point x="277" y="-75"/>
      <point x="287" y="-65" type="curve"/>
      <point x="299" y="19" type="line"/>
      <point x="387" y="23"/>
      <point x="428" y="68"/>
      <point x="452" y="121" type="curve"/>
      <point x="452" y="131"/>
      <point x="440" y="137"/>
      <point x="429" y="137" type="curve"/>
      <point x="411" y="102"/>
      <point x="370" y="76"/>
      <point x="329" y="76" type="curve" smooth="yes"/>
      <point x="321" y="76"/>
      <point x="313" y="77"/>
      <point x="307" y="78" type="curve"/>
    </contour>
  </outline>
</glyph>
<glyph name="comma.denominator" format="1">
  <advance width="200"/>
  <outline>
    <contour>
      <point x="177" y="32" type="curve" smooth="yes" name="hr00"/>
      <point x="177" y="111"/>
      <point x="126" y="141"/>
      <point x="89" y="141" type="curve" smooth="yes"/>
      <point x="55" y="141"/>
      <point x="28" y="117"/>
      <point x="28" y="87" type="curve" smooth="yes"/>
      <point x="28" y="67"/>
      <point x="40" y="52"/>
      <point x="54" y="48" type="curve" smooth="yes"/>
      <point x="75" y="41"/>
      <point x="103" y="30"/>
      <point x="103" y="-7" type="curve" smooth="yes"/>
      <point x="103" y="-49"/>
      <point x="60" y="-78"/>
      <point x="28" y="-90" type="curve"/>
      <point x="18" y="-96"/>
      <point x="22" y="-115"/>
      <point x="37" y="-117" type="curve"/>
      <point x="110" y="-100"/>
      <point x="177" y="-52"/>
    </contour>
  </outline>
</glyph>
<glyph name="comma.numerator" format="1">
  <advance width="200"/>
  <outline>
    <contour>
      <point x="177" y="279" type="curve" smooth="yes" name="hr00"/>
      <point x="177" y="358"/>
      <point x="126" y="388"/>
      <point x="89" y="388" type="curve" smooth="yes"/>
      <point x="55" y="388"/>
      <point x="28" y="364"/>
      <point x="28" y="334" type="curve" smooth="yes"/>
      <point x="28" y="314"/>
      <point x="40" y="299"/>
      <point x="54" y="295" type="curve" smooth="yes"/>
      <point x="75" y="288"/>
      <point x="103" y="277"/>
      <point x="103" y="240" type="curve" smooth="yes"/>
      <point x="103" y="198"/>
      <point x="60" y="169"/>
      <point x="28" y="157" type="curve"/>
      <point x="18" y="151"/>
      <point x="22" y="132"/>
      <point x="37" y="130" type="curve"/>
      <point x="110" y="147"/>
      <point x="177" y="195"/>
    </contour>
  </outline>
</glyph>
<glyph name="dotaccent.cap" format="1">
  <advance width="380"/>
  <outline>
    <contour>
      <point x="191" y="712" type="curve" smooth="yes" name="hr00"/>
      <point x="227" y="712"/>
      <point x="254" y="738"/>
      <point x="254" y="779" type="curve" smooth="yes"/>
      <point x="254" y="811"/>
      <point x="227" y="840"/>
      <point x="191" y="840" type="curve" smooth="yes"/>
      <point x="154" y="840"/>
      <point x="125" y="812"/>
      <point x="125" y="773" type="curve" smooth="yes"/>
      <point x="126" y="733"/>
      <point x="155" y="712"/>
    </contour>
  </outline>
</glyph>
<glyph name="emdash.alt" format="1">
  <advance width="750"/>
  <outline>
    <contour>
      <point x="0" y="242" type="line" name="hr00"/>
      <point x="0" y="173" type="line"/>
      <point x="750" y="173" type="line"/>
      <point x="750" y="242" type="line"/>
    </contour>
  </outline>
</glyph>
<glyph name="five.taboldstyle" format="1">
  <advance width="510"/>
  <outline>
    <contour>
      <point x="331" y="322" type="line" smooth="yes" name="hr01"/>
      <point x="386" y="328"/>
      <point x="408" y="406"/>
      <point x="416" y="431" type="curve" name="hr02"/>
      <point x="417" y="438"/>
      <point x="410" y="444"/>
      <point x="400" y="444" type="curve"/>
      <point x="388" y="436"/>
      <point x="368" y="432"/>
      <point x="345" y="430" type="curve" smooth="yes" name="hr03"/>
      <point x="241" y="419" type="line" smooth="yes"/>
      <point x="215" y="416"/>
      <point x="190" y="412"/>
      <point x="176" y="407" type="curve" smooth="yes"/>
      <point x="141" y="395"/>
      <point x="87" y="282"/>
      <point x="87" y="226" type="curve" smooth="yes"/>
      <point x="87" y="172"/>
      <point x="139" y="146"/>
      <point x="161" y="134" type="curve" smooth="yes"/>
      <point x="213" y="107"/>
      <point x="264" y="67"/>
      <point x="264" y="6" type="curve" smooth="yes"/>
      <point x="264" y="-94"/>
      <point x="147" y="-144"/>
      <point x="90" y="-163" type="curve"/>
      <point x="81" y="-173"/>
      <point x="85" y="-195"/>
      <point x="102" y="-198" type="curve"/>
      <point x="210" y="-176"/>
      <point x="380" y="-102"/>
      <point x="380" y="49" type="curve" smooth="yes"/>
      <point x="380" y="127"/>
      <point x="339" y="191"/>
      <point x="222" y="241" type="curve" smooth="yes" name="hr04"/>
      <point x="164" y="266"/>
      <point x="152" y="279"/>
      <point x="152" y="288" type="curve" smooth="yes"/>
      <point x="152" y="300"/>
      <point x="160" y="304"/>
      <point x="196" y="308" type="curve" smooth="yes"/>
    </contour>
  </outline>
</glyph>
<glyph name="four.denominator" format="1">
  <advance width="400"/>
  <outline>
    <contour>
      <point x="200" y="76" type="line" smooth="yes" name="hr00"/>
      <point x="200" y="34"/>
      <point x="200" y="28"/>
      <point x="159" y="26" type="curve" smooth="yes"/>
      <point x="139" y="25" type="line"/>
      <point x="133" y="20"/>
      <point x="133" y="2"/>
      <point x="141" y="-2" type="curve"/>
      <point x="170" y="-1"/>
      <point x="209" y="0"/>
      <point x="247" y="0" type="curve" smooth="yes"/>
      <point x="285" y="0"/>
      <point x="320" y="-1"/>
      <point x="359" y="-2" type="curve"/>
      <point x="367" y="3"/>
      <point x="367" y="20"/>
      <point x="360" y="25" type="curve"/>
      <point x="347" y="26" type="line" smooth="yes"/>
      <point x="313" y="29"/>
      <point x="311" y="37"/>
      <point x="311" y="76" type="curve" smooth="yes"/>
      <point x="311" y="90" type="line" smooth="yes"/>
      <point x="311" y="107"/>
      <point x="312" y="108"/>
      <point x="326" y="108" type="curve" smooth="yes"/>
      <point x="370" y="108" type="line"/>
      <point x="381" y="114"/>
      <point x="381" y="142"/>
      <point x="370" y="146" type="curve"/>
      <point x="326" y="146" type="line" smooth="yes"/>
      <point x="312" y="146"/>
      <point x="311" y="148"/>
      <point x="311" y="163" type="curve" smooth="yes"/>
      <point x="311" y="268" type="line" smooth="yes"/>
      <point x="311" y="274"/>
      <point x="308" y="278"/>
      <point x="300" y="278" type="curve" smooth="yes"/>
      <point x="289" y="278"/>
      <point x="238" y="266"/>
      <point x="218" y="260" type="curve" smooth="yes"/>
      <point x="208" y="257"/>
      <point x="200" y="252"/>
      <point x="200" y="238" type="curve" smooth="yes"/>
      <point x="200" y="163" type="line" smooth="yes"/>
      <point x="200" y="148"/>
      <point x="199" y="146"/>
      <point x="185" y="146" type="curve" smooth="yes"/>
      <point x="112" y="146" type="line" smooth="yes"/>
      <point x="94" y="146"/>
      <point x="92" y="151"/>
      <point x="97" y="157" type="curve" smooth="yes"/>
      <point x="293" y="404" type="line" smooth="yes"/>
      <point x="303" y="417"/>
      <point x="301" y="426"/>
      <point x="290" y="426" type="curve" smooth="yes"/>
      <point x="261" y="426" type="line" smooth="yes"/>
      <point x="252" y="426"/>
      <point x="247" y="421"/>
      <point x="241" y="414" type="curve" smooth="yes"/>
      <point x="25" y="131" type="line"/>
      <point x="23" y="122"/>
      <point x="25" y="112"/>
      <point x="32" y="108" type="curve"/>
      <point x="185" y="108" type="line" smooth="yes"/>
      <point x="199" y="108"/>
      <point x="200" y="107"/>
      <point x="200" y="90" type="curve" smooth="yes"/>
    </contour>
  </outline>
</glyph>
<glyph name="four.numerator" format="1">
  <advance width="400"/>
  <outline>
    <contour>
      <point x="200" y="323" type="line" smooth="yes" name="hr00"/>
      <point x="200" y="281"/>
      <point x="200" y="275"/>
      <point x="159" y="273" type="curve" smooth="yes"/>
      <point x="139" y="272" type="line"/>
      <point x="133" y="267"/>
      <point x="133" y="249"/>
      <point x="141" y="245" type="curve"/>
      <point x="170" y="246"/>
      <point x="209" y="247"/>
      <point x="247" y="247" type="curve" smooth="yes"/>
      <point x="285" y="247"/>
      <point x="320" y="246"/>
      <point x="359" y="245" type="curve"/>
      <point x="367" y="250"/>
      <point x="367" y="267"/>
      <point x="360" y="272" type="curve"/>
      <point x="347" y="273" type="line" smooth="yes"/>
      <point x="313" y="276"/>
      <point x="311" y="284"/>
      <point x="311" y="323" type="curve" smooth="yes"/>
      <point x="311" y="337" type="line" smooth="yes"/>
      <point x="311" y="354"/>
      <point x="312" y="355"/>
      <point x="326" y="355" type="curve" smooth="yes"/>
      <point x="370" y="355" type="line"/>
      <point x="381" y="361"/>
      <point x="381" y="389"/>
      <point x="370" y="393" type="curve"/>
      <point x="326" y="393" type="line" smooth="yes"/>
      <point x="312" y="393"/>
      <point x="311" y="395"/>
      <point x="311" y="410" type="curve" smooth="yes"/>
      <point x="311" y="515" type="line" smooth="yes"/>
      <point x="311" y="521"/>
      <point x="308" y="525"/>
      <point x="300" y="525" type="curve" smooth="yes"/>
      <point x="289" y="525"/>
      <point x="238" y="513"/>
      <point x="218" y="507" type="curve" smooth="yes"/>
      <point x="208" y="504"/>
      <point x="200" y="499"/>
      <point x="200" y="485" type="curve" smooth="yes"/>
      <point x="200" y="410" type="line" smooth="yes"/>
      <point x="200" y="395"/>
      <point x="199" y="393"/>
      <point x="185" y="393" type="curve" smooth="yes"/>
      <point x="112" y="393" type="line" smooth="yes"/>
      <point x="94" y="393"/>
      <point x="92" y="398"/>
      <point x="97" y="404" type="curve" smooth="yes"/>
      <point x="293" y="651" type="line" smooth="yes"/>
      <point x="303" y="664"/>
      <point x="301" y="673"/>
      <point x="290" y="673" type="curve" smooth="yes"/>
      <point x="261" y="673" type="line" smooth="yes"/>
      <point x="252" y="673"/>
      <point x="247" y="668"/>
      <point x="241" y="661" type="curve" smooth="yes"/>
      <point x="25" y="378" type="line"/>
      <point x="23" y="369"/>
      <point x="25" y="359"/>
      <point x="32" y="355" type="curve"/>
      <point x="185" y="355" type="line" smooth="yes"/>
      <point x="199" y="355"/>
      <point x="200" y="354"/>
      <point x="200" y="337" type="curve" smooth="yes"/>
    </contour>
  </outline>
</glyph>
<glyph name="four.taboldstyle" format="1">
  <advance width="510"/>
  <outline>
    <contour>
      <point x="489" y="13" type="line" name="hr00"/>
      <point x="500" y="18"/>
      <point x="504" y="38"/>
      <point x="504" y="49" type="curve" smooth="yes"/>
      <point x="504" y="59"/>
      <point x="500" y="68"/>
      <point x="493" y="73" type="curve"/>
      <point x="409" y="73" type="line" smooth="yes"/>
      <point x="386" y="73"/>
      <point x="386" y="74"/>
      <point x="386" y="101" type="curve" smooth="yes"/>
      <point x="386" y="423" type="line"/>
      <point x="380" y="434"/>
      <point x="368" y="442"/>
      <point x="358" y="442" type="curve" smooth="yes"/>
      <point x="349" y="442"/>
      <point x="341" y="439"/>
      <point x="336" y="438" type="curve"/>
      <point x="315" y="414"/>
      <point x="106" y="153"/>
      <point x="73" y="115" type="curve" smooth="yes"/>
      <point x="12" y="44" type="line"/>
      <point x="10" y="32"/>
      <point x="14" y="19"/>
      <point x="22" y="13" type="curve"/>
      <point x="245" y="13" type="line" smooth="yes"/>
      <point x="267" y="13"/>
      <point x="267" y="10"/>
      <point x="267" y="-18" type="curve" smooth="yes"/>
      <point x="267" y="-177" type="line"/>
      <point x="272" y="-183"/>
      <point x="296" y="-186"/>
      <point x="323" y="-186" type="curve" smooth="yes"/>
      <point x="353" y="-186"/>
      <point x="382" y="-183"/>
      <point x="386" y="-177" type="curve"/>
      <point x="386" y="-18" type="line" smooth="yes"/>
      <point x="386" y="10"/>
      <point x="386" y="13"/>
      <point x="409" y="13" type="curve" smooth="yes"/>
    </contour>
    <contour>
      <point x="133" y="73" type="line" smooth="yes"/>
      <point x="119" y="73"/>
      <point x="115" y="83"/>
      <point x="121" y="91" type="curve" smooth="yes"/>
      <point x="265" y="273" type="line"/>
      <point x="267" y="273" type="line"/>
      <point x="267" y="101" type="line" smooth="yes"/>
      <point x="267" y="74"/>
      <point x="267" y="73"/>
      <point x="245" y="73" type="curve" smooth="yes"/>
    </contour>
  </outline>
</glyph>
<glyph name="guilsinglleft.cap" format="1">
  <advance width="255"/>
  <outline>
    <contour>
      <point x="219" y="494" type="line" name="hr00"/>
      <point x="215" y="503"/>
      <point x="205" y="507"/>
      <point x="197" y="509" type="curve"/>
      <point x="148" y="451"/>
      <point x="98" y="394"/>
      <point x="45" y="337" type="curve" smooth="yes"/>
      <point x="34" y="324"/>
      <point x="34" y="314"/>
      <point x="45" y="301" type="curve" smooth="yes"/>
      <point x="98" y="243"/>
      <point x="148" y="185"/>
      <point x="197" y="127" type="curve"/>
      <point x="207" y="126"/>
      <point x="215" y="134"/>
      <point x="219" y="142" type="curve"/>
      <point x="143" y="305" type="line" smooth="yes"/>
      <point x="139" y="314"/>
      <point x="138" y="323"/>
      <point x="143" y="334" type="curve" smooth="yes"/>
    </contour>
  </outline>
</glyph>
<glyph name="guilsinglright.cap" format="1">
  <advance width="255"/>
  <outline>
    <contour>
      <point x="112" y="334" type="line" smooth="yes" name="hr00"/>
      <point x="117" y="323"/>
      <point x="116" y="314"/>
      <point x="112" y="305" type="curve" smooth="yes"/>
      <point x="36" y="142" type="line"/>
      <point x="40" y="134"/>
      <point x="48" y="126"/>
      <point x="58" y="127" type="curve"/>
      <point x="107" y="185"/>
      <point x="157" y="243"/>
      <point x="210" y="301" type="curve" smooth="yes"/>
      <point x="221" y="314"/>
      <point x="221" y="324"/>
      <point x="210" y="337" type="curve" smooth="yes"/>
      <point x="157" y="394"/>
      <point x="107" y="451"/>
      <point x="58" y="509" type="curve"/>
      <point x="50" y="507"/>
      <point x="40" y="503"/>
      <point x="36" y="494" type="curve"/>
    </contour>
  </outline>
</glyph>
<glyph name="numbersign.taboldstyle" format="1">
  <advance width="510"/>
  <outline>
    <contour>
      <point x="320" y="326" type="line" name="hr00"/>
      <point x="281" y="179" type="line"/>
      <point x="184" y="179" type="line"/>
      <point x="224" y="326" type="line"/>
    </contour>
    <contour>
      <point x="482" y="326" type="line"/>
      <point x="491" y="391" type="line"/>
      <point x="401" y="391" type="line"/>
      <point x="445" y="554" type="line"/>
      <point x="380" y="554" type="line"/>
      <point x="337" y="391" type="line"/>
      <point x="242" y="391" type="line"/>
      <point x="286" y="554" type="line"/>
      <point x="222" y="554" type="line"/>
      <point x="179" y="391" type="line"/>
      <point x="75" y="391" type="line"/>
      <point x="63" y="326" type="line"/>
      <point x="162" y="326" type="line"/>
      <point x="123" y="179" type="line"/>
      <point x="19" y="179" type="line"/>
      <point x="8" y="115" type="line"/>
      <point x="106" y="115" type="line"/>
      <point x="58" y="-67" type="line"/>
      <point x="117" y="-67" type="line"/>
      <point x="167" y="115" type="line"/>
      <point x="264" y="115" type="line"/>
      <point x="216" y="-67" type="line"/>
      <point x="276" y="-67" type="line"/>
      <point x="326" y="115" type="line"/>
      <point x="420" y="115" type="line"/>
      <point x="431" y="179" type="line"/>
      <point x="343" y="179" type="line"/>
      <point x="383" y="326" type="line"/>
    </contour>
  </outline>
</glyph>
<glyph name="one.taboldstyle" format="1">
  <advance width="510"/>
  <outline>
    <contour>
      <point x="189" y="129" type="line" smooth="yes" name="hr00"/>
      <point x="189" y="54"/>
      <point x="180" y="40"/>
      <point x="123" y="34" type="curve" smooth="yes"/>
      <point x="82" y="30" type="line"/>
      <point x="74" y="23"/>
      <point x="74" y="1"/>
      <point x="84" y="-3" type="curve"/>
      <point x="121" y="-1"/>
      <point x="183" y="0"/>
      <point x="253" y="0" type="curve" smooth="yes"/>
      <point x="322" y="0"/>
      <point x="387" y="-1"/>
      <point x="424" y="-3" type="curve"/>
      <point x="434" y="1"/>
      <point x="434" y="23"/>
      <point x="426" y="30" type="curve"/>
      <point x="385" y="35" type="line" smooth="yes"/>
      <point x="328" y="42"/>
      <point x="319" y="54"/>
      <point x="319" y="129" type="curve" smooth="yes"/>
      <point x="319" y="299" type="line" smooth="yes"/>
      <point x="319" y="374"/>
      <point x="328" y="387"/>
      <point x="385" y="394" type="curve" smooth="yes"/>
      <point x="416" y="398" type="line"/>
      <point x="424" y="405"/>
      <point x="424" y="427"/>
      <point x="414" y="431" type="curve"/>
      <point x="380" y="429"/>
      <point x="315" y="428"/>
      <point x="253" y="428" type="curve" smooth="yes"/>
      <point x="193" y="428"/>
      <point x="146" y="429"/>
      <point x="94" y="431" type="curve"/>
      <point x="84" y="427"/>
      <point x="84" y="405"/>
      <point x="92" y="398" type="curve"/>
      <point x="123" y="394" type="line" smooth="yes"/>
      <point x="180" y="387"/>
      <point x="189" y="374"/>
      <point x="189" y="299" type="curve" smooth="yes"/>
    </contour>
  </outline>
</glyph>
<glyph name="parenleft.denominator" format="1">
  <advance width="240"/>
  <outline>
    <contour>
      <point x="36" y="193" type="curve" smooth="yes" name="hr00"/>
      <point x="36" y="80"/>
      <point x="98" y="-18"/>
      <point x="206" y="-67" type="curve"/>
      <point x="214" y="-66"/>
      <point x="223" y="-57"/>
      <point x="220" y="-47" type="curve"/>
      <point x="177" y="2"/>
      <point x="133" y="82"/>
      <point x="133" y="193" type="curve" smooth="yes"/>
      <point x="133" y="304"/>
      <point x="177" y="384"/>
      <point x="220" y="433" type="curve"/>
      <point x="223" y="443"/>
      <point x="214" y="452"/>
      <point x="206" y="453" type="curve"/>
      <point x="98" y="404"/>
      <point x="36" y="306"/>
    </contour>
  </outline>
</glyph>
<glyph name="two.fitted" format="1">
  <advance width="520"/>
  <outline>
    <contour>
      <point x="221" y="103" type="line" smooth="yes" name="hr01"/>
      <point x="207" y="103"/>
      <point x="202" y="109"/>
      <point x="202" y="115" type="curve" smooth="yes"/>
      <point x="202" y="123"/>
      <point x="211" y="137"/>
      <point x="255" y="178" type="curve" smooth="yes"/>
      <point x="303" y="223" type="line" smooth="yes"/>
      <point x="423" y="336"/>
      <point x="454" y="392"/>
      <point x="454" y="470" type="curve" smooth="yes"/>
      <point x="454" y="564"/>
      <point x="382" y="640"/>
      <point x="265" y="640" type="curve" smooth="yes"/>
      <point x="168" y="640"/>
      <point x="76" y="585"/>
      <point x="35" y="484" type="curve"/>
      <point x="37" y="468"/>
      <point x="56" y="462"/>
      <point x="68" y="470" type="curve"/>
      <point x="100" y="525"/>
      <point x="140" y="562"/>
      <point x="197" y="562" type="curve" smooth="yes"/>
      <point x="264" y="562"/>
      <point x="306" y="509"/>
      <point x="306" y="440" type="curve" smooth="yes"/>
      <point x="306" y="333"/>
      <point x="244" y="249"/>
      <point x="175" y="173" type="curve" smooth="yes"/>
      <point x="115" y="107"/>
      <point x="58" y="54"/>
      <point x="20" y="19" type="curve" name="hr02"/>
      <point x="18" y="10"/>
      <point x="21" y="-1"/>
      <point x="30" y="-3" type="curve"/>
      <point x="47" y="-1"/>
      <point x="90" y="0"/>
      <point x="142" y="0" type="curve" smooth="yes" name="hr03"/>
      <point x="301" y="0" type="line" smooth="yes"/>
      <point x="365" y="0"/>
      <point x="401" y="-1"/>
      <point x="441" y="-3" type="curve"/>
      <point x="458" y="21"/>
      <point x="481" y="90"/>
      <point x="490" y="152" type="curve"/>
      <point x="486" y="165"/>
      <point x="463" y="165"/>
      <point x="456" y="158" type="curve"/>
      <point x="427" y="105"/>
      <point x="415" y="103"/>
      <point x="342" y="103" type="curve" smooth="yes"/>
    </contour>
  </outline>
</glyph>
<glyph name="two.superior" format="1">
  <advance width="400"/>
  <outline>
    <contour>
      <point x="210" y="320" type="line" smooth="yes" name="hr00"/>
      <point x="269" y="320"/>
      <point x="297" y="319"/>
      <point x="324" y="318" type="curve"/>
      <point x="337" y="338"/>
      <point x="357" y="392"/>
      <point x="363" y="425" type="curve"/>
      <point x="358" y="430"/>
      <point x="348" y="432"/>
      <point x="340" y="429" type="curve"/>
      <point x="323" y="397"/>
      <point x="302" y="395"/>
      <point x="256" y="395" type="curve" smooth="yes"/>
      <point x="194" y="395" type="line" smooth="yes"/>
      <point x="181" y="395"/>
      <point x="176" y="403"/>
      <point x="186" y="412" type="curve" smooth="yes"/>
      <point x="211" y="433" type="line"/>
      <point x="242" y="456" type="line" smooth="yes"/>
      <point x="320" y="514"/>
      <point x="340" y="559"/>
      <point x="340" y="601" type="curve" smooth="yes"/>
      <point x="340" y="665"/>
      <point x="293" y="713"/>
      <point x="205" y="713" type="curve" smooth="yes"/>
      <point x="144" y="713"/>
      <point x="84" y="680"/>
      <point x="50" y="613" type="curve"/>
      <point x="50" y="597"/>
      <point x="68" y="589"/>
      <point x="78" y="596" type="curve"/>
      <point x="98" y="632"/>
      <point x="126" y="655"/>
      <point x="159" y="655" type="curve" smooth="yes"/>
      <point x="196" y="655"/>
      <point x="218" y="627"/>
      <point x="218" y="586" type="curve" smooth="yes"/>
      <point x="218" y="525"/>
      <point x="179" y="466"/>
      <point x="143" y="428" type="curve" smooth="yes"/>
      <point x="89" y="373"/>
      <point x="65" y="355"/>
      <point x="42" y="337" type="curve"/>
      <point x="40" y="331"/>
      <point x="42" y="322"/>
      <point x="49" y="318" type="curve"/>
      <point x="60" y="319"/>
      <point x="77" y="320"/>
      <point x="114" y="320" type="curve" smooth="yes"/>
    </contour>
  </outline>
</glyph>
